<svg width="231" height="184" viewBox="0 0 231 184" fill="none" xmlns="http://www.w3.org/2000/svg">
<g filter="url(#filter0_d_97_34)">
<path d="M98.0957 132.766C98.0957 143.182 93.8639 152.297 85.4004 160.109C77.0996 167.922 67.2526 171.828 55.8594 171.828C37.9557 171.828 24.2025 165.887 14.5996 154.006C4.99674 142.124 0.195312 125.686 0.195312 104.689C0.195312 85.1582 8.41471 65.4642 24.8535 45.6074C41.4551 25.7507 61.3932 10.6953 84.668 0.441406L95.4102 17.7754C77.0182 26.7272 62.6139 37.1439 52.1973 49.0254C41.7806 60.9069 35.7585 75.3112 34.1309 92.2383H47.8027C57.8939 92.2383 66.1133 93.3776 72.4609 95.6562C78.8086 97.9349 83.9355 101.109 87.8418 105.178C91.5853 109.084 94.1895 113.397 95.6543 118.117C97.2819 122.837 98.0957 127.72 98.0957 132.766ZM218.457 132.766C218.457 143.182 214.225 152.297 205.762 160.109C197.461 167.922 187.614 171.828 176.221 171.828C158.317 171.828 144.564 165.887 134.961 154.006C125.358 142.124 120.557 125.686 120.557 104.689C120.557 85.1582 128.776 65.4642 145.215 45.6074C161.816 25.7507 181.755 10.6953 205.029 0.441406L215.771 17.7754C197.38 26.7272 182.975 37.1439 172.559 49.0254C162.142 60.9069 156.12 75.3112 154.492 92.2383H168.164C178.255 92.2383 186.475 93.3776 192.822 95.6562C199.17 97.9349 204.297 101.109 208.203 105.178C211.947 109.084 214.551 113.397 216.016 118.117C217.643 122.837 218.457 127.72 218.457 132.766Z" fill="#00438D"/>
</g>
<defs>
<filter id="filter0_d_97_34" x="0.195312" y="0.441406" width="230.262" height="183.387" filterUnits="userSpaceOnUse" color-interpolation-filters="sRGB">
<feFlood flood-opacity="0" result="BackgroundImageFix"/>
<feColorMatrix in="SourceAlpha" type="matrix" values="0 0 0 0 0 0 0 0 0 0 0 0 0 0 0 0 0 0 127 0" result="hardAlpha"/>
<feOffset dx="12" dy="12"/>
<feComposite in2="hardAlpha" operator="out"/>
<feColorMatrix type="matrix" values="0 0 0 0 1 0 0 0 0 0 0 0 0 0 0 0 0 0 1 0"/>
<feBlend mode="normal" in2="BackgroundImageFix" result="effect1_dropShadow_97_34"/>
<feBlend mode="normal" in="SourceGraphic" in2="effect1_dropShadow_97_34" result="shape"/>
</filter>
</defs>
</svg>
