<svg xmlns="http://www.w3.org/2000/svg" width="629" height="550" fill="none">
  <g filter="url(#a)">
    <rect width="287.21" height="488.45" x="8" fill="#ff328f" rx="30"/>
    <rect width="282.21" height="483.45" x="10.5" y="2.5" stroke="#07154b" stroke-width="5" rx="27.5"/>
  </g>
  <rect width="242" height="218" x="30.4" y="31.41" fill="#fbe7f3" stroke="#07154b" stroke-width="5" rx="6.5"/>
  <path fill="#07154b" d="m180.5 135.5-2.5-2 9-2z"/>
  <g filter="url(#b)">
    <path fill="#fff" d="M150.53 272a93.53 93.53 0 1 1 0 187.06 93.53 93.53 0 0 1 0-187.06m0 61.41a32.12 32.12 0 1 0 0 64.25 32.12 32.12 0 0 0 0-64.25"/>
  </g>
  <g filter="url(#c)">
    <path fill="#fff" fill-rule="evenodd" d="M420.68 38.44c10.88-5.99 22.87-8.41 33.63-7.58 10.4.8 19.8 4.65 25.86 11.42l.58.66.1.13.08.15 15.5 30-1.33.69-1.33.69-15.42-29.84c-5.4-6.33-14.15-10.14-24.27-10.91-10.17-.78-21.57 1.5-31.96 7.22-20.65 11.35-37.43 36.34-32.05 77.98l.5 1.37 2.08-1.12a5 5 0 0 1 6.78 2l29.34 53.96a5 5 0 0 1-2 6.78l-.32.17c14.45 16.26 32.91 31.37 58.04 50l.25.18.15.26 15.14 25.74c8.07-19.01 17.06-33.36 28.21-45.34 11.52-12.37 25.3-22.16 42.62-31.95 34.2-19.32 61.76-57.2 45.9-98-14.3-21.35-25.91-31.83-38.83-33.01-6.48-.6-13.49 1.12-21.57 5.28-8.1 4.17-17.18 10.73-27.8 19.68l-.96-1.14-.97-1.15C537.31 63.75 546.6 57.02 555 52.7s15.98-6.26 23.21-5.6c14.03 1.29 26.03 12.32 39.8 32.5l1.35 1.97.09.14.06.15c16.8 42.92-12.4 82.2-47.16 101.85-17.18 9.71-30.67 19.32-41.9 31.38s-20.25 26.62-28.42 46.31l-.07.26 41.44 70.49v.01l.01.01c7.75 13.72 9.8 23.53 6.58 31.99-3.13 8.22-11.12 14.72-22.17 22.24-6.5 18.22-19.13 29.71-28.23 41.04-4.14 5.15-7.57 10.26-9.58 16 15.98-8.83 30.98-16.04 43.42-19.48 8.02-2.22 15.18-2.93 20.9-1.32 5.82 1.63 10 5.6 12.07 12.27 7.84 14.27 13.46 26.86 14.26 39.41.81 12.7-3.3 25.15-14.48 39.12-5.67 7.09-12.18 11.26-19.11 12.67s-14.11.03-21.07-3.66c-13.87-7.36-27.06-23.97-36.38-46.89-4.18-10.28-5.25-18.73-4.17-26.14q-4.05 2.3-8.17 4.71c-10.6 6.2-21.46 12.83-32.17 19.35a1419 1419 0 0 1-31.27 18.67c-10 5.73-19.44 10.8-27.9 14.62s-16.02 6.44-22.24 7.22c-11.86 1.48-24.62 5.1-37.58 9.27-12.9 4.16-26.07 8.9-38.5 12.5s-24.36 6.14-34.89 5.87c-10.57-.26-19.86-3.36-26.84-11.13-6.67-7.42-10.9-13.3-13.47-17.97-2.56-4.66-3.53-8.18-3.54-10.88-.03-2.74.93-4.55 2.02-5.68a6 6 0 0 1 2.23-1.48h.02l.01-.01.46 1.43.45 1.43h.01-.03l-.22.12q-.32.15-.77.59c-.54.56-1.2 1.62-1.19 3.58.02 2.02.75 5.04 3.18 9.45s6.5 10.1 13.08 17.42c6.27 6.98 14.67 9.88 24.68 10.13 10.05.25 21.6-2.17 33.97-5.76 12.39-3.59 25.37-8.26 38.42-12.46 13-4.19 25.98-7.88 38.12-9.4 5.78-.72 13.02-3.2 21.38-6.98 8.34-3.76 17.69-8.78 27.65-14.49 9.95-5.7 20.49-12.1 31.2-18.62 10.7-6.52 21.59-13.17 32.22-19.38q5.27-3.08 10.46-6c1.95-7.54 6.11-13.87 11.02-19.98 10.3-12.82 23.75-24.65 29.3-45.17-7.73-30.89-17.56-49.66-24.07-66.4-3.26-8.4-5.68-16.27-6.48-24.82-.76-8.14-.05-16.82 2.73-27.09l-16.26-27.65c-25.3-18.75-44.02-34.1-58.72-50.74l-3.12 1.7a5 5 0 0 1-6.78-2.01l-29.35-53.96a5 5 0 0 1 2-6.78l1.42-.77-.72-1.95-.06-.15-.02-.17c-5.59-42.83 11.7-69.13 33.57-81.16m132.84 387.09c-4.95-1.39-11.47-.84-19.3 1.32-12.78 3.54-28.49 11.21-45.39 20.66-1.6 7.29-.93 15.87 3.56 26.93 9.18 22.57 22 38.46 35 45.36 6.48 3.43 12.95 4.62 19.07 3.37 6.11-1.24 12.04-4.95 17.37-11.6 10.82-13.54 14.58-25.28 13.83-37.06-.76-11.87-6.11-24-13.97-38.29l-.08-.14-.04-.14c-1.78-5.85-5.24-9.07-10.05-10.42m-52.64-159.77c-2.08 8.7-2.56 16.15-1.9 23.13.76 8.15 3.07 15.73 6.29 24 6.42 16.52 16.48 35.8 24.29 67.16l.09.37-.1.37-.25.93c9.33-6.58 15.4-12.12 17.88-18.63 2.73-7.16 1.23-15.94-6.39-29.44z" clip-rule="evenodd"/>
    <path fill="#fff" d="M526.22 377.94c-2.4.36-4.11 13-4.11 14.44s2.74 2.53 4.8 2.53 7.2-10.83 7.2-12.64c0-1.8-5.49-4.7-7.89-4.33"/>
    <path fill="#fff" fill-rule="evenodd" d="m223.95 487.91-16.14-.02-.04 28.18 16.14.02z" clip-rule="evenodd"/>
    <path fill="#fff" d="m515.65 112.3-.03.01c-6.78-4.45-16.07-2.77-21.19 4-5.33 7.05-4.11 16.95 2.72 22.11 6.04 4.57 14.44 3.9 19.99-1.19l.04-.04q.76-.7 1.44-1.5l6.16-6.46-1.75-12.61z"/>
    <rect width="8.49" height="4.1" fill="#07154b" rx="2.05" transform="rotate(173.98 250.3 75.68)scale(1 -1)"/>
    <ellipse cx="6" cy=".8" fill="#07154b" rx="6" ry=".8" transform="rotate(82.16 187.84 364.89)scale(-1 1)"/>
    <rect width="45.29" height="10.27" x="495.02" y="118.05" fill="#fff" rx="2" transform="rotate(-96.15 495.02 118.05)"/>
    <g filter="url(#d)">
      <path fill="#fff" d="m488.6 91.9.02.04c8.09.54 14.49 7.48 14.49 15.97 0 8.84-6.94 16-15.5 16-7.57 0-13.87-5.6-15.23-13l-.01-.07q-.18-1-.24-2.06l-1.02-8.87 9-9z"/>
      <rect width="8.49" height="4.1" x="487.91" y="106.91" fill="#07154b" rx="2.05" transform="rotate(43.1 487.9 106.9)"/>
      <ellipse cx="476.91" cy="96.72" fill="#07154b" rx="6" ry=".8" transform="rotate(-45.08 476.91 96.72)"/>
      <rect width="45.29" height="10.27" fill="#fff" rx="2" transform="rotate(133.23 227.24 162.9)scale(-1 1)"/>
    </g>
  </g>
  <path fill="#07154b" d="M143.5 299.74V307h-1.37v-3.78l.07-2.13h-.02l-2.01 5.91h-1.25l-2-5.9h-.02l.08 2.12V307h-1.38v-7.26h2.2l1.31 3.96.46 1.64h.03l.47-1.63 1.3-3.97zm1.89 7.26v-7.26h5.44v1.22h-3.92v1.8H150v1.17h-3.1v1.85h4.1V307zm13.2-7.26V307h-1.74l-2.54-4.27-.63-1.19h-.01l.04 1.26v4.2h-1.36v-7.26h1.73l2.54 4.26.62 1.2h.03l-.05-1.26v-4.2zm7.95 0v4.4q0 1.48-.79 2.23-.8.74-2.31.74t-2.31-.74-.8-2.23v-4.4h1.53v4.33q0 .91.38 1.36.39.44 1.2.44t1.19-.44.38-1.36v-4.33zm-88.08 67.34 5.9-3.92q.22-.16.49-.16.26 0 .48.14.25.15.39.44.14.27.14.59v2.74l5.64-3.76q.23-.15.49-.15t.49.14q.24.16.38.43.15.28.14.6v7.67q0 .3-.14.59-.14.27-.38.43a.9.9 0 0 1-.98-.01l-5.64-3.76v2.74q0 .32-.14.6t-.39.43a.9.9 0 0 1-.97-.01l-5.9-3.93q-.22-.15-.34-.4a1.2 1.2 0 0 1 0-1.04q.13-.25.34-.4"/>
  <rect width="2" height="10" x="75" y="363" fill="#07154b" rx=".3"/>
  <path fill="#07154b" d="m223.54 367.08-5.9-3.92a.9.9 0 0 0-.97-.01q-.25.16-.39.43t-.14.59v2.74l-5.64-3.76a.9.9 0 0 0-.97-.01q-.25.16-.4.43-.13.28-.13.6v7.67q0 .3.14.59.14.27.38.43a.9.9 0 0 0 .97-.01l5.65-3.76v2.74q0 .32.14.6t.39.43a.9.9 0 0 0 .97-.01l5.9-3.93q.21-.15.34-.4a1.2 1.2 0 0 0 0-1.04q-.12-.25-.34-.4"/>
  <rect width="2" height="10" fill="#07154b" rx=".3" transform="matrix(-1 0 0 1 227 363)"/>
  <path fill="#07154b" d="m149.74 433.13-7.12-3.95a.4.4 0 0 0-.56.15.4.4 0 0 0-.06.21v9a.4.4 0 0 0 .41.42q.12 0 .2-.05l7.13-3.96a1.03 1.03 0 0 0 .39-1.44q-.15-.24-.4-.38"/>
  <path stroke="#07154b" stroke-linecap="round" stroke-width="2" d="M154.5 439.25v-10.42m4.17 10.42v-10.42"/>
  <path fill="#ffe100" d="m33 63.5 236.85 19.95v40.05L33 104.5z"/>
  <path fill="#07154b" d="M97.45 103.48q-3.66-.3-6.19-2.09a11 11 0 0 1-3.72-4.76q-1.2-2.98-.89-6.68.3-3.76 1.97-6.47 1.67-2.74 4.45-4.13 2.77-1.42 6.45-1.12 4.53.36 7.2 2.87a10 10 0 0 1 3.08 6.68l-5.73-.47a4.7 4.7 0 0 0-1.54-3q-1.28-1.17-3.44-1.34a6 6 0 0 0-3.6.68 6 6 0 0 0-2.42 2.58 11 11 0 0 0-1.08 4.16q-.2 2.4.39 4.25a6.3 6.3 0 0 0 1.97 2.9 6.4 6.4 0 0 0 3.45 1.23 6 6 0 0 0 3.56-.62 4.5 4.5 0 0 0 2.03-2.54l5.73.47a9.6 9.6 0 0 1-4.1 5.8q-3.03 1.98-7.57 1.6M122 105.5a12 12 0 0 1-4.93-1.5 8.6 8.6 0 0 1-3.3-3.6 11 11 0 0 1-.83-5.65l1.22-14.9 5.23.44-1.22 14.92q-.14 1.64.3 2.84.46 1.2 1.46 1.87 1.03.66 2.53.77 1.54.13 2.63-.34a4 4 0 0 0 1.78-1.61q.66-1.11.79-2.75l1.22-14.93 5.24.43-1.22 14.9a10 10 0 0 1-1.85 5.43 8.7 8.7 0 0 1-3.94 3.01q-2.35.9-5.11.67m14.56.77 2-24.42 16.22 1.33-.35 4.22-10.98-.9-.5 5.93 8.66.71-.33 4.08-8.66-.7-.83 10.18zm19.66 1.61 2-24.42 16.21 1.33-.34 4.22-10.99-.9-.49 5.93 8.66.71-.34 4.08-8.65-.7-.83 10.18zm19.65 1.61 2-24.42 16.36 1.34-.35 4.22-11.12-.9-.48 5.75 10.09.82-.34 4.05-10.08-.83-.5 6.18 11.13.9-.35 4.23zm20.5 1.68 2-24.42 8.48.7q4.26.35 6.89 2.1a9.4 9.4 0 0 1 3.77 4.6q1.13 2.83.83 6.53-.3 3.66-1.88 6.3a9.6 9.6 0 0 1-4.47 3.92q-2.88 1.32-7.13.96zm5.6-4.07 2.94.24a9 9 0 0 0 4.54-.54 5 5 0 0 0 2.52-2.47q.84-1.68 1.03-4.09.2-2.45-.35-4.2a5 5 0 0 0-2.09-2.85 9 9 0 0 0-4.39-1.3l-2.93-.25zM72.4 67.77l-25.84 37.17-10.96-.92L61.62 66.8zm20.73 1.78-25.84 37.17-10.97-.92 26.02-37.21zM248.6 82.28l-25.83 37.17-10.97-.92 26.02-37.21zm20.73 1.78-25.84 37.18-10.97-.93 26.02-37.21z"/>
  <path fill="#ffe100" d="m33.5 182.5 236-43V180l-236 43.5z"/>
  <path fill="#07154b" d="m67.87 176.89-15.35 42.59-10.83 1.94 15.5-42.67zm20.48-3.64L73 215.85l-10.83 1.94 15.5-42.68zm153.48-27.9-15.35 42.59-10.83 1.94 15.5-42.67zm20.47-3.65-15.34 42.6-10.83 1.94 15.5-42.67zm-149.2 60.57-4.56-24.08 5.15-.97 13.56 13.82-3-15.82 5.16-.98 4.56 24.07-5.16.98-13.54-13.75 2.98 15.75zm36.78-6.54q-3.55.66-6.53-.4a11.6 11.6 0 0 1-5.06-3.57 14 14 0 0 1-2.74-6.22q-.7-3.67.29-6.75 1-3.1 3.4-5.2a12 12 0 0 1 5.92-2.76q3.54-.68 6.56.4 3 1.05 5.03 3.6a13.6 13.6 0 0 1 2.73 6.18 14 14 0 0 1-.28 6.79 11 11 0 0 1-3.37 5.16 12.4 12.4 0 0 1-5.96 2.77m-.88-4.65a6.5 6.5 0 0 0 3.39-1.64 6.5 6.5 0 0 0 1.83-3.12q.5-1.91.04-4.32a10 10 0 0 0-1.61-3.97 6 6 0 0 0-2.85-2.24 6.5 6.5 0 0 0-3.76-.28q-2.03.38-3.36 1.63-1.33 1.21-1.83 3.13a10 10 0 0 0-.04 4.28q.45 2.4 1.61 4a6.5 6.5 0 0 0 2.85 2.24q1.7.68 3.72.3m21.52.3-3.77-19.9-6.98 1.32-.8-4.16 19.13-3.62.79 4.16-6.98 1.32 3.77 19.91zm16.94-11.54-1.2-5.54 1.83-.35q1.28-.24 2.31-.58a7 7 0 0 0 1.75-.9q.72-.52 1.04-1.3.3-.8.1-1.9a3 3 0 0 0-.68-1.55q-.52-.62-1.3-.86a3.4 3.4 0 0 0-1.73-.07q-.99.2-1.65.7-.64.53-.9 1.28-.24.76-.07 1.7l-4.88.92a7.6 7.6 0 0 1 .22-3.9 7 7 0 0 1 2.3-3.14 10 10 0 0 1 4.28-1.8q2.34-.45 4.33.07a6.5 6.5 0 0 1 3.32 1.93q1.35 1.42 1.78 3.76a7 7 0 0 1-.3 4.01 6.3 6.3 0 0 1-2.35 2.87 11 11 0 0 1-3.9 1.56l.27 2.23zm3.9 7.78a3.2 3.2 0 0 1-2.43-.4 3 3 0 0 1-1.25-1.9 2.8 2.8 0 0 1 .47-2.22 3 3 0 0 1 2.1-1.3 3 3 0 0 1 2.4.44q1.02.67 1.25 1.9.23 1.2-.47 2.23a3.2 3.2 0 0 1-2.08 1.25"/>
  <path fill="#07154b" fill-rule="evenodd" d="M104.81 115.07c17.16-9.25 27.7-.06 27.77 0 9.97 9.3 2.52 33.3-12.87 46.35-11.51 9.1-27.77 12.58-36.09 0-6.92-15.32 3.97-37.06 21.2-46.35m87.24-10.39-3.7 6.53c14.12-.5 25.05 7.66 20.47 13.75-4.76 6.32-29.12 10.12-29.22 10.14 12.32 12.94 27.7 22.89 46.88 33.39h-23.1c-14.63-9.6-19.8-16-26.02-28.4l1.79-5c9.48-3.63 10.73-5.29 13.2-7.3 4.24-4.25 2.16-10.66-5.75-8.72q-1.73.6-3.37 1.2l-22.21 39.26q-.01.3-.1.58c-.89 3-3.17 4.23-6.42 5.3-4.52.95-6.95 1.3-11.03 1.5-1.42-3.75-2.1-5.83-3.23-9.52-1.39-5.84-.62-7.79 3.04-9.28 4.04-.36 6.63 2.06 7.77 6.26 2.8-1.31 5.73-.39 7.68 1.2l20.06-33.64c-15 5.84-24.53 11.85-39.44 22.4-.14-6.93.49-10.87 3.2-18.03 2.9-3.06 27.34-13 42.47-14.82l5.83-9.78zm-65.95 15.23c-2-9.36-10.24-6.86-16.64-.97s-18.87 30.15-18 40.65 10.35 9.57 18 2.22c7.64-7.35 17.54-30.78 16.64-41.9" clip-rule="evenodd"/>
  <path fill="#f4001f" d="M102.81 113.07c17.23-9.28 27.77 0 27.77 0 9.97 9.3 2.52 33.3-12.87 46.36-11.51 9.1-27.77 12.57-36.09 0-6.92-15.33 3.97-37.07 21.2-46.36m87.24-10.39-3.7 6.53c14.12-.5 25.05 7.66 20.47 13.75-4.76 6.31-29.06 10.11-29.22 10.14 12.33 12.94 27.7 22.89 46.88 33.39h-23.1c-14.63-9.6-19.8-16-26.02-28.4l1.79-5c9.48-3.63 10.73-5.29 13.2-7.3 4.24-4.25 2.16-10.66-5.75-8.72q-1.73.6-3.37 1.2l-22.21 39.26q-.01.3-.1.58c-.89 3-3.17 4.23-6.42 5.3-4.52.95-6.95 1.3-11.03 1.5a129 129 0 0 1-3.23-9.52c-1.39-5.84-.62-7.79 3.04-9.28 4.04-.36 6.63 2.06 7.77 6.26 2.8-1.31 5.73-.39 7.68 1.2l20.06-33.64c-14.99 5.84-24.53 11.85-39.44 22.4-.14-6.93.49-10.87 3.2-18.03 2.9-3.06 27.34-13 42.47-14.82l5.83-9.78zm-65.95 15.23c-2-9.36-10.23-6.86-16.64-.97s-18.87 30.15-18 40.65 10.35 9.58 18 2.22c7.64-7.35 17.54-30.78 16.64-41.9"/>
  <path fill="#f4001f" d="m102.81 113.07-.23-.44zm27.77 0 .34-.36v-.01zm-12.87 46.36.31.39h.01v-.01zm-36.09 0-.46.2.02.04.02.03zm108.43-56.75.43.25.12-.2-.09-.23zm-3.7 6.53-.43-.24-.44.78.89-.04zm20.47 13.75.4.3zM177.6 133.1l-.08-.5-.94.15.66.69zm46.88 33.39v.5l.24-.94zm-23.1 0-.28.42.13.08h.15zm-26.02-28.4-.47-.17-.07.2.1.2zm1.79-5-.18-.46-.21.08-.08.22zm13.2-7.3.31.39.02-.02.02-.02zm-5.75-8.72-.11-.49h-.03l-.02.02zm-3.37 1.2-.17-.47-.17.06-.1.16zm-22.21 39.26-.44-.25-.06.1v.13zm-.1.58.49.14zm-6.42 5.3.1.5.03-.01.03-.01zm-11.03 1.5-.47.18.13.34.36-.02zm-3.23-9.52-.49.11v.02l.01.01zm3.04-9.28-.04-.5-.08.01-.07.03zm7.77 6.26-.48.13.16.58.53-.25zm7.68 1.2-.31.4.45.36.3-.5zm20.06-33.64.43.26.75-1.25-1.36.53zm-39.44 22.4-.5.02.02.94.77-.54zm3.2-18.03-.36-.34-.07.07-.04.1zm42.47-14.82.06.5.25-.03.12-.21zm5.83-9.78.47-.18-.38-.94-.51.87zm-64.75 18.21.5-.04v-.03l-.01-.03zm-16.64-.97-.34-.36zm-18 40.65-.5.04zm18 2.22.35.36zm-4.65-46.74.24.44c8.5-4.58 15.32-4.57 19.99-3.43 2.34.56 4.15 1.42 5.38 2.12a15 15 0 0 1 1.81 1.23l.02.02.33-.38.33-.37v-.01l-.03-.02-.1-.09-.39-.29q-.5-.38-1.47-.96c-1.3-.74-3.2-1.63-5.64-2.22-4.91-1.2-11.98-1.18-20.7 3.52zm27.77 0-.34.37c4.77 4.45 5.46 12.52 2.94 21.26a52 52 0 0 1-15.79 24.34l.32.39.33.38a53 53 0 0 0 16.1-24.84c2.55-8.85 1.98-17.42-3.21-22.26zm-12.87 46.36-.3-.4c-5.7 4.5-12.55 7.6-18.97 8.02-6.4.43-12.36-1.79-16.4-7.9l-.42.28-.42.27c4.28 6.46 10.6 8.8 17.3 8.35 6.67-.44 13.71-3.64 19.52-8.23zm-36.09 0 .46-.21c-3.38-7.49-2.43-16.6 1.54-25.02a46.4 46.4 0 0 1 19.43-20.69l-.24-.44-.23-.44a47.4 47.4 0 0 0-19.87 21.15c-4.05 8.6-5.08 18.02-1.55 25.85zm108.43-56.75-.44-.24-3.7 6.53.44.24.44.25 3.7-6.53zm-3.7 6.53.02.5c6.97-.24 13.12 1.65 16.94 4.32 1.91 1.33 3.2 2.83 3.76 4.32a4.3 4.3 0 0 1-.65 4.3l.4.3.4.3A5.3 5.3 0 0 0 208 118c-.65-1.74-2.12-3.39-4.13-4.8-4.02-2.8-10.4-4.74-17.55-4.49zm20.47 13.75-.4-.3c-1.1 1.46-3.4 2.84-6.35 4.08a74 74 0 0 1-9.71 3.16 145 145 0 0 1-12.84 2.7l.08.5.08.49c.08-.01 6.22-.97 12.93-2.72a74 74 0 0 0 9.85-3.2c2.96-1.25 5.48-2.72 6.76-4.41zM177.6 133.1l-.36.34c12.38 13 27.8 22.98 47 33.49l.24-.44.24-.44c-19.16-10.5-34.49-20.41-46.76-33.3zm46.88 33.39v-.5h-23.1v1h23.1zm-23.1 0 .27-.42c-7.3-4.79-12.2-8.76-16.06-13.06s-6.68-8.96-9.78-15.14l-.45.22-.45.22c3.12 6.22 6 10.97 9.93 15.36 3.94 4.4 8.93 8.42 16.26 13.24zm-26.02-28.4.47.17 1.8-5-.48-.16-.47-.17-1.79 5zm1.79-5 .18.47c4.75-1.82 7.47-3.16 9.31-4.3s2.82-2.1 4.02-3.08l-.31-.39-.32-.39c-1.26 1.03-2.14 1.91-3.91 3-1.77 1.1-4.42 2.41-9.15 4.23zm13.2-7.3.35.35c2.23-2.22 2.88-5.12 1.78-7.26-1.13-2.18-3.92-3.3-8-2.3l.12.49.12.49c3.83-.94 6.04.18 6.87 1.78.85 1.64.42 4.08-1.6 6.1zm-5.75-8.72-.16-.47q-1.74.6-3.38 1.2l.17.47.17.47q1.64-.6 3.37-1.2zm-3.37 1.2-.44-.25-22.2 39.26.43.25.43.24 22.22-39.26zm-22.21 39.26-.5-.02q0 .24-.07.46l.48.14.47.14q.1-.35.12-.7zm-.1.58-.47-.15c-.82 2.76-2.88 3.92-6.1 4.98l.15.47.16.48c3.28-1.08 5.78-2.38 6.75-5.64zm-6.42 5.3-.1-.48a60 60 0 0 1-10.96 1.48l.03.5.02.5c4.12-.2 6.58-.55 11.12-1.5zm-11.03 1.5.47-.18a129 129 0 0 1-3.22-9.49l-.48.15-.48.14c1.13 3.7 1.82 5.8 3.24 9.56zm-3.23-9.52.49-.12c-.7-2.92-.82-4.74-.4-6 .42-1.2 1.36-1.97 3.14-2.7l-.19-.46-.19-.46c-1.88.76-3.15 1.7-3.7 3.3-.52 1.56-.33 3.63.36 6.55zm3.04-9.28.04.5a6 6 0 0 1 4.61 1.3c1.2 1 2.09 2.56 2.64 4.6l.48-.14.48-.13c-.58-2.16-1.56-3.92-2.96-5.09a7 7 0 0 0-5.33-1.54zm7.77 6.26.21.46c2.57-1.21 5.3-.38 7.16 1.13l.31-.38.32-.39c-2.06-1.68-5.2-2.69-8.21-1.27zm7.68 1.2.43.26 20.06-33.64-.43-.26-.43-.25-20.06 33.64zm20.06-33.64-.18-.46c-15.05 5.86-24.62 11.9-39.55 22.46l.29.4.29.42c14.9-10.55 24.4-16.53 39.33-22.35zm-39.44 22.4h.5c-.14-6.87.48-10.75 3.17-17.85l-.47-.18-.47-.18c-2.73 7.22-3.37 11.23-3.23 18.23zm3.2-18.03.36.34q.47-.49 1.93-1.35 1.45-.85 3.66-1.89c2.92-1.38 6.7-2.96 10.88-4.5 8.35-3.1 18.2-6.02 25.7-6.92l-.06-.5-.06-.5c-7.62.92-17.56 3.88-25.93 6.98-4.2 1.55-8 3.14-10.96 4.54q-2.22 1.05-3.73 1.93c-1.51.88-1.74 1.09-2.15 1.53zm42.47-14.82.43.26 5.83-9.78-.43-.26-.42-.25-5.84 9.77zm5.83-9.78-.46.19 1.2 2.98.46-.19.46-.18-1.2-2.98zm-64.75 18.21.49-.1c-.52-2.41-1.45-4.12-2.71-5.2a6 6 0 0 0-4.48-1.4c-3.28.2-7.05 2.4-10.28 5.37l.34.36.34.37c3.17-2.92 6.72-4.92 9.66-5.1a5 5 0 0 1 3.77 1.15c1.04.9 1.9 2.39 2.38 4.66zm-16.64-.97-.34-.36c-1.65 1.52-3.66 4.18-5.72 7.46a105 105 0 0 0-6.12 11.29 90 90 0 0 0-4.76 12.16c-1.15 3.86-1.78 7.42-1.56 10.14l.5-.04.5-.05c-.21-2.53.38-5.94 1.52-9.76a89 89 0 0 1 4.7-12.03c1.9-4.04 4.02-7.93 6.06-11.18s4-5.83 5.56-7.26zm-18 40.65-.5.04c.22 2.7 1 4.72 2.23 6.1a6.5 6.5 0 0 0 4.7 2.16c3.64.17 8.05-2 11.92-5.72l-.35-.36-.35-.36c-3.78 3.63-7.93 5.6-11.17 5.44a5.5 5.5 0 0 1-4-1.83c-1.04-1.17-1.77-2.96-1.98-5.52zm18 2.22.35.36c3.9-3.75 8.31-11.53 11.64-19.7 3.32-8.19 5.61-16.92 5.15-22.6l-.5.04-.5.04c.44 5.44-1.77 13.98-5.08 22.14s-7.66 15.76-11.4 19.36z"/>
  <defs>
    <filter id="a" width="295.21" height="495.45" x="0" y="0" color-interpolation-filters="sRGB" filterUnits="userSpaceOnUse">
      <feFlood flood-opacity="0" result="BackgroundImageFix"/>
      <feColorMatrix in="SourceAlpha" result="hardAlpha" values="0 0 0 0 0 0 0 0 0 0 0 0 0 0 0 0 0 0 127 0"/>
      <feOffset dx="-8" dy="7"/>
      <feComposite in2="hardAlpha" operator="out"/>
      <feColorMatrix values="0 0 0 0 0.0275411 0 0 0 0 0.0808933 0 0 0 0 0.294302 0 0 0 1 0"/>
      <feBlend in2="BackgroundImageFix" result="effect1_dropShadow_2850_536"/>
      <feBlend in="SourceGraphic" in2="effect1_dropShadow_2850_536" result="shape"/>
    </filter>
    <filter id="b" width="195.06" height="195.06" x="51" y="270" color-interpolation-filters="sRGB" filterUnits="userSpaceOnUse">
      <feFlood flood-opacity="0" result="BackgroundImageFix"/>
      <feColorMatrix in="SourceAlpha" result="hardAlpha" values="0 0 0 0 0 0 0 0 0 0 0 0 0 0 0 0 0 0 127 0"/>
      <feOffset dx="-2" dy="2"/>
      <feGaussianBlur stdDeviation="2"/>
      <feComposite in2="hardAlpha" operator="out"/>
      <feColorMatrix values="0 0 0 0 0.0275411 0 0 0 0 0.0808933 0 0 0 0 0.294302 0 0 0 0.25 0"/>
      <feBlend in2="BackgroundImageFix" result="effect1_dropShadow_2850_536"/>
      <feBlend in="SourceGraphic" in2="effect1_dropShadow_2850_536" result="shape"/>
    </filter>
    <filter id="c" width="424.61" height="518.95" x="203.77" y="30.7" color-interpolation-filters="sRGB" filterUnits="userSpaceOnUse">
      <feFlood flood-opacity="0" result="BackgroundImageFix"/>
      <feColorMatrix in="SourceAlpha" result="hardAlpha" values="0 0 0 0 0 0 0 0 0 0 0 0 0 0 0 0 0 0 127 0"/>
      <feOffset dy="4"/>
      <feGaussianBlur stdDeviation="2"/>
      <feComposite in2="hardAlpha" operator="out"/>
      <feColorMatrix values="0 0 0 0 0.0275411 0 0 0 0 0.0808933 0 0 0 0 0.294302 0 0 0 0.4 0"/>
      <feBlend in2="BackgroundImageFix" result="effect1_dropShadow_2850_536"/>
      <feBlend in="SourceGraphic" in2="effect1_dropShadow_2850_536" result="shape"/>
    </filter>
    <filter id="d" width="70.48" height="63.97" x="469.2" y="67.84" color-interpolation-filters="sRGB" filterUnits="userSpaceOnUse">
      <feFlood flood-opacity="0" result="BackgroundImageFix"/>
      <feColorMatrix in="SourceAlpha" result="hardAlpha" values="0 0 0 0 0 0 0 0 0 0 0 0 0 0 0 0 0 0 127 0"/>
      <feOffset dx="3" dy="3"/>
      <feGaussianBlur stdDeviation="2.45"/>
      <feComposite in2="hardAlpha" operator="out"/>
      <feColorMatrix values="0 0 0 0 0.0275411 0 0 0 0 0.0808933 0 0 0 0 0.294302 0 0 0 0.2 0"/>
      <feBlend in2="BackgroundImageFix" result="effect1_dropShadow_2850_536"/>
      <feBlend in="SourceGraphic" in2="effect1_dropShadow_2850_536" result="shape"/>
    </filter>
  </defs>
</svg>