<svg width="629" height="550" viewBox="0 0 629 550" fill="none" xmlns="http://www.w3.org/2000/svg">
<g filter="url(#filter0_d_2850_536)">
<rect x="8" width="287.211" height="488.447" rx="30" fill="#FF328F"/>
<rect x="10.5" y="2.5" width="282.211" height="483.447" rx="27.5" stroke="#07154B" stroke-width="5"/>
</g>
<rect x="30.3984" y="31.4082" width="242" height="218" rx="6.5" fill="#FBE7F3" stroke="#07154B" stroke-width="5"/>
<path d="M180.5 135.5L178 133.5L187 131.5L180.5 135.5Z" fill="#07154B"/>
<g filter="url(#filter1_d_2850_536)">
<path d="M150.532 272C202.189 272 244.064 313.876 244.064 365.532C244.064 417.189 202.189 459.064 150.532 459.064C98.8758 459.064 57 417.189 57 365.532C57.0001 313.876 98.8759 272 150.532 272ZM150.531 333.41C132.791 333.41 118.409 347.792 118.409 365.532C118.409 383.273 132.791 397.654 150.531 397.654C168.272 397.654 182.653 383.273 182.653 365.532C182.653 347.792 168.272 333.41 150.531 333.41Z" fill="white"/>
</g>
<g filter="url(#filter2_d_2850_536)">
<path fill-rule="evenodd" clip-rule="evenodd" d="M420.677 38.44C431.564 32.4528 443.551 30.0292 454.311 30.855C464.718 31.654 474.105 35.5098 480.17 42.2808L480.747 42.9449L480.855 43.0728L480.931 43.2212L496.431 73.2212L495.099 73.9097L493.766 74.5982L478.348 44.7574C472.959 38.4267 464.2 34.623 454.08 33.8462C443.914 33.066 432.509 35.357 422.122 41.0689C401.472 52.425 384.686 77.4087 390.066 119.054C390.233 119.513 390.404 119.97 390.573 120.424L392.648 119.296C395.074 117.977 398.11 118.875 399.429 121.3L428.771 175.259C430.09 177.685 429.193 180.721 426.767 182.041L426.446 182.214C440.903 198.471 459.36 213.583 484.492 232.205L484.737 232.386L484.892 232.65L500.029 258.395C508.104 239.375 517.09 225.027 528.242 213.05C539.763 200.676 553.539 190.894 570.863 181.102C605.055 161.776 632.617 123.891 616.762 83.106C602.456 61.7483 590.849 51.2728 577.927 50.0874C571.446 49.493 564.444 51.214 556.361 55.3726C548.269 59.5356 539.182 66.0951 528.569 75.0542L527.601 73.9077L526.633 72.7622C537.314 63.7462 546.602 57.0194 554.989 52.7046C563.384 48.3856 570.967 46.4368 578.201 47.1001C592.229 48.3869 604.235 59.4156 618.009 79.5933L619.348 81.5738L619.439 81.7095L619.498 81.8619C636.293 124.783 607.105 164.064 572.339 183.714C555.164 193.422 541.673 203.026 530.437 215.094C519.221 227.14 510.193 241.705 502.02 261.403C501.995 261.489 501.972 261.574 501.948 261.66L543.392 332.15L543.399 332.162L543.405 332.172C551.149 345.891 553.202 355.705 549.984 364.158C546.854 372.378 538.862 378.881 527.81 386.399C521.306 404.618 508.683 416.113 499.577 427.442C495.442 432.588 492.012 437.699 489.995 443.433C505.979 434.607 520.984 427.401 533.417 423.962C541.441 421.743 548.599 421.032 554.327 422.636C560.142 424.266 564.32 428.24 566.386 434.908C574.23 449.179 579.848 461.767 580.651 474.322C581.462 487.013 577.347 499.467 566.171 513.437C560.498 520.529 553.99 524.699 547.057 526.111C540.127 527.522 532.945 526.141 525.985 522.45C512.115 515.095 498.93 498.485 489.611 475.565C485.431 465.284 484.36 456.828 485.439 449.424C482.741 450.956 480.017 452.528 477.273 454.13C466.671 460.323 455.812 466.958 445.097 473.482C434.388 480.003 423.822 486.415 413.829 492.146C403.839 497.876 394.395 502.942 385.929 506.767C377.484 510.582 369.911 513.211 363.686 513.989C351.834 515.471 339.071 519.09 326.111 523.264C313.208 527.42 300.036 532.153 287.608 535.753C275.165 539.358 263.249 541.896 252.722 541.632C242.152 541.367 232.862 538.27 225.884 530.502C219.213 523.076 214.985 517.195 212.413 512.53C209.847 507.874 208.885 504.346 208.865 501.653C208.844 498.907 209.804 497.095 210.892 495.967C211.421 495.419 211.956 495.057 212.368 494.829C212.575 494.714 212.754 494.632 212.89 494.576C212.958 494.548 213.016 494.526 213.061 494.509C213.083 494.501 213.103 494.494 213.119 494.489C213.127 494.486 213.135 494.484 213.141 494.482C213.144 494.481 213.148 494.48 213.151 494.479C213.152 494.479 213.154 494.478 213.155 494.478C213.157 494.477 213.159 494.477 213.606 495.909C214.029 497.265 214.053 497.336 214.056 497.339L214.074 497.334C214.075 497.333 214.077 497.333 214.077 497.333C214.074 497.334 214.061 497.339 214.04 497.347C213.997 497.365 213.919 497.4 213.82 497.455C213.619 497.565 213.337 497.754 213.051 498.05C212.51 498.611 211.85 499.667 211.865 501.63C211.88 503.647 212.611 506.674 215.04 511.082C217.465 515.481 221.537 521.174 228.117 528.498C234.389 535.48 242.789 538.383 252.797 538.633C262.849 538.885 274.403 536.455 286.773 532.872C299.157 529.284 312.142 524.612 325.192 520.409C338.183 516.224 351.169 512.53 363.314 511.011C369.087 510.289 376.334 507.81 384.694 504.033C393.032 500.265 402.38 495.254 412.336 489.543C422.29 483.834 432.825 477.442 443.537 470.919C454.244 464.4 465.129 457.749 475.76 451.54C479.276 449.486 482.768 447.478 486.221 445.537C488.167 437.998 492.334 431.665 497.24 425.562C507.544 412.741 520.988 400.908 526.549 380.393C518.814 349.502 508.982 330.725 502.473 313.984C499.211 305.595 496.791 297.718 495.991 289.171C495.228 281.03 495.943 272.347 498.718 262.085L482.46 234.433C457.159 215.676 438.437 200.336 423.739 183.686L420.618 185.384C418.192 186.703 415.155 185.806 413.836 183.38L384.494 129.422C383.175 126.997 384.073 123.96 386.498 122.641L387.909 121.874C387.668 121.228 387.428 120.578 387.19 119.923L387.133 119.768L387.112 119.604C381.525 76.77 398.805 50.4679 420.677 38.44ZM553.518 425.525C548.573 424.14 542.05 424.688 534.217 426.854C521.444 430.387 505.731 438.061 488.833 447.511C487.239 454.8 487.896 463.382 492.39 474.435C501.57 497.014 514.386 512.904 527.39 519.799C533.866 523.233 540.341 524.416 546.458 523.17C552.572 521.926 558.502 518.221 563.828 511.563C574.652 498.033 578.41 486.294 577.658 474.513C576.898 462.635 571.548 450.512 563.686 436.223L563.611 436.085L563.565 435.935C561.793 430.088 558.328 426.873 553.518 425.525ZM500.877 265.758C498.802 274.459 498.324 281.911 498.978 288.891C499.741 297.042 502.052 304.624 505.269 312.897C511.69 329.412 521.747 348.685 529.557 380.045L529.65 380.419L529.551 380.793C529.469 381.103 529.384 381.412 529.298 381.719C538.627 375.141 544.701 369.603 547.18 363.09C549.907 355.928 548.414 347.15 540.792 333.648V333.647L500.877 265.758Z" fill="white"/>
<path d="M526.221 377.939C523.821 378.3 522.106 390.937 522.106 392.381C522.106 393.825 524.849 394.908 526.906 394.908C528.964 394.908 534.106 384.077 534.106 382.272C534.106 380.466 528.621 377.578 526.221 377.939Z" fill="white"/>
<path fill-rule="evenodd" clip-rule="evenodd" d="M223.954 487.911L207.809 487.887L207.768 516.071L223.912 516.094L223.954 487.911Z" fill="white"/>
<path d="M515.646 112.292L515.616 112.312C508.838 107.864 499.547 109.544 494.431 116.314C489.103 123.364 490.32 133.263 497.15 138.424C503.187 142.987 511.588 142.319 517.137 137.233L517.139 137.236L517.185 137.188C517.687 136.725 518.165 136.226 518.615 135.69L524.784 129.226L523.03 116.619L515.646 112.292Z" fill="white"/>
<rect width="8.49111" height="4.09827" rx="2.04913" transform="matrix(-0.994484 0.104889 0.104889 0.994484 507.159 124.68)" fill="#07154B"/>
<ellipse cx="6" cy="0.80302" rx="6" ry="0.80302" transform="matrix(-0.136435 -0.990649 -0.990649 0.136435 523.687 129.019)" fill="#07154B"/>
<rect x="495.02" y="118.05" width="45.2875" height="10.271" rx="2" transform="rotate(-96.1542 495.02 118.05)" fill="white"/>
<g filter="url(#filter3_d_2850_536)">
<path d="M488.605 91.9082L488.617 91.9424C496.706 92.4804 503.105 99.4225 503.105 107.908C503.105 116.745 496.166 123.908 487.605 123.908C480.038 123.908 473.738 118.31 472.378 110.907L472.374 110.908L472.366 110.842C472.246 110.17 472.165 109.484 472.129 108.785L471.105 99.9082L480.105 90.9082L488.605 91.9082Z" fill="white"/>
<rect x="487.906" y="106.908" width="8.49111" height="4.09827" rx="2.04913" transform="rotate(43.1013 487.906 106.908)" fill="#07154B"/>
<ellipse cx="476.911" cy="96.7234" rx="6" ry="0.80302" transform="rotate(-45.0779 476.911 96.7234)" fill="#07154B"/>
<rect width="45.2875" height="10.271" rx="2" transform="matrix(0.684988 -0.728554 -0.728554 -0.684988 501.589 108.938)" fill="white"/>
</g>
</g>
<path d="M143.5 299.74V307H142.125V303.216L142.202 301.093H142.18L140.167 307H138.924L136.922 301.093H136.9L136.977 303.216V307H135.602V299.74H137.802L139.111 303.7L139.573 305.339H139.595L140.068 303.711L141.366 299.74H143.5ZM145.388 307V299.74H150.833V300.961H146.906V302.765H149.997V303.931H146.906V305.779H150.987V307H145.388ZM158.586 299.74V307H156.848L154.307 302.732L153.68 301.544H153.669L153.713 302.798V307H152.349V299.74H154.076L156.617 303.997L157.244 305.196H157.266L157.222 303.942V299.74H158.586ZM166.542 299.74V304.14C166.542 305.13 166.278 305.874 165.75 306.373C165.222 306.864 164.452 307.11 163.44 307.11C162.428 307.11 161.658 306.864 161.13 306.373C160.602 305.874 160.338 305.13 160.338 304.14V299.74H161.856V304.074C161.856 304.683 161.984 305.134 162.241 305.427C162.505 305.72 162.904 305.867 163.44 305.867C163.975 305.867 164.371 305.72 164.628 305.427C164.884 305.134 165.013 304.683 165.013 304.074V299.74H166.542Z" fill="#07154B"/>
<path d="M78.4585 367.078L84.3611 363.156C84.5072 363.057 84.6744 363.004 84.8453 363.001C85.0162 362.999 85.1846 363.047 85.3328 363.142C85.4936 363.246 85.6268 363.395 85.7187 363.575C85.8107 363.755 85.8583 363.958 85.8566 364.165V366.909L91.5045 363.154C91.6505 363.056 91.8178 363.002 91.9887 363C92.1596 362.998 92.3279 363.046 92.4762 363.141C92.637 363.245 92.7701 363.394 92.8621 363.574C92.9541 363.754 93.0017 363.957 93 364.164V371.836C93.0018 372.042 92.9543 372.246 92.8623 372.426C92.7703 372.606 92.637 372.755 92.4762 372.859C92.3279 372.954 92.1596 373.002 91.9887 373C91.8178 372.998 91.6505 372.944 91.5045 372.846L85.8566 369.089V371.834C85.8586 372.041 85.8112 372.245 85.7192 372.425C85.6272 372.605 85.4938 372.755 85.3328 372.859C85.1846 372.954 85.0162 373.002 84.8453 373C84.6744 372.998 84.5072 372.944 84.3611 372.846L78.4585 368.923C78.3181 368.825 78.2025 368.69 78.1223 368.529C78.0421 368.368 78 368.187 78 368.003C78 367.819 78.0421 367.638 78.1223 367.477C78.2025 367.316 78.3181 367.181 78.4585 367.083V367.078Z" fill="#07154B"/>
<rect x="75" y="363" width="2" height="10" rx="0.3" fill="#07154B"/>
<path d="M223.542 367.078L217.639 363.156C217.493 363.057 217.326 363.004 217.155 363.001C216.984 362.999 216.815 363.047 216.667 363.142C216.506 363.246 216.373 363.395 216.281 363.575C216.189 363.755 216.142 363.958 216.143 364.165V366.909L210.495 363.154C210.349 363.056 210.182 363.002 210.011 363C209.84 362.998 209.672 363.046 209.524 363.141C209.363 363.245 209.23 363.394 209.138 363.574C209.046 363.754 208.998 363.957 209 364.164V371.836C208.998 372.042 209.046 372.246 209.138 372.426C209.23 372.606 209.363 372.755 209.524 372.859C209.672 372.954 209.84 373.002 210.011 373C210.182 372.998 210.349 372.944 210.495 372.846L216.143 369.089V371.834C216.141 372.041 216.189 372.245 216.281 372.425C216.373 372.605 216.506 372.755 216.667 372.859C216.815 372.954 216.984 373.002 217.155 373C217.326 372.998 217.493 372.944 217.639 372.846L223.542 368.923C223.682 368.825 223.798 368.69 223.878 368.529C223.958 368.368 224 368.187 224 368.003C224 367.819 223.958 367.638 223.878 367.477C223.798 367.316 223.682 367.181 223.542 367.083V367.078Z" fill="#07154B"/>
<rect width="2" height="10" rx="0.3" transform="matrix(-1 0 0 1 227 363)" fill="#07154B"/>
<path d="M149.736 433.131L142.619 429.177C142.555 429.142 142.484 429.124 142.411 429.125C142.339 429.126 142.268 429.146 142.205 429.183C142.143 429.22 142.091 429.272 142.055 429.335C142.019 429.398 142 429.469 142 429.542V438.542C142 438.614 142.019 438.686 142.055 438.749C142.091 438.812 142.143 438.864 142.205 438.901C142.268 438.938 142.339 438.958 142.411 438.959C142.484 438.96 142.555 438.942 142.619 438.906L149.736 434.952C149.899 434.862 150.034 434.73 150.128 434.57C150.222 434.41 150.272 434.228 150.272 434.042C150.272 433.856 150.222 433.674 150.128 433.514C150.034 433.354 149.899 433.222 149.736 433.131Z" fill="#07154B"/>
<path d="M154.5 439.25V428.833M158.667 439.25V428.833" stroke="#07154B" stroke-width="2" stroke-linecap="round"/>
<path d="M33.002 63.5L269.845 83.4505L269.843 123.5L33.002 104.5L33.002 63.5Z" fill="#FFE100"/>
<path d="M97.4477 103.481C95.0058 103.281 92.9441 102.585 91.2623 101.394C89.5825 100.18 88.3429 98.5915 87.5437 96.6297C86.7463 94.6447 86.4486 92.4197 86.6504 89.9546C86.856 87.443 87.5127 85.2844 88.6204 83.4787C89.73 81.6498 91.2123 80.2729 93.0673 79.3478C94.9242 78.3995 97.0736 78.0253 99.5154 78.2252C102.539 78.4727 104.942 79.4304 106.725 81.0981C108.531 82.7677 109.555 84.9937 109.795 87.7759L104.074 87.3075C103.896 86.0521 103.381 85.0501 102.53 84.3014C101.68 83.5295 100.534 83.0845 99.0921 82.9665C97.72 82.8542 96.519 83.0836 95.4889 83.6548C94.4821 84.2279 93.6744 85.0865 93.0657 86.2306C92.4821 87.3534 92.1227 88.7404 91.9875 90.3915C91.8562 91.9962 91.9861 93.4115 92.3774 94.6375C92.7938 95.8422 93.4521 96.8091 94.3522 97.5383C95.2776 98.2462 96.4263 98.6563 97.7983 98.7686C99.2402 98.8867 100.428 98.6796 101.361 98.1473C102.319 97.5936 102.997 96.7478 103.395 95.6098L109.116 96.0781C108.439 98.6214 107.075 100.558 105.023 101.889C102.996 103.198 100.471 103.728 97.4477 103.481ZM122.01 105.492C120.173 105.341 118.528 104.844 117.076 103.999C115.648 103.133 114.553 101.931 113.789 100.394C113.048 98.8583 112.77 96.9743 112.952 94.7417L114.172 79.8466L119.404 80.275L118.182 95.205C118.093 96.298 118.191 97.2425 118.477 98.0385C118.786 98.8364 119.273 99.4616 119.939 99.9141C120.629 100.345 121.474 100.602 122.474 100.684C123.498 100.767 124.373 100.652 125.101 100.337C125.855 100 126.449 99.4638 126.884 98.7268C127.319 97.9898 127.581 97.0749 127.67 95.9818L128.893 81.0518L134.125 81.4802L132.906 96.3754C132.723 98.6079 132.106 100.419 131.056 101.808C130.029 103.198 128.718 104.203 127.122 104.822C125.552 105.419 123.848 105.642 122.01 105.492ZM136.569 106.262L138.568 81.8439L154.789 83.1719L154.443 87.3928L143.455 86.4932L142.969 92.4234L151.62 93.1316L151.286 97.213L142.635 96.5047L141.801 106.691L136.569 106.262ZM156.225 107.871L158.224 83.4532L174.444 84.7812L174.099 89.0021L163.111 88.1025L162.625 94.0326L171.276 94.7409L170.942 98.8222L162.291 98.114L161.457 108.3L156.225 107.871ZM175.88 109.481L177.88 85.0624L194.24 86.4019L193.894 90.6228L182.767 89.7117L182.295 95.4675L192.377 96.2928L192.045 100.339L181.964 99.5139L181.459 105.688L192.586 106.599L192.241 110.82L175.88 109.481ZM196.388 111.16L198.387 86.7414L206.864 87.4354C209.701 87.6677 211.996 88.3707 213.75 89.5443C215.528 90.6966 216.784 92.2276 217.518 94.1371C218.276 96.0253 218.554 98.2019 218.352 100.667C218.153 103.109 217.524 105.211 216.467 106.974C215.434 108.716 213.946 110.022 212.002 110.893C210.081 111.766 207.702 112.086 204.865 111.854L196.388 111.16ZM201.989 107.088L204.919 107.328C206.803 107.482 208.316 107.302 209.458 106.787C210.603 106.248 211.443 105.427 211.978 104.324C212.538 103.199 212.884 101.835 213.015 100.23C213.149 98.6022 213.029 97.1994 212.658 96.0218C212.311 94.8229 211.616 93.8763 210.572 93.1822C209.531 92.4648 208.068 92.029 206.184 91.8748L203.254 91.6349L201.989 107.088Z" fill="#07154B"/>
<path d="M72.4053 67.7671L46.5643 104.942L35.6005 104.018L61.6158 66.8044L72.4053 67.7671Z" fill="#07154B"/>
<path d="M93.127 69.5493L67.286 106.724L56.3222 105.8L82.3375 68.5867L93.127 69.5493Z" fill="#07154B"/>
<path d="M248.607 82.2788L222.766 119.453L211.803 118.529L237.818 81.3162L248.607 82.2788Z" fill="#07154B"/>
<path d="M269.329 84.061L243.488 121.236L232.524 120.312L258.54 83.0984L269.329 84.061Z" fill="#07154B"/>
<path d="M33.4998 182.5L269.501 139.5L269.5 180L33.5006 223.5L33.4998 182.5Z" fill="#FFE100"/>
<path d="M67.8682 176.887L52.5181 219.479L41.6882 221.422L57.1967 178.747L67.8682 176.887Z" fill="#07154B"/>
<path d="M88.3457 173.251L72.9957 215.843L62.1658 217.785L77.6743 175.111L88.3457 173.251Z" fill="#07154B"/>
<path d="M241.83 145.345L226.48 187.937L215.65 189.88L231.159 147.205L241.83 145.345Z" fill="#07154B"/>
<path d="M262.308 141.709L246.958 184.301L236.128 186.243L251.636 143.569L262.308 141.709Z" fill="#07154B"/>
<path d="M113.097 202.267L108.537 178.195L113.695 177.218L127.249 191.036L124.252 175.218L129.41 174.241L133.971 198.312L128.813 199.29L115.272 185.54L118.255 201.29L113.097 202.267ZM149.875 195.727C147.514 196.174 145.339 196.04 143.351 195.324C141.363 194.608 139.677 193.42 138.294 191.758C136.929 190.069 136.014 187.998 135.549 185.545C135.085 183.092 135.181 180.842 135.838 178.794C136.513 176.718 137.645 174.984 139.233 173.591C140.822 172.197 142.797 171.277 145.158 170.83C147.519 170.382 149.705 170.514 151.716 171.226C153.727 171.937 155.404 173.139 156.746 174.833C158.106 176.498 159.019 178.558 159.484 181.011C159.948 183.464 159.854 185.726 159.202 187.797C158.568 189.841 157.445 191.561 155.834 192.959C154.223 194.357 152.236 195.279 149.875 195.727ZM148.995 191.084C150.394 190.819 151.525 190.273 152.389 189.444C153.276 188.611 153.887 187.569 154.22 186.319C154.548 185.045 154.561 183.606 154.257 182.001C153.953 180.396 153.417 179.073 152.649 178.031C151.878 176.966 150.929 176.22 149.803 175.792C148.695 175.337 147.442 175.241 146.044 175.506C144.691 175.763 143.572 176.307 142.684 177.14C141.793 177.95 141.183 178.992 140.854 180.266C140.521 181.516 140.507 182.944 140.811 184.549C141.115 186.153 141.653 187.488 142.424 188.553C143.192 189.595 144.141 190.342 145.271 190.792C146.401 191.243 147.643 191.341 148.995 191.084ZM170.519 191.388L166.747 171.477L159.766 172.8L158.978 168.639L178.098 165.016L178.886 169.177L171.905 170.5L175.677 190.411L170.519 191.388ZM187.459 179.843L186.266 174.298L188.088 173.953C188.937 173.792 189.707 173.599 190.401 173.372C191.09 173.123 191.674 172.822 192.153 172.47C192.633 172.118 192.978 171.685 193.189 171.17C193.396 170.632 193.43 169.996 193.291 169.262C193.169 168.62 192.941 168.106 192.607 167.718C192.268 167.307 191.833 167.021 191.304 166.86C190.798 166.695 190.224 166.673 189.582 166.795C188.917 166.921 188.368 167.155 187.934 167.499C187.501 167.842 187.201 168.267 187.036 168.773C186.87 169.28 186.846 169.842 186.964 170.461L182.081 171.386C181.82 170.011 181.895 168.714 182.305 167.496C182.739 166.274 183.502 165.227 184.596 164.355C185.712 163.479 187.141 162.876 188.884 162.545C190.443 162.25 191.884 162.274 193.208 162.617C194.527 162.937 195.635 163.582 196.531 164.552C197.423 165.499 198.016 166.752 198.312 168.311C198.598 169.824 198.496 171.162 198.003 172.324C197.534 173.481 196.753 174.437 195.661 175.19C194.587 175.916 193.285 176.436 191.753 176.75L192.032 178.976L187.459 179.843ZM191.354 187.619C190.414 187.797 189.606 187.665 188.928 187.223C188.247 186.759 187.83 186.125 187.678 185.323C187.521 184.498 187.678 183.756 188.146 183.097C188.611 182.415 189.313 181.985 190.253 181.807C191.17 181.633 191.97 181.779 192.651 182.243C193.329 182.685 193.746 183.318 193.902 184.144C194.054 184.946 193.898 185.688 193.433 186.37C192.964 187.029 192.271 187.445 191.354 187.619Z" fill="#07154B"/>
<path fill-rule="evenodd" clip-rule="evenodd" d="M104.811 115.073C121.972 105.817 132.506 115.006 132.583 115.073C142.55 124.363 135.1 148.361 119.714 161.424C108.199 170.52 91.9428 174 83.6199 161.424C76.7045 146.102 87.5879 124.363 104.811 115.073ZM192.047 104.684L188.351 111.214C202.468 110.717 213.4 118.871 208.817 124.958C204.057 131.28 179.703 135.079 179.597 135.096C191.924 148.042 207.302 157.985 226.483 168.489H203.376C188.746 158.886 183.574 152.493 177.361 140.09L179.15 135.096C188.63 131.456 189.885 129.804 192.345 127.791C196.593 123.542 194.505 117.132 186.604 119.069C185.448 119.469 184.324 119.868 183.23 120.265L161.016 159.526C161.01 159.727 160.981 159.921 160.926 160.107C160.034 163.112 157.752 164.345 154.504 165.414C149.983 166.363 147.553 166.713 143.469 166.908C142.051 163.164 141.364 161.082 140.239 157.386C138.85 151.545 139.617 149.6 143.281 148.111C147.317 147.754 149.908 150.173 151.051 154.374C153.841 153.058 156.777 153.98 158.734 155.577L178.793 121.932C163.799 127.771 154.26 133.78 139.346 144.339C139.21 137.405 139.836 133.461 142.552 126.3C145.456 123.236 169.891 113.307 185.023 111.481L190.854 101.702L192.047 104.684ZM126.1 119.912C124.092 110.55 115.864 113.051 109.457 118.944C103.05 124.839 90.5892 149.092 91.4588 159.586C92.3285 170.08 101.812 169.165 109.457 161.812C117.102 154.457 127.002 131.03 126.1 119.912Z" fill="#07154B"/>
<path d="M102.812 113.074C120.036 103.785 130.584 113.074 130.584 113.074C140.55 122.364 133.1 146.362 117.714 159.425C106.2 168.521 89.943 172 81.6201 159.425C74.7044 144.103 85.5889 122.364 102.812 113.074ZM190.047 102.684L186.352 109.214C200.469 108.717 211.4 116.871 206.817 122.958C202.063 129.273 177.759 133.071 177.599 133.096C189.925 146.042 205.303 155.985 224.483 166.489H201.376C186.747 156.886 181.575 150.493 175.362 138.09L177.15 133.096C186.631 129.456 187.885 127.804 190.345 125.791C194.593 121.542 192.505 115.132 184.604 117.069C183.448 117.469 182.324 117.868 181.23 118.265L159.017 157.526C159.01 157.727 158.981 157.921 158.926 158.107C158.034 161.112 155.753 162.345 152.504 163.414C147.983 164.363 145.553 164.713 141.469 164.908C140.052 161.164 139.364 159.082 138.239 155.386C136.85 149.545 137.617 147.6 141.281 146.111C145.317 145.754 147.91 148.173 149.052 152.374C151.842 151.058 154.777 151.98 156.734 153.577L176.793 119.932C161.8 125.771 152.261 131.78 137.347 142.339C137.211 135.405 137.836 131.461 140.552 124.3C143.456 121.237 167.891 111.307 183.023 109.481L188.854 99.7021L190.047 102.684ZM124.102 117.912C122.093 108.551 113.865 111.051 107.458 116.944C101.051 122.838 88.5894 147.091 89.459 157.586C90.3288 168.08 99.8131 167.166 107.458 159.812C115.103 152.457 125.003 129.03 124.102 117.912Z" fill="#F4001F"/>
<path d="M102.812 113.074L102.575 112.634L102.575 112.634L102.812 113.074ZM130.584 113.074L130.925 112.708L130.914 112.699L130.584 113.074ZM117.714 159.425L118.024 159.817L118.031 159.812L118.037 159.806L117.714 159.425ZM81.6201 159.425L81.1644 159.631L81.181 159.667L81.2032 159.701L81.6201 159.425ZM190.047 102.684L190.482 102.93L190.6 102.721L190.511 102.498L190.047 102.684ZM186.352 109.214L185.916 108.968L185.477 109.745L186.369 109.714L186.352 109.214ZM206.817 122.958L207.217 123.259L207.217 123.259L206.817 122.958ZM177.599 133.096L177.522 132.602L176.578 132.749L177.237 133.44L177.599 133.096ZM224.483 166.489V166.989L224.724 166.051L224.483 166.489ZM201.376 166.489L201.102 166.907L201.227 166.989H201.376V166.489ZM175.362 138.09L174.892 137.921L174.819 138.123L174.915 138.314L175.362 138.09ZM177.15 133.096L176.971 132.629L176.757 132.711L176.68 132.927L177.15 133.096ZM190.345 125.791L190.661 126.178L190.681 126.162L190.698 126.145L190.345 125.791ZM184.604 117.069L184.485 116.584L184.463 116.589L184.441 116.597L184.604 117.069ZM181.23 118.265L181.06 117.795L180.886 117.858L180.795 118.018L181.23 118.265ZM159.017 157.526L158.581 157.28L158.521 157.387L158.517 157.509L159.017 157.526ZM158.926 158.107L159.405 158.25L159.405 158.25L158.926 158.107ZM152.504 163.414L152.607 163.903L152.634 163.898L152.66 163.889L152.504 163.414ZM141.469 164.908L141.001 165.085L141.13 165.425L141.493 165.408L141.469 164.908ZM138.239 155.386L137.753 155.501L137.756 155.516L137.761 155.531L138.239 155.386ZM141.281 146.111L141.237 145.613L141.162 145.62L141.093 145.648L141.281 146.111ZM149.052 152.374L148.569 152.505L148.726 153.081L149.265 152.826L149.052 152.374ZM156.734 153.577L156.418 153.965L156.867 154.331L157.164 153.833L156.734 153.577ZM176.793 119.932L177.222 120.188L177.968 118.938L176.612 119.466L176.793 119.932ZM137.347 142.339L136.847 142.349L136.865 143.292L137.636 142.747L137.347 142.339ZM140.552 124.3L140.189 123.956L140.12 124.029L140.084 124.122L140.552 124.3ZM183.023 109.481L183.083 109.978L183.327 109.948L183.453 109.738L183.023 109.481ZM188.854 99.7021L189.319 99.5165L188.943 98.5772L188.425 99.4461L188.854 99.7021ZM124.102 117.912L124.6 117.872L124.597 117.839L124.59 117.807L124.102 117.912ZM107.458 116.944L107.119 116.576L107.119 116.576L107.458 116.944ZM89.459 157.586L88.9607 157.627L88.9607 157.627L89.459 157.586ZM107.458 159.812L107.805 160.172L107.805 160.172L107.458 159.812ZM102.812 113.074L103.05 113.514C111.552 108.929 118.368 108.944 123.039 110.077C125.38 110.644 127.193 111.495 128.417 112.201C129.029 112.554 129.493 112.87 129.802 113.097C129.956 113.21 130.072 113.3 130.147 113.361C130.185 113.392 130.213 113.415 130.231 113.43C130.24 113.437 130.246 113.443 130.25 113.446C130.252 113.448 130.253 113.449 130.254 113.449C130.254 113.45 130.254 113.45 130.254 113.45C130.254 113.45 130.254 113.45 130.254 113.45C130.254 113.45 130.254 113.449 130.584 113.074C130.914 112.699 130.914 112.699 130.914 112.698C130.914 112.698 130.913 112.698 130.913 112.698C130.912 112.697 130.912 112.696 130.911 112.696C130.909 112.694 130.906 112.692 130.903 112.689C130.896 112.683 130.887 112.676 130.876 112.666C130.853 112.646 130.819 112.618 130.775 112.583C130.688 112.513 130.56 112.413 130.393 112.29C130.057 112.044 129.563 111.708 128.917 111.335C127.624 110.589 125.723 109.698 123.275 109.105C118.366 107.915 111.296 107.93 102.575 112.634L102.812 113.074ZM130.584 113.074L130.243 113.44C135.015 117.888 135.699 125.96 133.176 134.696C130.662 143.399 125.006 152.578 117.39 159.044L117.714 159.425L118.037 159.806C125.808 153.209 131.57 143.858 134.136 134.974C136.693 126.123 136.12 117.551 130.925 112.708L130.584 113.074ZM117.714 159.425L117.404 159.032C111.704 163.536 104.855 166.626 98.4371 167.053C92.0447 167.478 86.0849 165.265 82.0371 159.149L81.6201 159.425L81.2032 159.701C85.4782 166.16 91.8083 168.496 98.5034 168.051C105.174 167.607 112.21 164.41 118.024 159.817L117.714 159.425ZM81.6201 159.425L82.0758 159.219C78.6964 151.732 79.6475 142.626 83.6164 134.201C87.5831 125.78 94.5375 118.106 103.05 113.514L102.812 113.074L102.575 112.634C93.8639 117.333 86.7642 125.172 82.7117 133.775C78.6615 142.372 77.6282 151.796 81.1644 159.631L81.6201 159.425ZM190.047 102.684L189.612 102.437L185.916 108.968L186.352 109.214L186.787 109.46L190.482 102.93L190.047 102.684ZM186.352 109.214L186.369 109.714C193.337 109.468 199.489 111.361 203.311 114.027C205.224 115.362 206.516 116.863 207.07 118.347C207.613 119.804 207.458 121.275 206.418 122.657L206.817 122.958L207.217 123.259C208.468 121.597 208.666 119.766 208.007 117.998C207.358 116.257 205.894 114.61 203.883 113.207C199.856 110.398 193.483 108.462 186.334 108.714L186.352 109.214ZM206.817 122.958L206.418 122.657C205.316 124.121 203.016 125.501 200.074 126.742C197.156 127.973 193.693 129.034 190.359 129.902C183.693 131.637 177.596 132.59 177.522 132.602L177.599 133.096L177.676 133.59C177.762 133.576 183.897 132.618 190.611 130.869C193.967 129.996 197.482 128.921 200.463 127.663C203.42 126.416 205.942 124.952 207.217 123.259L206.817 122.958ZM177.599 133.096L177.237 133.44C189.617 146.444 205.049 156.417 224.243 166.928L224.483 166.489L224.724 166.051C205.556 155.554 190.233 145.64 177.961 132.751L177.599 133.096ZM224.483 166.489V165.989H201.376V166.489V166.989H224.483V166.489ZM201.376 166.489L201.65 166.071C194.354 161.282 189.443 157.31 185.585 153.006C181.729 148.703 178.906 144.048 175.809 137.866L175.362 138.09L174.915 138.314C178.031 144.534 180.901 149.277 184.841 153.673C188.779 158.067 193.768 162.093 201.102 166.907L201.376 166.489ZM175.362 138.09L175.833 138.258L177.621 133.264L177.15 133.096L176.68 132.927L174.892 137.921L175.362 138.09ZM177.15 133.096L177.33 133.562C182.083 131.737 184.8 130.401 186.644 129.258C188.487 128.116 189.46 127.161 190.661 126.178L190.345 125.791L190.028 125.404C188.77 126.433 187.886 127.311 186.117 128.408C184.349 129.504 181.698 130.814 176.971 132.629L177.15 133.096ZM190.345 125.791L190.698 126.145C192.927 123.915 193.582 121.021 192.475 118.881C191.347 116.702 188.556 115.586 184.485 116.584L184.604 117.069L184.724 117.555C188.554 116.616 190.757 117.736 191.586 119.34C192.436 120.983 192.01 123.418 189.991 125.437L190.345 125.791ZM184.604 117.069L184.441 116.597C183.282 116.998 182.156 117.397 181.06 117.795L181.23 118.265L181.401 118.735C182.492 118.339 183.614 117.941 184.768 117.542L184.604 117.069ZM181.23 118.265L180.795 118.018L158.581 157.28L159.017 157.526L159.452 157.773L181.666 118.511L181.23 118.265ZM159.017 157.526L158.517 157.509C158.511 157.673 158.488 157.825 158.446 157.965L158.926 158.107L159.405 158.25C159.474 158.018 159.508 157.78 159.516 157.543L159.017 157.526ZM158.926 158.107L158.446 157.965C157.63 160.718 155.568 161.879 152.348 162.939L152.504 163.414L152.66 163.889C155.937 162.811 158.439 161.507 159.405 158.25L158.926 158.107ZM152.504 163.414L152.401 162.925C147.9 163.869 145.497 164.215 141.445 164.409L141.469 164.908L141.493 165.408C145.609 165.211 148.066 164.856 152.607 163.903L152.504 163.414ZM141.469 164.908L141.936 164.731C140.524 160.999 139.84 158.927 138.718 155.24L138.239 155.386L137.761 155.531C138.888 159.236 139.579 161.329 141.001 165.085L141.469 164.908ZM138.239 155.386L138.726 155.27C138.032 152.352 137.913 150.532 138.339 149.277C138.746 148.078 139.69 147.298 141.469 146.575L141.281 146.111L141.093 145.648C139.208 146.414 137.937 147.35 137.392 148.956C136.865 150.506 137.058 152.579 137.753 155.501L138.239 155.386ZM141.281 146.111L141.325 146.609C143.226 146.441 144.748 146.926 145.931 147.917C147.124 148.917 148.016 150.469 148.569 152.505L149.052 152.374L149.534 152.243C148.946 150.079 147.97 148.321 146.573 147.15C145.165 145.971 143.372 145.424 141.237 145.613L141.281 146.111ZM149.052 152.374L149.265 152.826C151.83 151.617 154.561 152.45 156.418 153.965L156.734 153.577L157.05 153.19C154.993 151.511 151.853 150.5 148.838 151.922L149.052 152.374ZM156.734 153.577L157.164 153.833L177.222 120.188L176.793 119.932L176.364 119.676L156.305 153.321L156.734 153.577ZM176.793 119.932L176.612 119.466C161.563 125.327 151.985 131.363 137.058 141.931L137.347 142.339L137.636 142.747C152.536 132.198 162.037 126.215 176.974 120.398L176.793 119.932ZM137.347 142.339L137.847 142.329C137.712 135.46 138.326 131.579 141.019 124.477L140.552 124.3L140.084 124.122C137.346 131.343 136.709 135.35 136.847 142.349L137.347 142.339ZM140.552 124.3L140.915 124.644C141.224 124.317 141.868 123.857 142.841 123.291C143.801 122.732 145.039 122.092 146.499 121.401C149.419 120.018 153.204 118.438 157.375 116.896C165.726 113.807 175.575 110.884 183.083 109.978L183.023 109.481L182.964 108.985C175.34 109.905 165.405 112.859 157.029 115.958C152.836 117.508 149.023 119.099 146.071 120.497C144.596 121.196 143.33 121.849 142.338 122.426C141.36 122.996 140.605 123.517 140.189 123.956L140.552 124.3ZM183.023 109.481L183.453 109.738L189.284 99.9582L188.854 99.7021L188.425 99.4461L182.594 109.225L183.023 109.481ZM188.854 99.7021L188.39 99.8878L189.583 102.869L190.047 102.684L190.511 102.498L189.319 99.5165L188.854 99.7021ZM124.102 117.912L124.59 117.807C124.074 115.398 123.143 113.686 121.88 112.603C120.61 111.514 119.058 111.106 117.398 111.208C114.119 111.411 110.354 113.601 107.119 116.576L107.458 116.944L107.797 117.312C110.969 114.394 114.521 112.388 117.46 112.207C118.91 112.117 120.191 112.472 121.229 113.362C122.274 114.259 123.125 115.745 123.613 118.017L124.102 117.912ZM107.458 116.944L107.119 116.576C105.468 118.096 103.459 120.763 101.397 124.039C99.3298 127.324 97.1889 131.255 95.2773 135.327C93.3659 139.399 91.6794 143.623 90.5244 147.494C89.3729 151.354 88.7355 154.909 88.9607 157.627L89.459 157.586L89.9573 157.545C89.7477 155.015 90.3419 151.604 91.4827 147.78C92.6199 143.968 94.2862 139.792 96.1825 135.752C98.0785 131.713 100.2 127.819 102.244 124.572C104.293 121.314 106.245 118.74 107.797 117.312L107.458 116.944ZM89.459 157.586L88.9607 157.627C89.184 160.321 89.9652 162.347 91.1891 163.727C92.4205 165.115 94.0593 165.804 95.894 165.891C99.5257 166.064 103.936 163.894 107.805 160.172L107.458 159.812L107.111 159.451C103.335 163.083 99.1807 165.047 95.9416 164.892C94.3409 164.816 92.9677 164.225 91.9373 163.063C90.8993 161.893 90.1689 160.098 89.9573 157.545L89.459 157.586ZM107.458 159.812L107.805 160.172C111.705 156.42 116.123 148.644 119.448 140.461C122.771 132.283 125.061 123.554 124.6 117.872L124.102 117.912L123.603 117.953C124.044 123.388 121.834 131.932 118.521 140.085C115.21 148.235 110.856 155.849 107.111 159.451L107.458 159.812Z" fill="#F4001F"/>
<defs>
<filter id="filter0_d_2850_536" x="0" y="0" width="295.211" height="495.447" filterUnits="userSpaceOnUse" color-interpolation-filters="sRGB">
<feFlood flood-opacity="0" result="BackgroundImageFix"/>
<feColorMatrix in="SourceAlpha" type="matrix" values="0 0 0 0 0 0 0 0 0 0 0 0 0 0 0 0 0 0 127 0" result="hardAlpha"/>
<feOffset dx="-8" dy="7"/>
<feComposite in2="hardAlpha" operator="out"/>
<feColorMatrix type="matrix" values="0 0 0 0 0.0275411 0 0 0 0 0.0808933 0 0 0 0 0.294302 0 0 0 1 0"/>
<feBlend mode="normal" in2="BackgroundImageFix" result="effect1_dropShadow_2850_536"/>
<feBlend mode="normal" in="SourceGraphic" in2="effect1_dropShadow_2850_536" result="shape"/>
</filter>
<filter id="filter1_d_2850_536" x="51" y="270" width="195.064" height="195.064" filterUnits="userSpaceOnUse" color-interpolation-filters="sRGB">
<feFlood flood-opacity="0" result="BackgroundImageFix"/>
<feColorMatrix in="SourceAlpha" type="matrix" values="0 0 0 0 0 0 0 0 0 0 0 0 0 0 0 0 0 0 127 0" result="hardAlpha"/>
<feOffset dx="-2" dy="2"/>
<feGaussianBlur stdDeviation="2"/>
<feComposite in2="hardAlpha" operator="out"/>
<feColorMatrix type="matrix" values="0 0 0 0 0.0275411 0 0 0 0 0.0808933 0 0 0 0 0.294302 0 0 0 0.25 0"/>
<feBlend mode="normal" in2="BackgroundImageFix" result="effect1_dropShadow_2850_536"/>
<feBlend mode="normal" in="SourceGraphic" in2="effect1_dropShadow_2850_536" result="shape"/>
</filter>
<filter id="filter2_d_2850_536" x="203.768" y="30.6982" width="424.613" height="518.953" filterUnits="userSpaceOnUse" color-interpolation-filters="sRGB">
<feFlood flood-opacity="0" result="BackgroundImageFix"/>
<feColorMatrix in="SourceAlpha" type="matrix" values="0 0 0 0 0 0 0 0 0 0 0 0 0 0 0 0 0 0 127 0" result="hardAlpha"/>
<feOffset dy="4"/>
<feGaussianBlur stdDeviation="2"/>
<feComposite in2="hardAlpha" operator="out"/>
<feColorMatrix type="matrix" values="0 0 0 0 0.0275411 0 0 0 0 0.0808933 0 0 0 0 0.294302 0 0 0 0.4 0"/>
<feBlend mode="normal" in2="BackgroundImageFix" result="effect1_dropShadow_2850_536"/>
<feBlend mode="normal" in="SourceGraphic" in2="effect1_dropShadow_2850_536" result="shape"/>
</filter>
<filter id="filter3_d_2850_536" x="469.205" y="67.8354" width="70.4777" height="63.9729" filterUnits="userSpaceOnUse" color-interpolation-filters="sRGB">
<feFlood flood-opacity="0" result="BackgroundImageFix"/>
<feColorMatrix in="SourceAlpha" type="matrix" values="0 0 0 0 0 0 0 0 0 0 0 0 0 0 0 0 0 0 127 0" result="hardAlpha"/>
<feOffset dx="3" dy="3"/>
<feGaussianBlur stdDeviation="2.45"/>
<feComposite in2="hardAlpha" operator="out"/>
<feColorMatrix type="matrix" values="0 0 0 0 0.0275411 0 0 0 0 0.0808933 0 0 0 0 0.294302 0 0 0 0.2 0"/>
<feBlend mode="normal" in2="BackgroundImageFix" result="effect1_dropShadow_2850_536"/>
<feBlend mode="normal" in="SourceGraphic" in2="effect1_dropShadow_2850_536" result="shape"/>
</filter>
</defs>
</svg>
