<svg width="698" height="456" viewBox="0 0 698 456" fill="none" xmlns="http://www.w3.org/2000/svg">
<g filter="url(#filter0_d_2447_406)">
<mask id="path-1-outside-1_2447_406" maskUnits="userSpaceOnUse" x="-5.7793" y="3.57123" width="654.87" height="453.601" fill="black">
<rect fill="white" x="-5.7793" y="3.57123" width="654.87" height="453.601"/>
<path d="M134.025 184.948C165.891 179.434 174.068 143.896 169.648 118.352C167.766 107.477 160.394 88.9565 146.484 91.3634C120.687 95.8272 117.781 164.836 115.927 185.735C122.513 186.158 129.219 185.779 134.025 184.948ZM66.1753 316.768C78.3148 314.668 86.0287 306.56 90.6594 291.172C98.4762 265.595 91.3276 179.051 99.0329 142.293C102.511 124.76 111.169 105.549 132.268 92C96.3451 96.653 65.9566 122.75 70.114 146.776C71.6895 155.881 77.7104 160.569 84.5292 157.826C85.0834 165.545 80.7254 170.467 73.644 171.692C65.0452 173.18 58.5525 167.271 56.627 156.143C51.5943 127.058 83.9771 95.9279 130.006 87.9632C168.448 81.3113 188.116 95.6206 192.23 119.394C198.181 153.789 170.769 183.539 136.121 189.534C130.81 190.453 123.388 191.216 115.285 191.056C109.768 226.914 110.803 314.255 69.5796 321.389C49.347 324.89 35.8315 316.028 32.2527 296.851C28.2703 273.836 41.2276 253.881 57.4137 251.08C62.2627 250.502 66.1972 252.165 67.6561 256.081C69.4993 260.711 68.0108 265.657 64.0615 268.424C52.0822 275.967 36.4844 285.178 41.0215 302.366C44.0024 313.572 53.5299 318.956 66.1753 316.768Z"/>
<path d="M227.431 150.03C219.338 151.431 211.196 172.115 208.87 191.793L215.193 190.699C225.309 188.948 232.872 176.96 233.072 161.557C233.233 153.455 231.477 149.33 227.431 150.03ZM251.45 192.5C247.948 212.902 235.005 228.426 219.578 231.096C200.61 234.378 189.38 226.684 186.317 208.98C181.459 180.907 201.187 150.404 225.972 146.115C242.664 143.227 253.981 151.427 253.65 166.071C253.245 189.324 224.526 191.949 208.636 194.959C207.916 201.335 207.955 207.58 208.83 212.638C210.318 221.237 213.854 226.616 223.717 224.91C234.845 222.984 243.76 211.283 248.416 193.025L251.45 192.5Z"/>
<path d="M270.247 168.669C271.186 163.558 272.368 156.841 271.493 151.783C270.399 145.461 264.154 145.499 259.217 145.572L258.78 143.043L297.222 136.391L295.232 148.978C300.947 138.351 308.671 131.805 317.27 130.317C323.845 129.179 330.737 131.373 332.006 138.707C333.494 147.306 325.327 157.315 315.717 158.978C310.153 159.941 306.131 157.772 305.299 152.966C304.03 145.632 309.808 138.381 315.737 135.011C306.03 134.606 296.428 151.376 293.476 158.399C290.051 177.746 285.984 202.414 286.553 205.701C287.603 211.771 294.485 212.404 299.422 212.331L299.86 214.86L261.418 221.512L270.247 168.669Z"/>
<path d="M351.226 129.651L337.569 132.014L337.132 129.485L351.547 126.991L352.52 120.571C356.266 98.5634 368.834 83.8856 387.296 80.691C399.689 78.5466 409.129 83.4251 410.792 93.0356C412.28 101.634 406.414 108.38 398.574 109.737C391.745 110.918 386.702 107.363 385.695 101.546C384.514 94.7174 389.105 86.6295 398.288 83.9986C396.595 83.2496 393.726 83.2252 391.702 83.5753C382.851 85.1069 377.189 97.5477 373.837 121.831L373.55 123.183L393.783 119.682L394.22 122.211L373.229 125.844L361.383 209.424C357.909 234.51 345.298 248.935 327.429 252.548L326.164 252.766C313.772 254.911 304.332 250.032 302.713 240.675C301.225 232.076 307.047 225.077 314.887 223.721C321.715 222.539 326.759 226.095 327.809 232.164C328.991 238.993 324.443 247.334 314.249 250.14C316.997 250.966 320.075 250.694 321.087 250.519C330.95 248.812 334.414 235.71 338.48 211.042L351.226 129.651Z"/>
<path d="M431.683 114.687C423.59 116.088 415.448 136.772 413.122 156.45L419.445 155.356C429.561 153.605 437.124 141.617 437.324 126.214C437.485 118.111 435.729 113.987 431.683 114.687ZM455.702 157.157C452.2 177.559 439.257 193.083 423.83 195.753C404.862 199.035 393.632 191.34 390.569 173.637C385.711 145.564 405.439 115.061 430.224 110.772C446.916 107.884 458.233 116.084 457.902 130.728C457.497 153.981 428.778 156.606 412.888 159.616C412.168 165.992 412.207 172.237 413.082 177.295C414.57 185.894 418.106 191.273 427.969 189.566C439.097 187.641 448.012 175.939 452.668 157.682L455.702 157.157Z"/>
<path d="M509.236 100.747C493.303 103.504 482.942 133.949 487.668 161.263C489.857 173.908 493.976 178.145 501.563 176.832C515.473 174.425 527.516 156.712 530.206 134.627L532.988 134.146C530.161 161.464 516.183 180.033 495.95 183.534C479.764 186.334 468.7 178.09 465.68 160.64L465.505 159.628C461.285 132.227 480.341 102.36 504.873 98.1153C517.519 95.9272 527.849 101.433 529.555 111.296C531.131 120.401 524.9 129.554 516.049 131.086C509.979 132.136 505.529 128.999 504.566 123.435C503.428 116.859 507.018 110.508 520.855 103.164C517.086 100.951 513.029 100.09 509.236 100.747Z"/>
<path d="M581.723 66.8444L577.802 87.8402L596.517 84.6018L596.702 87.1746L577.481 90.5006L568.652 143.343C565.723 161.041 569.536 163.507 574.847 162.588C581.676 161.407 587.016 151.626 590.801 135.864L593.836 135.338C590.255 156.796 580.625 168.882 566.462 171.333C550.276 174.133 543.214 164.936 546.673 144.281L554.719 94.4392L543.339 96.4085L542.901 93.8794C565.818 87.83 576.193 80.0438 578.688 67.3695L581.723 66.8444Z"/>
<path d="M65.8981 327.138C67.6486 337.254 74.3067 342.614 81.3784 339.827C81.6796 347.59 77.3217 352.511 70.4932 353.693C61.8944 355.181 55.4455 349.524 53.6075 338.902C48.0934 307.036 89.6263 259.54 162.057 252.509C168.127 251.459 173.273 251.09 179.561 251.304L190.096 378.418C203.272 346.183 227.772 289.066 247.062 256.034C261.536 232.952 294.148 227.309 314.887 223.721L315.368 226.503C292.391 231.371 281.259 238.395 276.905 250.87C268.277 274.764 247.165 381.567 251.147 404.582C252.11 410.146 254.824 412.281 260.387 411.318L271.262 409.436L271.831 412.724L209.869 423.446L209.3 420.158L233.623 416.21C228.876 412.863 227.539 408.146 226.795 403.846C221.193 371.474 242.611 293.532 255.068 254.128C239.027 266.801 186.977 399.536 173.757 431.518L171.481 431.912L159.693 265.942C154.668 279.054 149.4 307.316 146.758 337.208C142.792 385.041 139.867 437.382 105.219 443.378C86.251 446.66 73.1197 438.513 69.1032 416.807C65.3931 396.871 78.5158 376.366 94.7018 373.566C99.507 372.734 103.232 374.694 104.988 378.819C106.831 383.449 105.134 388.692 101.393 391.162C89.205 399.002 73.8601 408.169 78.8251 426.325C81.6748 436.772 93.3471 441.004 103.969 439.166C132.295 434.264 136.168 391.917 138.474 369.117C140.659 347.119 142.843 325.122 145.787 302.992C148.054 287.492 153.103 271.511 159.338 256.366C88.1893 268.677 62.0908 305.135 65.8981 327.138Z"/>
<path d="M321.819 272.506C307.403 275.001 294.343 312.426 298.544 336.705C299.857 344.292 302.196 347.273 306.748 346.486C320.911 344.035 332.236 292.063 330.048 279.418C329.129 274.107 325.865 271.806 321.819 272.506ZM339.631 348.35C326.227 350.669 321.685 339.473 323.684 328.447C319.661 339.823 312.317 353.076 299.166 355.352C285.509 357.715 278.535 349.023 276.347 336.378C271.927 310.834 288.065 273.137 317.403 268.061C324.484 266.836 330.155 269.501 332.635 274.802L333.773 267.833L355.523 264.069L345.847 330.082C344.665 336.799 346.586 340.374 350.38 339.717C352.403 339.367 355.175 337.324 356.309 336.347L357.583 337.689C351.586 343.676 345.954 347.255 339.631 348.35Z"/>
<path d="M407.609 234.739L403.688 255.735L422.403 252.497L422.588 255.07L403.367 258.395L394.538 311.238C391.609 328.936 395.422 331.402 400.733 330.483C407.562 329.302 412.902 319.521 416.687 303.758L419.722 303.233C416.141 324.691 406.511 336.777 392.348 339.228C376.162 342.028 369.101 332.831 372.559 312.176L380.606 262.334L369.225 264.303L368.787 261.774C391.705 255.725 402.079 247.939 404.574 235.264L407.609 234.739Z"/>
<path d="M472.443 244.88C456.51 247.637 446.149 278.083 450.875 305.396C453.063 318.042 457.183 322.278 464.77 320.965C478.68 318.558 490.723 300.846 493.413 278.76L496.195 278.279C493.368 305.598 479.39 324.166 459.157 327.667C442.971 330.468 431.907 322.224 428.887 304.773L428.712 303.761C424.492 276.36 443.548 246.494 468.08 242.249C480.726 240.061 491.056 245.566 492.762 255.43C494.338 264.535 488.107 273.687 479.255 275.219C473.186 276.269 468.736 273.132 467.773 267.568C466.635 260.993 470.224 254.641 484.062 247.298C480.292 245.085 476.236 244.224 472.443 244.88Z"/>
<path d="M517.63 224.818C520.549 205.559 520.607 201.381 506.557 201.468L506.119 198.939L544.814 192.243L537.672 238.281C542.736 231.414 548.664 228.044 557.516 226.512C570.667 224.237 580.423 232.447 578.609 246.045L572.216 290.391C571.287 297.064 573.208 300.639 577.002 299.982C579.025 299.632 581.544 297.633 582.93 296.612L584.204 297.954C578.339 304.7 571.145 308.289 565.582 309.252C554.706 311.133 548.117 303.157 549.897 290.867L556.815 249.556C558.926 236.167 553.552 233.71 549.505 234.411C544.194 235.33 538.825 240.426 536.247 246.603L528.21 298.006C526.542 307.932 535.787 308.677 540.977 308.56L541.371 310.836L502.72 317.785L517.63 224.818Z"/>
</mask>
<path d="M134.025 184.948C165.891 179.434 174.068 143.896 169.648 118.352C167.766 107.477 160.394 88.9565 146.484 91.3634C120.687 95.8272 117.781 164.836 115.927 185.735C122.513 186.158 129.219 185.779 134.025 184.948ZM66.1753 316.768C78.3148 314.668 86.0287 306.56 90.6594 291.172C98.4762 265.595 91.3276 179.051 99.0329 142.293C102.511 124.76 111.169 105.549 132.268 92C96.3451 96.653 65.9566 122.75 70.114 146.776C71.6895 155.881 77.7104 160.569 84.5292 157.826C85.0834 165.545 80.7254 170.467 73.644 171.692C65.0452 173.18 58.5525 167.271 56.627 156.143C51.5943 127.058 83.9771 95.9279 130.006 87.9632C168.448 81.3113 188.116 95.6206 192.23 119.394C198.181 153.789 170.769 183.539 136.121 189.534C130.81 190.453 123.388 191.216 115.285 191.056C109.768 226.914 110.803 314.255 69.5796 321.389C49.347 324.89 35.8315 316.028 32.2527 296.851C28.2703 273.836 41.2276 253.881 57.4137 251.08C62.2627 250.502 66.1972 252.165 67.6561 256.081C69.4993 260.711 68.0108 265.657 64.0615 268.424C52.0822 275.967 36.4844 285.178 41.0215 302.366C44.0024 313.572 53.5299 318.956 66.1753 316.768Z" fill="white"/>
<path d="M227.431 150.03C219.338 151.431 211.196 172.115 208.87 191.793L215.193 190.699C225.309 188.948 232.872 176.96 233.072 161.557C233.233 153.455 231.477 149.33 227.431 150.03ZM251.45 192.5C247.948 212.902 235.005 228.426 219.578 231.096C200.61 234.378 189.38 226.684 186.317 208.98C181.459 180.907 201.187 150.404 225.972 146.115C242.664 143.227 253.981 151.427 253.65 166.071C253.245 189.324 224.526 191.949 208.636 194.959C207.916 201.335 207.955 207.58 208.83 212.638C210.318 221.237 213.854 226.616 223.717 224.91C234.845 222.984 243.76 211.283 248.416 193.025L251.45 192.5Z" fill="white"/>
<path d="M270.247 168.669C271.186 163.558 272.368 156.841 271.493 151.783C270.399 145.461 264.154 145.499 259.217 145.572L258.78 143.043L297.222 136.391L295.232 148.978C300.947 138.351 308.671 131.805 317.27 130.317C323.845 129.179 330.737 131.373 332.006 138.707C333.494 147.306 325.327 157.315 315.717 158.978C310.153 159.941 306.131 157.772 305.299 152.966C304.03 145.632 309.808 138.381 315.737 135.011C306.03 134.606 296.428 151.376 293.476 158.399C290.051 177.746 285.984 202.414 286.553 205.701C287.603 211.771 294.485 212.404 299.422 212.331L299.86 214.86L261.418 221.512L270.247 168.669Z" fill="white"/>
<path d="M351.226 129.651L337.569 132.014L337.132 129.485L351.547 126.991L352.52 120.571C356.266 98.5634 368.834 83.8856 387.296 80.691C399.689 78.5466 409.129 83.4251 410.792 93.0356C412.28 101.634 406.414 108.38 398.574 109.737C391.745 110.918 386.702 107.363 385.695 101.546C384.514 94.7174 389.105 86.6295 398.288 83.9986C396.595 83.2496 393.726 83.2252 391.702 83.5753C382.851 85.1069 377.189 97.5477 373.837 121.831L373.55 123.183L393.783 119.682L394.22 122.211L373.229 125.844L361.383 209.424C357.909 234.51 345.298 248.935 327.429 252.548L326.164 252.766C313.772 254.911 304.332 250.032 302.713 240.675C301.225 232.076 307.047 225.077 314.887 223.721C321.715 222.539 326.759 226.095 327.809 232.164C328.991 238.993 324.443 247.334 314.249 250.14C316.997 250.966 320.075 250.694 321.087 250.519C330.95 248.812 334.414 235.71 338.48 211.042L351.226 129.651Z" fill="white"/>
<path d="M431.683 114.687C423.59 116.088 415.448 136.772 413.122 156.45L419.445 155.356C429.561 153.605 437.124 141.617 437.324 126.214C437.485 118.111 435.729 113.987 431.683 114.687ZM455.702 157.157C452.2 177.559 439.257 193.083 423.83 195.753C404.862 199.035 393.632 191.34 390.569 173.637C385.711 145.564 405.439 115.061 430.224 110.772C446.916 107.884 458.233 116.084 457.902 130.728C457.497 153.981 428.778 156.606 412.888 159.616C412.168 165.992 412.207 172.237 413.082 177.295C414.57 185.894 418.106 191.273 427.969 189.566C439.097 187.641 448.012 175.939 452.668 157.682L455.702 157.157Z" fill="white"/>
<path d="M509.236 100.747C493.303 103.504 482.942 133.949 487.668 161.263C489.857 173.908 493.976 178.145 501.563 176.832C515.473 174.425 527.516 156.712 530.206 134.627L532.988 134.146C530.161 161.464 516.183 180.033 495.95 183.534C479.764 186.334 468.7 178.09 465.68 160.64L465.505 159.628C461.285 132.227 480.341 102.36 504.873 98.1153C517.519 95.9272 527.849 101.433 529.555 111.296C531.131 120.401 524.9 129.554 516.049 131.086C509.979 132.136 505.529 128.999 504.566 123.435C503.428 116.859 507.018 110.508 520.855 103.164C517.086 100.951 513.029 100.09 509.236 100.747Z" fill="white"/>
<path d="M581.723 66.8444L577.802 87.8402L596.517 84.6018L596.702 87.1746L577.481 90.5006L568.652 143.343C565.723 161.041 569.536 163.507 574.847 162.588C581.676 161.407 587.016 151.626 590.801 135.864L593.836 135.338C590.255 156.796 580.625 168.882 566.462 171.333C550.276 174.133 543.214 164.936 546.673 144.281L554.719 94.4392L543.339 96.4085L542.901 93.8794C565.818 87.83 576.193 80.0438 578.688 67.3695L581.723 66.8444Z" fill="white"/>
<path d="M65.8981 327.138C67.6486 337.254 74.3067 342.614 81.3784 339.827C81.6796 347.59 77.3217 352.511 70.4932 353.693C61.8944 355.181 55.4455 349.524 53.6075 338.902C48.0934 307.036 89.6263 259.54 162.057 252.509C168.127 251.459 173.273 251.09 179.561 251.304L190.096 378.418C203.272 346.183 227.772 289.066 247.062 256.034C261.536 232.952 294.148 227.309 314.887 223.721L315.368 226.503C292.391 231.371 281.259 238.395 276.905 250.87C268.277 274.764 247.165 381.567 251.147 404.582C252.11 410.146 254.824 412.281 260.387 411.318L271.262 409.436L271.831 412.724L209.869 423.446L209.3 420.158L233.623 416.21C228.876 412.863 227.539 408.146 226.795 403.846C221.193 371.474 242.611 293.532 255.068 254.128C239.027 266.801 186.977 399.536 173.757 431.518L171.481 431.912L159.693 265.942C154.668 279.054 149.4 307.316 146.758 337.208C142.792 385.041 139.867 437.382 105.219 443.378C86.251 446.66 73.1197 438.513 69.1032 416.807C65.3931 396.871 78.5158 376.366 94.7018 373.566C99.507 372.734 103.232 374.694 104.988 378.819C106.831 383.449 105.134 388.692 101.393 391.162C89.205 399.002 73.8601 408.169 78.8251 426.325C81.6748 436.772 93.3471 441.004 103.969 439.166C132.295 434.264 136.168 391.917 138.474 369.117C140.659 347.119 142.843 325.122 145.787 302.992C148.054 287.492 153.103 271.511 159.338 256.366C88.1893 268.677 62.0908 305.135 65.8981 327.138Z" fill="white"/>
<path d="M321.819 272.506C307.403 275.001 294.343 312.426 298.544 336.705C299.857 344.292 302.196 347.273 306.748 346.486C320.911 344.035 332.236 292.063 330.048 279.418C329.129 274.107 325.865 271.806 321.819 272.506ZM339.631 348.35C326.227 350.669 321.685 339.473 323.684 328.447C319.661 339.823 312.317 353.076 299.166 355.352C285.509 357.715 278.535 349.023 276.347 336.378C271.927 310.834 288.065 273.137 317.403 268.061C324.484 266.836 330.155 269.501 332.635 274.802L333.773 267.833L355.523 264.069L345.847 330.082C344.665 336.799 346.586 340.374 350.38 339.717C352.403 339.367 355.175 337.324 356.309 336.347L357.583 337.689C351.586 343.676 345.954 347.255 339.631 348.35Z" fill="white"/>
<path d="M407.609 234.739L403.688 255.735L422.403 252.497L422.588 255.07L403.367 258.395L394.538 311.238C391.609 328.936 395.422 331.402 400.733 330.483C407.562 329.302 412.902 319.521 416.687 303.758L419.722 303.233C416.141 324.691 406.511 336.777 392.348 339.228C376.162 342.028 369.101 332.831 372.559 312.176L380.606 262.334L369.225 264.303L368.787 261.774C391.705 255.725 402.079 247.939 404.574 235.264L407.609 234.739Z" fill="white"/>
<path d="M472.443 244.88C456.51 247.637 446.149 278.083 450.875 305.396C453.063 318.042 457.183 322.278 464.77 320.965C478.68 318.558 490.723 300.846 493.413 278.76L496.195 278.279C493.368 305.598 479.39 324.166 459.157 327.667C442.971 330.468 431.907 322.224 428.887 304.773L428.712 303.761C424.492 276.36 443.548 246.494 468.08 242.249C480.726 240.061 491.056 245.566 492.762 255.43C494.338 264.535 488.107 273.687 479.255 275.219C473.186 276.269 468.736 273.132 467.773 267.568C466.635 260.993 470.224 254.641 484.062 247.298C480.292 245.085 476.236 244.224 472.443 244.88Z" fill="white"/>
<path d="M517.63 224.818C520.549 205.559 520.607 201.381 506.557 201.468L506.119 198.939L544.814 192.243L537.672 238.281C542.736 231.414 548.664 228.044 557.516 226.512C570.667 224.237 580.423 232.447 578.609 246.045L572.216 290.391C571.287 297.064 573.208 300.639 577.002 299.982C579.025 299.632 581.544 297.633 582.93 296.612L584.204 297.954C578.339 304.7 571.145 308.289 565.582 309.252C554.706 311.133 548.117 303.157 549.897 290.867L556.815 249.556C558.926 236.167 553.552 233.71 549.505 234.411C544.194 235.33 538.825 240.426 536.247 246.603L528.21 298.006C526.542 307.932 535.787 308.677 540.977 308.56L541.371 310.836L502.72 317.785L517.63 224.818Z" fill="white"/>
<path d="M115.927 185.735L111.319 185.326L110.9 190.048L115.63 190.352L115.927 185.735ZM90.6594 291.172L86.2351 289.82L86.2322 289.829L86.2293 289.839L90.6594 291.172ZM99.0329 142.293L103.561 143.242L103.566 143.218L103.571 143.193L99.0329 142.293ZM132.268 92L134.767 95.8928L131.673 87.412L132.268 92ZM84.5292 157.826L89.1437 157.495L88.6893 151.166L82.8027 153.534L84.5292 157.826ZM115.285 191.056L115.377 186.43L111.328 186.35L110.713 190.352L115.285 191.056ZM32.2527 296.851L27.6941 297.639L27.6992 297.669L27.7048 297.699L32.2527 296.851ZM57.4137 251.08L56.8655 246.487L56.7447 246.501L56.6249 246.522L57.4137 251.08ZM67.6561 256.081L63.3209 257.696L63.3388 257.744L63.3578 257.792L67.6561 256.081ZM64.0615 268.424L66.5266 272.339L66.623 272.278L66.7163 272.213L64.0615 268.424ZM41.0215 302.366L36.5483 303.547L36.5506 303.555L41.0215 302.366ZM208.87 191.793L204.276 191.25L203.548 197.409L209.659 196.352L208.87 191.793ZM233.072 161.557L228.447 161.465L228.446 161.481L228.446 161.497L233.072 161.557ZM251.45 192.5L256.01 193.283L257.119 186.824L250.662 187.941L251.45 192.5ZM253.65 166.071L249.025 165.967L249.024 165.979L249.024 165.991L253.65 166.071ZM208.636 194.959L207.775 190.414L204.422 191.049L204.039 194.44L208.636 194.959ZM248.416 193.025L247.627 188.466L244.673 188.977L243.933 191.882L248.416 193.025ZM270.247 168.669L265.697 167.834L265.69 167.87L265.684 167.907L270.247 168.669ZM259.217 145.572L254.659 146.361L255.333 150.256L259.286 150.198L259.217 145.572ZM258.78 143.043L257.991 138.484L253.432 139.273L254.221 143.832L258.78 143.043ZM297.222 136.391L301.791 137.113L302.8 130.731L296.433 131.832L297.222 136.391ZM295.232 148.978L290.662 148.256L299.306 151.169L295.232 148.978ZM315.737 135.011L318.024 139.033L332.05 131.059L315.93 130.388L315.737 135.011ZM293.476 158.399L289.211 156.606L289.011 157.083L288.92 157.592L293.476 158.399ZM299.422 212.331L303.981 211.542L303.306 207.647L299.354 207.705L299.422 212.331ZM299.86 214.86L300.648 219.419L305.207 218.63L304.418 214.071L299.86 214.86ZM261.418 221.512L256.855 220.749L255.78 227.183L262.206 226.07L261.418 221.512ZM351.226 129.651L355.797 130.367L356.795 123.992L350.437 125.092L351.226 129.651ZM337.569 132.014L333.011 132.803L333.799 137.362L338.358 136.573L337.569 132.014ZM337.132 129.485L336.343 124.927L331.784 125.715L332.573 130.274L337.132 129.485ZM351.547 126.991L352.336 131.549L355.622 130.981L356.121 127.684L351.547 126.991ZM352.52 120.571L347.959 119.795L347.952 119.836L347.946 119.878L352.52 120.571ZM398.288 83.9986L399.562 88.4461L411.828 84.9319L400.16 79.7681L398.288 83.9986ZM373.837 121.831L378.363 122.792L378.397 122.629L378.42 122.464L373.837 121.831ZM373.55 123.183L369.025 122.223L367.606 128.907L374.339 127.742L373.55 123.183ZM393.783 119.682L398.341 118.894L397.553 114.335L392.994 115.124L393.783 119.682ZM394.22 122.211L395.009 126.77L399.568 125.981L398.779 121.423L394.22 122.211ZM373.229 125.844L372.44 121.285L369.121 121.859L368.648 125.195L373.229 125.844ZM361.383 209.424L356.802 208.774L356.801 208.782L356.8 208.789L361.383 209.424ZM327.429 252.548L328.218 257.106L328.282 257.095L328.346 257.082L327.429 252.548ZM314.249 250.14L313.021 245.679L297.535 249.941L312.916 254.57L314.249 250.14ZM338.48 211.042L343.045 211.795L343.048 211.776L343.051 211.758L338.48 211.042ZM413.122 156.45L408.528 155.907L407.8 162.066L413.911 161.008L413.122 156.45ZM437.324 126.214L432.699 126.122L432.698 126.138L432.698 126.154L437.324 126.214ZM455.702 157.157L460.262 157.939L461.371 151.481L454.914 152.598L455.702 157.157ZM457.902 130.728L453.277 130.624L453.276 130.636L453.276 130.648L457.902 130.728ZM412.888 159.616L412.027 155.07L408.674 155.706L408.291 159.097L412.888 159.616ZM452.668 157.682L451.879 153.123L448.925 153.634L448.185 156.539L452.668 157.682ZM530.206 134.627L529.417 130.068L526.03 130.655L525.614 134.068L530.206 134.627ZM532.988 134.146L537.59 134.622L538.219 128.545L532.199 129.587L532.988 134.146ZM465.505 159.628L460.933 160.332L460.939 160.375L460.947 160.417L465.505 159.628ZM520.855 103.164L523.024 107.251L530.339 103.368L523.197 99.1747L520.855 103.164ZM581.723 66.8444L586.271 67.6936L587.493 61.1509L580.934 62.2857L581.723 66.8444ZM577.802 87.8402L573.254 86.9909L572.033 93.5337L578.591 92.3989L577.802 87.8402ZM596.517 84.6018L601.132 84.2705L600.766 79.1715L595.728 80.0431L596.517 84.6018ZM596.702 87.1746L597.491 91.7333L601.616 91.0194L601.316 86.8434L596.702 87.1746ZM577.481 90.5006L576.692 85.9419L573.459 86.5014L572.918 89.7381L577.481 90.5006ZM568.652 143.343L564.088 142.58L564.087 142.588L568.652 143.343ZM590.801 135.864L590.012 131.305L587.013 131.824L586.302 134.783L590.801 135.864ZM593.836 135.338L598.399 136.1L599.472 129.668L593.047 130.78L593.836 135.338ZM546.673 144.281L551.236 145.045L551.238 145.031L551.24 145.018L546.673 144.281ZM554.719 94.4392L559.287 95.1765L560.32 88.7749L553.931 89.8805L554.719 94.4392ZM543.339 96.4085L538.78 97.1973L539.569 101.756L544.127 100.967L543.339 96.4085ZM542.901 93.8794L541.72 89.4062L537.619 90.4888L538.342 94.6682L542.901 93.8794ZM578.688 67.3695L577.899 62.8109L574.764 63.3535L574.149 66.4758L578.688 67.3695ZM81.3784 339.827L86.0013 339.648L85.7485 333.133L79.6823 335.523L81.3784 339.827ZM162.057 252.509L162.504 257.114L162.676 257.097L162.846 257.068L162.057 252.509ZM179.561 251.304L184.172 250.922L183.832 246.82L179.719 246.68L179.561 251.304ZM190.096 378.418L185.485 378.8L194.378 380.169L190.096 378.418ZM247.062 256.034L243.143 253.576L243.104 253.638L243.067 253.701L247.062 256.034ZM315.368 226.503L316.327 231.029L320.687 230.105L319.927 225.714L315.368 226.503ZM276.905 250.87L281.257 252.441L281.265 252.418L281.273 252.394L276.905 250.87ZM271.262 409.436L275.821 408.647L275.032 404.089L270.474 404.878L271.262 409.436ZM271.831 412.724L272.62 417.283L277.179 416.494L276.39 411.935L271.831 412.724ZM209.869 423.446L205.31 424.235L206.099 428.793L210.658 428.005L209.869 423.446ZM209.3 420.158L208.559 415.591L203.944 416.341L204.742 420.947L209.3 420.158ZM233.623 416.21L234.364 420.776L245.554 418.96L236.289 412.429L233.623 416.21ZM255.068 254.128L259.479 255.522L264.02 241.158L252.2 250.497L255.068 254.128ZM173.757 431.518L174.546 436.077L177.058 435.642L178.032 433.285L173.757 431.518ZM171.481 431.912L166.866 432.24L167.228 437.343L172.269 436.471L171.481 431.912ZM159.693 265.942L164.308 265.615L155.373 264.287L159.693 265.942ZM146.758 337.208L142.15 336.8L142.148 336.813L142.147 336.825L146.758 337.208ZM69.1032 416.807L73.6524 415.965L73.6515 415.96L69.1032 416.807ZM104.988 378.819L109.286 377.108L109.266 377.057L109.245 377.007L104.988 378.819ZM101.393 391.162L103.896 395.053L103.92 395.038L103.943 395.022L101.393 391.162ZM78.8251 426.325L83.2884 425.107L83.2876 425.105L78.8251 426.325ZM138.474 369.117L143.077 369.583L143.078 369.574L138.474 369.117ZM145.787 302.992L141.209 302.323L141.204 302.353L141.201 302.382L145.787 302.992ZM159.338 256.366L163.616 258.127L166.807 250.378L158.549 251.807L159.338 256.366ZM323.684 328.447L328.236 329.273L319.322 326.905L323.684 328.447ZM332.635 274.802L328.445 276.763L334.788 290.322L337.201 275.548L332.635 274.802ZM333.773 267.833L332.985 263.274L329.739 263.836L329.208 267.087L333.773 267.833ZM355.523 264.069L360.101 264.74L361.027 258.422L354.735 259.511L355.523 264.069ZM345.847 330.082L350.404 330.884L350.415 330.819L350.425 330.753L345.847 330.082ZM356.309 336.347L359.664 333.162L356.627 329.962L353.287 332.844L356.309 336.347ZM357.583 337.689L360.851 340.963L364.044 337.776L360.938 334.504L357.583 337.689ZM407.609 234.739L412.157 235.589L413.379 229.046L406.82 230.181L407.609 234.739ZM403.688 255.735L399.141 254.886L397.919 261.429L404.477 260.294L403.688 255.735ZM422.403 252.497L427.018 252.165L426.652 247.066L421.615 247.938L422.403 252.497ZM422.588 255.07L423.377 259.628L427.502 258.914L427.203 254.738L422.588 255.07ZM403.367 258.395L402.578 253.837L399.345 254.396L398.804 257.633L403.367 258.395ZM394.538 311.238L389.975 310.475L389.973 310.483L394.538 311.238ZM416.687 303.758L415.898 299.2L412.899 299.719L412.188 302.678L416.687 303.758ZM419.722 303.233L424.285 303.995L425.358 297.563L418.933 298.675L419.722 303.233ZM372.559 312.176L377.122 312.94L377.124 312.926L377.127 312.913L372.559 312.176ZM380.606 262.334L385.173 263.071L386.206 256.67L379.817 257.775L380.606 262.334ZM369.225 264.303L364.666 265.092L365.455 269.651L370.014 268.862L369.225 264.303ZM368.787 261.774L367.606 257.301L363.505 258.384L364.229 262.563L368.787 261.774ZM404.574 235.264L403.785 230.706L400.65 231.248L400.035 234.371L404.574 235.264ZM493.413 278.76L492.624 274.202L489.236 274.788L488.821 278.201L493.413 278.76ZM496.195 278.279L500.797 278.755L501.426 272.679L495.406 273.72L496.195 278.279ZM428.712 303.761L424.14 304.466L424.146 304.508L424.153 304.55L428.712 303.761ZM484.062 247.298L486.23 251.384L493.546 247.502L486.404 243.308L484.062 247.298ZM517.63 224.818L522.198 225.551L522.201 225.531L522.204 225.512L517.63 224.818ZM506.557 201.468L501.998 202.257L502.666 206.119L506.585 206.094L506.557 201.468ZM506.119 198.939L505.33 194.38L500.772 195.169L501.56 199.728L506.119 198.939ZM544.814 192.243L549.385 192.952L550.373 186.586L544.025 187.685L544.814 192.243ZM537.672 238.281L533.101 237.572L541.396 241.027L537.672 238.281ZM578.609 246.045L583.188 246.705L583.191 246.681L583.194 246.657L578.609 246.045ZM572.216 290.391L567.637 289.731L567.635 289.742L567.634 289.753L572.216 290.391ZM582.93 296.612L586.286 293.427L583.474 290.465L580.186 292.887L582.93 296.612ZM584.204 297.954L587.696 300.99L590.454 297.818L587.56 294.769L584.204 297.954ZM549.897 290.867L545.334 290.103L545.326 290.153L545.319 290.203L549.897 290.867ZM556.815 249.556L561.378 250.32L561.381 250.298L561.385 250.277L556.815 249.556ZM536.247 246.603L531.977 244.821L531.762 245.337L531.676 245.888L536.247 246.603ZM528.21 298.006L532.773 298.773L532.777 298.746L532.781 298.72L528.21 298.006ZM540.977 308.56L545.535 307.771L544.856 303.845L540.873 303.935L540.977 308.56ZM541.371 310.836L542.189 315.39L546.713 314.576L545.929 310.047L541.371 310.836ZM502.72 317.785L498.152 317.052L497.119 323.492L503.538 322.338L502.72 317.785ZM134.025 184.948L134.813 189.506C152.604 186.428 163.741 174.87 169.696 160.984C175.585 147.251 176.54 131.049 174.207 117.563L169.648 118.352L165.089 119.141C167.176 131.199 166.252 145.538 161.192 157.338C156.197 168.985 147.312 177.953 133.236 180.389L134.025 184.948ZM169.648 118.352L174.207 117.563C173.193 111.704 170.703 103.685 166.418 97.2994C162.147 90.9336 155.269 85.1481 145.695 86.8048L146.484 91.3634L147.273 95.9221C151.609 95.1718 155.372 97.4432 158.735 102.455C162.084 107.447 164.221 114.126 165.089 119.141L169.648 118.352ZM146.484 91.3634L145.695 86.8048C137.135 88.2859 131.175 94.9973 126.998 102.889C122.766 110.885 119.82 121.081 117.695 131.458C113.443 152.218 112.225 175.109 111.319 185.326L115.927 185.735L120.536 186.144C121.483 175.462 122.646 153.399 126.759 133.314C128.817 123.268 131.55 114.069 135.176 107.217C138.858 100.261 142.934 96.6728 147.273 95.9221L146.484 91.3634ZM115.927 185.735L115.63 190.352C122.537 190.796 129.611 190.407 134.813 189.506L134.025 184.948L133.236 180.389C128.828 181.152 122.488 181.521 116.224 181.118L115.927 185.735ZM66.1753 316.768L66.9641 321.327C73.9317 320.121 79.8165 317.133 84.5784 312.149C89.2702 307.238 92.6454 300.628 95.0896 292.505L90.6594 291.172L86.2293 289.839C84.0428 297.105 81.2457 302.243 77.888 305.757C74.6003 309.199 70.5584 311.315 65.3865 312.209L66.1753 316.768ZM90.6594 291.172L95.0838 292.524C97.2299 285.502 98.2555 274.753 98.8037 262.495C99.358 250.101 99.4379 235.639 99.5143 220.95C99.6687 191.282 99.8289 161.046 103.561 143.242L99.0329 142.293L94.505 141.344C90.5317 160.298 90.4135 191.713 90.2616 220.901C90.185 235.64 90.1047 249.907 89.5602 262.082C89.0095 274.393 87.9974 284.053 86.2351 289.82L90.6594 291.172ZM99.0329 142.293L103.571 143.193C106.881 126.505 115.019 108.575 134.767 95.8928L132.268 92L129.768 88.1072C107.319 102.523 98.1407 123.015 94.495 141.393L99.0329 142.293ZM132.268 92L131.673 87.412C112.842 89.8511 95.4023 97.9029 83.1165 108.639C70.9509 119.271 63.0857 133.292 65.5554 147.565L70.114 146.776L74.6727 145.987C72.985 136.234 78.2352 125.193 89.2052 115.607C100.055 106.125 115.77 98.8019 132.862 96.5881L132.268 92ZM70.114 146.776L65.5554 147.565C66.4758 152.884 68.7966 157.532 72.5324 160.409C76.4461 163.424 81.3984 164.072 86.2557 162.119L84.5292 157.826L82.8027 153.534C80.8412 154.323 79.3736 153.999 78.1783 153.079C76.8051 152.021 75.3276 149.772 74.6727 145.987L70.114 146.776ZM84.5292 157.826L79.9147 158.158C80.1225 161.053 79.4002 162.994 78.3573 164.279C77.2946 165.589 75.5294 166.671 72.8552 167.133L73.644 171.692L74.4328 176.251C78.84 175.488 82.7945 173.496 85.5426 170.109C88.3104 166.698 89.49 162.319 89.1437 157.495L84.5292 157.826ZM73.644 171.692L72.8552 167.133C69.8921 167.646 67.5812 166.901 65.7519 165.231C63.7969 163.447 62.0337 160.255 61.1856 155.354L56.627 156.143L52.0683 156.931C53.1458 163.158 55.5918 168.485 59.5141 172.065C63.5623 175.76 68.7971 177.226 74.4328 176.251L73.644 171.692ZM56.627 156.143L61.1856 155.354C59.0239 142.861 64.8048 129.272 77.3353 117.506C89.8139 105.788 108.554 96.3703 130.795 92.5218L130.006 87.9632L129.217 83.4045C105.429 87.5208 84.9635 97.6503 71.0016 110.76C57.0916 123.822 49.1974 140.34 52.0683 156.931L56.627 156.143ZM130.006 87.9632L130.795 92.5218C149.414 89.3 162.752 91.2909 171.735 96.3082C180.562 101.239 185.812 109.441 187.671 120.183L192.23 119.394L196.788 118.605C194.533 105.573 187.892 94.7345 176.247 88.2301C164.757 81.8123 149.04 79.9745 129.217 83.4045L130.006 87.9632ZM192.23 119.394L187.671 120.183C193.07 151.383 168.198 179.288 135.332 184.975L136.121 189.534L136.909 194.093C173.339 187.789 203.293 156.196 196.788 118.605L192.23 119.394ZM136.121 189.534L135.332 184.975C130.281 185.849 123.155 186.584 115.377 186.43L115.285 191.056L115.193 195.681C123.621 195.848 131.339 195.057 136.909 194.093L136.121 189.534ZM115.285 191.056L110.713 190.352C109.308 199.481 108.316 211.908 107.01 225.088C105.69 238.401 104.032 252.706 101.291 266.064C98.5385 279.475 94.7578 291.596 89.3579 300.697C83.9965 309.732 77.3236 315.353 68.7908 316.83L69.5796 321.389L70.3684 325.947C82.4476 323.857 91.1042 315.886 97.3153 305.418C103.488 295.015 107.523 281.723 110.354 267.924C113.197 254.073 114.891 239.373 116.217 226.001C117.556 212.497 118.504 200.56 119.858 191.759L115.285 191.056ZM69.5796 321.389L68.7908 316.83C59.4621 318.444 52.3107 317.107 47.2111 313.757C42.1516 310.433 38.4188 304.673 36.8006 296.002L32.2527 296.851L27.7048 297.699C29.6655 308.205 34.4798 316.464 42.1309 321.491C49.7419 326.49 59.4646 327.834 70.3684 325.947L69.5796 321.389ZM32.2527 296.851L36.8113 296.062C33.1273 274.771 45.2602 257.879 58.2025 255.639L57.4137 251.08L56.6249 246.522C37.1951 249.884 23.4133 272.9 27.6941 297.639L32.2527 296.851ZM57.4137 251.08L57.9618 255.674C61.591 255.241 62.8833 256.521 63.3209 257.696L67.6561 256.081L71.9913 254.465C69.5112 247.809 62.9343 245.763 56.8655 246.487L57.4137 251.08ZM67.6561 256.081L63.3578 257.792C64.4207 260.462 63.571 263.119 61.4067 264.635L64.0615 268.424L66.7163 272.213C72.4506 268.195 74.5778 260.96 71.9545 254.37L67.6561 256.081ZM64.0615 268.424L61.5964 264.509C55.8001 268.159 48.2586 272.709 42.9012 278.692C37.2943 284.954 33.7923 293.106 36.5483 303.547L41.0215 302.366L45.4947 301.185C43.7136 294.438 45.742 289.39 49.7946 284.864C54.0966 280.06 60.3437 276.232 66.5266 272.339L64.0615 268.424ZM41.0215 302.366L36.5506 303.555C38.3233 310.219 42.1551 315.455 47.6817 318.608C53.1523 321.729 59.8374 322.56 66.9641 321.327L66.1753 316.768L65.3865 312.209C59.8679 313.164 55.4665 312.397 52.2668 310.571C49.123 308.778 46.7006 305.719 45.4924 301.177L41.0215 302.366ZM227.431 150.03L226.642 145.472C222.938 146.113 220.004 148.749 217.819 151.505C215.536 154.384 213.496 158.118 211.734 162.239C208.201 170.501 205.484 181.029 204.276 191.25L208.87 191.793L213.464 192.336C214.582 182.879 217.099 173.226 220.241 165.877C221.817 162.191 223.476 159.262 225.069 157.254C226.759 155.122 227.877 154.648 228.22 154.589L227.431 150.03ZM208.87 191.793L209.659 196.352L215.981 195.258L215.193 190.699L214.404 186.14L208.081 187.234L208.87 191.793ZM215.193 190.699L215.981 195.258C222.672 194.1 228.106 189.63 231.786 183.682C235.472 177.722 237.589 170.026 237.698 161.617L233.072 161.557L228.446 161.497C228.355 168.491 226.591 174.491 223.917 178.814C221.236 183.148 217.83 185.548 214.404 186.14L215.193 190.699ZM233.072 161.557L237.698 161.649C237.781 157.444 237.415 153.484 236.012 150.516C235.27 148.946 234.112 147.387 232.325 146.373C230.49 145.332 228.495 145.151 226.642 145.472L227.431 150.03L228.22 154.589C228.39 154.56 228.132 154.632 227.759 154.42C227.434 154.236 227.464 154.083 227.647 154.469C228.093 155.414 228.524 157.568 228.447 161.465L233.072 161.557ZM251.45 192.5L246.891 191.717C243.593 210.927 231.641 224.313 218.789 226.537L219.578 231.096L220.367 235.655C238.37 232.539 252.303 214.877 256.01 193.283L251.45 192.5ZM219.578 231.096L218.789 226.537C209.994 228.059 203.788 226.898 199.558 224.064C195.373 221.26 192.269 216.242 190.876 208.191L186.317 208.98L181.758 209.769C183.428 219.421 187.471 227.103 194.408 231.751C201.301 236.369 210.195 237.415 220.367 235.655L219.578 231.096ZM186.317 208.98L190.876 208.191C188.67 195.445 192.037 181.954 198.932 171.111C205.849 160.237 215.969 152.541 226.761 150.674L225.972 146.115L225.183 141.556C211.19 143.978 199.054 153.678 191.125 166.146C183.175 178.646 179.106 194.443 181.758 209.769L186.317 208.98ZM225.972 146.115L226.761 150.674C234.266 149.375 239.9 150.68 243.486 153.269C246.952 155.772 249.161 159.939 249.025 165.967L253.65 166.071L258.275 166.176C258.47 157.559 255.186 150.304 248.903 145.768C242.741 141.318 234.37 139.967 225.183 141.556L225.972 146.115ZM253.65 166.071L249.024 165.991C248.941 170.761 247.442 174.257 245.14 176.993C242.766 179.815 239.343 182.052 235.132 183.852C226.522 187.532 216.157 188.826 207.775 190.414L208.636 194.959L209.497 199.505C217.005 198.083 228.944 196.559 238.768 192.36C243.773 190.221 248.599 187.254 252.22 182.95C255.914 178.56 258.156 173.008 258.275 166.152L253.65 166.071ZM208.636 194.959L204.039 194.44C203.285 201.121 203.302 207.824 204.272 213.427L208.83 212.638L213.389 211.849C212.608 207.336 212.548 201.549 213.234 195.478L208.636 194.959ZM208.83 212.638L204.272 213.427C205.059 217.978 206.524 222.714 209.932 225.979C213.627 229.519 218.646 230.482 224.506 229.468L223.717 224.91L222.928 220.351C218.925 221.044 217.245 220.171 216.334 219.298C215.136 218.15 214.089 215.897 213.389 211.849L208.83 212.638ZM223.717 224.91L224.506 229.468C238.482 227.05 248.135 212.851 252.899 194.168L248.416 193.025L243.933 191.882C239.386 209.715 231.208 218.918 222.928 220.351L223.717 224.91ZM248.416 193.025L249.204 197.584L252.239 197.059L251.45 192.5L250.662 187.941L247.627 188.466L248.416 193.025ZM270.247 168.669L274.797 169.505C275.695 164.619 277.095 157.027 276.051 150.994L271.493 151.783L266.934 152.572C267.641 156.656 266.677 162.496 265.697 167.834L270.247 168.669ZM271.493 151.783L276.051 150.994C275.645 148.648 274.701 146.616 273.207 144.997C271.735 143.403 269.959 142.457 268.259 141.89C265.064 140.825 261.444 140.912 259.149 140.946L259.217 145.572L259.286 150.198C261.927 150.159 263.898 150.19 265.333 150.668C265.948 150.873 266.247 151.099 266.408 151.273C266.546 151.423 266.793 151.757 266.934 152.572L271.493 151.783ZM259.217 145.572L263.776 144.783L263.338 142.254L258.78 143.043L254.221 143.832L254.659 146.361L259.217 145.572ZM258.78 143.043L259.569 147.602L298.01 140.95L297.222 136.391L296.433 131.832L257.991 138.484L258.78 143.043ZM297.222 136.391L292.652 135.669L290.662 148.256L295.232 148.978L299.802 149.7L301.791 137.113L297.222 136.391ZM295.232 148.978L299.306 151.169C304.623 141.283 311.347 136.037 318.058 134.876L317.27 130.317L316.481 125.759C305.994 127.573 297.271 135.419 291.157 146.787L295.232 148.978ZM317.27 130.317L318.058 134.876C320.668 134.424 322.991 134.707 324.594 135.491C326.006 136.182 327.073 137.337 327.447 139.496L332.006 138.707L336.564 137.919C335.669 132.744 332.656 129.135 328.661 127.18C324.857 125.318 320.446 125.072 316.481 125.759L317.27 130.317ZM332.006 138.707L327.447 139.496C327.899 142.108 326.917 145.45 324.424 148.537C321.959 151.589 318.461 153.808 314.928 154.42L315.717 158.978L316.506 163.537C322.583 162.485 327.974 158.868 331.622 154.351C335.243 149.868 337.6 143.906 336.564 137.919L332.006 138.707ZM315.717 158.978L314.928 154.42C312.85 154.779 311.62 154.453 311.014 154.11C310.539 153.841 310.063 153.362 309.858 152.178L305.299 152.966L300.741 153.755C301.367 157.376 303.318 160.384 306.453 162.161C309.457 163.862 313.02 164.14 316.506 163.537L315.717 158.978ZM305.299 152.966L309.858 152.178C309.477 149.973 310.108 147.494 311.71 145.005C313.313 142.513 315.676 140.367 318.024 139.033L315.737 135.011L313.451 130.989C309.87 133.024 306.38 136.189 303.928 139.999C301.476 143.811 299.853 148.625 300.741 153.755L305.299 152.966ZM315.737 135.011L315.93 130.388C312.12 130.23 308.703 131.764 305.918 133.722C303.115 135.693 300.598 138.336 298.449 141.044C294.157 146.453 290.818 152.783 289.211 156.606L293.476 158.399L297.741 160.192C299.086 156.991 302.024 151.425 305.698 146.795C307.532 144.483 309.42 142.571 311.24 141.292C313.077 139.999 314.501 139.589 315.545 139.633L315.737 135.011ZM293.476 158.399L288.92 157.592C287.205 167.281 285.325 178.325 283.944 187.374C283.254 191.893 282.682 195.954 282.317 199.114C282.136 200.69 282 202.09 281.929 203.233C281.869 204.215 281.819 205.473 281.995 206.49L286.553 205.701L291.112 204.912C291.145 205.107 291.098 204.875 291.164 203.804C291.221 202.893 291.336 201.675 291.509 200.174C291.854 197.18 292.407 193.248 293.09 188.771C294.456 179.826 296.322 168.863 298.031 159.205L293.476 158.399ZM286.553 205.701L281.995 206.49C282.878 211.597 286.388 214.358 289.934 215.662C293.243 216.879 296.917 216.995 299.49 216.957L299.422 212.331L299.354 207.705C296.991 207.74 294.755 207.576 293.127 206.977C291.735 206.466 291.278 205.876 291.112 204.912L286.553 205.701ZM299.422 212.331L294.863 213.12L295.301 215.649L299.86 214.86L304.418 214.071L303.981 211.542L299.422 212.331ZM299.86 214.86L299.071 210.301L260.629 216.953L261.418 221.512L262.206 226.07L300.648 219.419L299.86 214.86ZM261.418 221.512L265.981 222.274L274.81 169.432L270.247 168.669L265.684 167.907L256.855 220.749L261.418 221.512ZM351.226 129.651L350.437 125.092L336.78 127.456L337.569 132.014L338.358 136.573L352.015 134.21L351.226 129.651ZM337.569 132.014L342.128 131.225L341.69 128.696L337.132 129.485L332.573 130.274L333.011 132.803L337.569 132.014ZM337.132 129.485L337.92 134.044L352.336 131.549L351.547 126.991L350.758 122.432L336.343 124.927L337.132 129.485ZM351.547 126.991L356.121 127.684L357.094 121.264L352.52 120.571L347.946 119.878L346.973 126.297L351.547 126.991ZM352.52 120.571L357.081 121.347C360.59 100.731 372.045 88.0252 388.085 85.2496L387.296 80.691L386.507 76.1323C365.623 79.7461 351.942 96.3954 347.959 119.795L352.52 120.571ZM387.296 80.691L388.085 85.2496C393.555 84.3032 397.927 84.9877 400.924 86.5549C403.804 88.061 405.655 90.4821 406.233 93.8244L410.792 93.0356L415.35 92.2468C414.266 85.9787 410.565 81.1552 405.211 78.3556C399.974 75.617 393.43 74.9345 386.507 76.1323L387.296 80.691ZM410.792 93.0356L406.233 93.8244C407.223 99.5447 403.484 104.192 397.785 105.178L398.574 109.737L399.362 114.295C409.344 112.568 417.336 103.724 415.35 92.2468L410.792 93.0356ZM398.574 109.737L397.785 105.178C395.336 105.602 393.596 105.123 392.487 104.396C391.397 103.682 390.555 102.498 390.254 100.757L385.695 101.546L381.137 102.335C381.842 106.41 384.025 109.913 387.415 112.135C390.787 114.345 394.983 115.053 399.362 114.295L398.574 109.737ZM385.695 101.546L390.254 100.757C389.517 96.5 392.405 90.4966 399.562 88.4461L398.288 83.9986L397.014 79.5512C385.805 82.7623 379.51 92.9347 381.137 102.335L385.695 101.546ZM398.288 83.9986L400.16 79.7681C398.566 79.0627 396.778 78.8217 395.338 78.7535C393.827 78.682 392.266 78.7826 390.914 79.0166L391.702 83.5753L392.491 88.1339C393.162 88.0178 394.047 87.9556 394.9 87.996C395.318 88.0157 395.679 88.058 395.967 88.1126C396.109 88.1395 396.219 88.1668 396.3 88.1904C396.382 88.2145 396.417 88.2301 396.415 88.2292L398.288 83.9986ZM391.702 83.5753L390.914 79.0166C384.302 80.1606 379.724 85.299 376.511 92.2238C373.28 99.1862 370.951 108.906 369.254 121.199L373.837 121.831L378.42 122.464C380.075 110.473 382.253 101.831 384.904 96.1188C387.572 90.3694 390.251 88.5216 392.491 88.1339L391.702 83.5753ZM373.837 121.831L369.312 120.871L369.025 122.223L373.55 123.183L378.076 124.144L378.363 122.792L373.837 121.831ZM373.55 123.183L374.339 127.742L394.572 124.241L393.783 119.682L392.994 115.124L372.761 118.625L373.55 123.183ZM393.783 119.682L389.224 120.471L389.662 123L394.22 122.211L398.779 121.423L398.341 118.894L393.783 119.682ZM394.22 122.211L393.431 117.653L372.44 121.285L373.229 125.844L374.018 130.402L395.009 126.77L394.22 122.211ZM373.229 125.844L368.648 125.195L356.802 208.774L361.383 209.424L365.964 210.073L377.81 126.493L373.229 125.844ZM361.383 209.424L356.8 208.789C353.515 232.512 341.934 244.895 326.512 248.013L327.429 252.548L328.346 257.082C348.661 252.975 362.303 236.507 365.966 210.058L361.383 209.424ZM327.429 252.548L326.64 247.989L325.375 248.208L326.164 252.766L326.953 257.325L328.218 257.106L327.429 252.548ZM326.164 252.766L325.375 248.208C319.907 249.154 315.523 248.472 312.52 246.922C309.627 245.43 307.821 243.062 307.271 239.886L302.713 240.675L298.154 241.463C299.224 247.645 302.947 252.395 308.277 255.145C313.497 257.838 320.03 258.523 326.953 257.325L326.164 252.766ZM302.713 240.675L307.271 239.886C306.263 234.061 310.089 229.246 315.676 228.279L314.887 223.721L314.098 219.162C304.005 220.909 296.186 230.091 298.154 241.463L302.713 240.675ZM314.887 223.721L315.676 228.279C318.124 227.856 319.845 228.336 320.945 229.07C322.028 229.794 322.918 231.032 323.25 232.953L327.809 232.164L332.368 231.376C331.65 227.227 329.493 223.652 326.084 221.376C322.693 219.111 318.478 218.404 314.098 219.162L314.887 223.721ZM327.809 232.164L323.25 232.953C323.974 237.136 321.225 243.421 313.021 245.679L314.249 250.14L315.476 254.6C327.661 251.246 334.007 240.85 332.368 231.376L327.809 232.164ZM314.249 250.14L312.916 254.57C316.621 255.685 320.499 255.316 321.876 255.078L321.087 250.519L320.298 245.961C320.081 245.998 319.339 246.09 318.369 246.079C317.396 246.068 316.404 245.957 315.582 245.709L314.249 250.14ZM321.087 250.519L321.876 255.078C329.165 253.816 333.417 248.258 336.258 241.097C339.077 233.991 341.023 224.063 343.045 211.795L338.48 211.042L333.916 210.29C331.871 222.689 330.052 231.647 327.657 237.685C325.283 243.67 322.872 245.515 320.298 245.961L321.087 250.519ZM338.48 211.042L343.051 211.758L355.797 130.367L351.226 129.651L346.655 128.935L333.91 210.327L338.48 211.042ZM431.683 114.687L430.894 110.128C427.19 110.769 424.256 113.406 422.071 116.162C419.788 119.041 417.748 122.775 415.986 126.895C412.453 135.158 409.736 145.686 408.528 155.907L413.122 156.45L417.716 156.993C418.834 147.536 421.351 137.883 424.493 130.533C426.069 126.848 427.728 123.919 429.321 121.911C431.011 119.779 432.129 119.305 432.472 119.246L431.683 114.687ZM413.122 156.45L413.911 161.008L420.233 159.914L419.445 155.356L418.656 150.797L412.333 151.891L413.122 156.45ZM419.445 155.356L420.233 159.914C426.924 158.757 432.358 154.287 436.038 148.338C439.724 142.379 441.841 134.683 441.95 126.274L437.324 126.214L432.698 126.154C432.607 133.148 430.843 139.148 428.169 143.471C425.488 147.805 422.082 150.204 418.656 150.797L419.445 155.356ZM437.324 126.214L441.95 126.306C442.033 122.101 441.667 118.141 440.264 115.173C439.522 113.603 438.364 112.043 436.577 111.029C434.742 109.988 432.747 109.808 430.894 110.128L431.683 114.687L432.472 119.246C432.642 119.216 432.384 119.289 432.011 119.077C431.686 118.893 431.716 118.739 431.899 119.126C432.345 120.071 432.776 122.225 432.699 126.122L437.324 126.214ZM455.702 157.157L451.143 156.374C447.845 175.584 435.893 188.97 423.041 191.194L423.83 195.753L424.619 200.311C442.622 197.196 456.555 179.534 460.262 157.939L455.702 157.157ZM423.83 195.753L423.041 191.194C414.245 192.716 408.04 191.555 403.81 188.721C399.625 185.916 396.521 180.899 395.128 172.848L390.569 173.637L386.01 174.426C387.681 184.078 391.723 191.76 398.66 196.408C405.553 201.026 414.446 202.072 424.619 200.311L423.83 195.753ZM390.569 173.637L395.128 172.848C392.922 160.101 396.289 146.61 403.184 135.768C410.101 124.894 420.221 117.198 431.013 115.331L430.224 110.772L429.435 106.213C415.442 108.635 403.306 118.335 395.377 130.803C387.427 143.302 383.358 159.099 386.01 174.426L390.569 173.637ZM430.224 110.772L431.013 115.331C438.518 114.032 444.152 115.337 447.738 117.926C451.204 120.429 453.413 124.596 453.277 130.624L457.902 130.728L462.527 130.833C462.722 122.216 459.438 114.961 453.155 110.425C446.993 105.975 438.622 104.624 429.435 106.213L430.224 110.772ZM457.902 130.728L453.276 130.648C453.193 135.418 451.694 138.914 449.392 141.65C447.018 144.472 443.595 146.709 439.384 148.509C430.774 152.189 420.409 153.483 412.027 155.07L412.888 159.616L413.75 164.162C421.257 162.739 433.196 161.216 443.02 157.017C448.025 154.878 452.851 151.911 456.472 147.607C460.166 143.216 462.408 137.665 462.527 130.809L457.902 130.728ZM412.888 159.616L408.291 159.097C407.537 165.778 407.554 172.481 408.524 178.084L413.082 177.295L417.641 176.506C416.86 171.993 416.8 166.206 417.486 160.135L412.888 159.616ZM413.082 177.295L408.524 178.084C409.311 182.635 410.776 187.371 414.184 190.636C417.879 194.175 422.898 195.139 428.758 194.125L427.969 189.566L427.18 185.008C423.177 185.701 421.497 184.828 420.586 183.955C419.388 182.807 418.341 180.554 417.641 176.506L413.082 177.295ZM427.969 189.566L428.758 194.125C442.735 191.707 452.387 177.507 457.15 158.825L452.668 157.682L448.185 156.539C443.638 174.372 435.46 183.575 427.18 185.008L427.969 189.566ZM452.668 157.682L453.456 162.24L456.491 161.715L455.702 157.157L454.914 152.598L451.879 153.123L452.668 157.682ZM509.236 100.747L508.447 96.188C503.093 97.1144 498.568 100.304 494.964 104.517C491.358 108.733 488.468 114.199 486.34 120.264C482.085 132.384 480.613 147.623 483.11 162.052L487.668 161.263L492.227 160.474C489.998 147.59 491.342 133.949 495.07 123.328C496.932 118.023 499.325 113.653 501.995 110.532C504.667 107.408 507.412 105.757 510.025 105.305L509.236 100.747ZM487.668 161.263L483.11 162.052C484.234 168.55 485.984 173.894 489.169 177.395C492.76 181.343 497.451 182.239 502.352 181.391L501.563 176.832L500.774 172.273C498.088 172.738 496.926 172.172 496.014 171.169C494.695 169.719 493.291 166.622 492.227 160.474L487.668 161.263ZM501.563 176.832L502.352 181.391C510.97 179.899 518.415 173.813 523.919 165.708C529.468 157.537 533.376 146.868 534.799 135.186L530.206 134.627L525.614 134.068C524.346 144.471 520.888 153.702 516.265 160.51C511.597 167.384 506.066 171.358 500.774 172.273L501.563 176.832ZM530.206 134.627L530.995 139.186L533.777 138.704L532.988 134.146L532.199 129.587L529.417 130.068L530.206 134.627ZM532.988 134.146L528.386 133.669C525.682 159.81 512.593 175.959 495.161 178.975L495.95 183.534L496.739 188.092C519.772 184.107 534.641 163.119 537.59 134.622L532.988 134.146ZM495.95 183.534L495.161 178.975C488.01 180.213 482.576 178.935 478.662 175.986C474.702 173.003 471.614 167.795 470.239 159.851L465.68 160.64L461.122 161.429C462.767 170.935 466.721 178.575 473.094 183.376C479.513 188.212 487.705 189.656 496.739 188.092L495.95 183.534ZM465.68 160.64L470.239 159.851L470.064 158.839L465.505 159.628L460.947 160.417L461.122 161.429L465.68 160.64ZM465.505 159.628L470.078 158.924C468.161 146.477 471.526 133.283 478.305 122.68C485.101 112.051 494.992 104.52 505.662 102.674L504.873 98.1153L504.085 93.5566C490.223 95.9552 478.319 105.48 470.509 117.696C462.682 129.938 458.629 145.378 460.933 160.332L465.505 159.628ZM504.873 98.1153L505.662 102.674C516.917 100.726 523.898 105.735 524.997 112.085L529.555 111.296L534.114 110.508C531.799 97.1311 518.12 91.1279 504.085 93.5566L504.873 98.1153ZM529.555 111.296L524.997 112.085C526.16 118.807 521.461 125.454 515.26 126.527L516.049 131.086L516.837 135.644C528.339 133.654 536.102 121.995 534.114 110.508L529.555 111.296ZM516.049 131.086L515.26 126.527C513.183 126.886 511.815 126.471 510.986 125.91C510.171 125.358 509.421 124.361 509.125 122.646L504.566 123.435L500.007 124.224C500.673 128.073 502.63 131.426 505.798 133.572C508.952 135.707 512.844 136.335 516.837 135.644L516.049 131.086ZM504.566 123.435L509.125 122.646C508.773 120.615 509.074 118.669 510.802 116.356C512.692 113.824 516.357 110.789 523.024 107.251L520.855 103.164L518.686 99.0777C511.516 102.883 506.467 106.696 503.388 110.82C500.146 115.162 499.221 119.679 500.007 124.224L504.566 123.435ZM520.855 103.164L523.197 99.1747C518.639 96.4986 513.484 95.3165 508.447 96.188L509.236 100.747L510.025 105.305C512.575 104.864 515.532 105.404 518.512 107.154L520.855 103.164ZM581.723 66.8444L577.175 65.9951L573.254 86.9909L577.802 87.8402L582.35 88.6895L586.271 67.6936L581.723 66.8444ZM577.802 87.8402L578.591 92.3989L597.306 89.1604L596.517 84.6018L595.728 80.0431L577.013 83.2816L577.802 87.8402ZM596.517 84.6018L591.903 84.933L592.087 87.5059L596.702 87.1746L601.316 86.8434L601.132 84.2705L596.517 84.6018ZM596.702 87.1746L595.913 82.616L576.692 85.9419L577.481 90.5006L578.27 95.0592L597.491 91.7333L596.702 87.1746ZM577.481 90.5006L572.918 89.7381L564.088 142.58L568.652 143.343L573.215 144.105L582.044 91.263L577.481 90.5006ZM568.652 143.343L564.087 142.588C563.33 147.163 562.979 150.924 563.011 153.995C563.043 157.016 563.447 159.691 564.458 161.884C565.547 164.246 567.318 165.973 569.669 166.814C571.812 167.58 573.964 167.436 575.636 167.147L574.847 162.588L574.058 158.03C573.075 158.2 572.759 158.092 572.784 158.101C573.019 158.185 573.023 158.362 572.861 158.01C572.621 157.489 572.289 156.286 572.263 153.897C572.239 151.556 572.509 148.372 573.216 144.098L568.652 143.343ZM574.847 162.588L575.636 167.147C581.052 166.21 585.039 162.035 587.962 157.025C590.948 151.906 593.358 145.027 595.299 136.944L590.801 135.864L586.302 134.783C584.458 142.462 582.307 148.356 579.969 152.363C577.568 156.479 575.47 157.785 574.058 158.03L574.847 162.588ZM590.801 135.864L591.589 140.422L594.624 139.897L593.836 135.338L593.047 130.78L590.012 131.305L590.801 135.864ZM593.836 135.338L589.272 134.577C585.844 155.12 577.043 164.807 565.673 166.774L566.462 171.333L567.251 175.891C584.207 172.957 594.666 158.472 598.399 136.1L593.836 135.338ZM566.462 171.333L565.673 166.774C558.422 168.029 554.792 166.378 552.918 163.849C550.723 160.885 549.561 155.047 551.236 145.045L546.673 144.281L542.11 143.517C540.326 154.17 540.966 163.258 545.483 169.356C550.322 175.89 558.316 177.437 567.251 175.891L566.462 171.333ZM546.673 144.281L551.24 145.018L559.287 95.1765L554.719 94.4392L550.152 93.7019L542.106 143.543L546.673 144.281ZM554.719 94.4392L553.931 89.8805L542.55 91.8498L543.339 96.4085L544.127 100.967L555.508 98.9978L554.719 94.4392ZM543.339 96.4085L547.897 95.6197L547.46 93.0906L542.901 93.8794L538.342 94.6682L538.78 97.1973L543.339 96.4085ZM542.901 93.8794L544.082 98.3526C555.761 95.2698 564.746 91.6261 571.212 86.8224C577.853 81.8886 581.745 75.7918 583.227 68.2632L578.688 67.3695L574.149 66.4758C573.136 71.6216 570.593 75.755 565.694 79.3952C560.619 83.1655 552.959 86.4397 541.72 89.4062L542.901 93.8794ZM578.688 67.3695L579.477 71.9281L582.512 71.403L581.723 66.8444L580.934 62.2857L577.899 62.8109L578.688 67.3695ZM65.8981 327.138L61.3395 327.927C62.3469 333.748 64.8562 338.757 68.7194 341.907C72.7415 345.186 77.9326 346.158 83.0745 344.132L81.3784 339.827L79.6823 335.523C77.7525 336.284 76.0787 335.969 74.5662 334.736C72.8948 333.373 71.1999 330.643 70.4568 326.349L65.8981 327.138ZM81.3784 339.827L76.7555 340.007C76.8703 342.965 76.0984 344.98 75.0168 346.313C73.9291 347.654 72.2059 348.702 69.7044 349.134L70.4932 353.693L71.282 358.252C75.6089 357.503 79.479 355.499 82.2021 352.143C84.9313 348.779 86.1877 344.452 86.0013 339.648L81.3784 339.827ZM70.4932 353.693L69.7044 349.134C66.6742 349.659 64.3508 348.925 62.564 347.359C60.6671 345.697 58.9628 342.718 58.1661 338.114L53.6075 338.902L49.0488 339.691C50.0901 345.709 52.5293 350.869 56.466 354.318C60.5129 357.865 65.7134 359.215 71.282 358.252L70.4932 353.693ZM53.6075 338.902L58.1661 338.114C55.7945 324.408 63.5301 306.049 81.6839 289.844C99.6445 273.81 127.192 260.541 162.504 257.114L162.057 252.509L161.61 247.904C124.491 251.507 95.0571 265.502 75.522 282.941C56.1802 300.207 45.9064 321.531 49.0488 339.691L53.6075 338.902ZM162.057 252.509L162.846 257.068C168.608 256.071 173.437 255.724 179.404 255.927L179.561 251.304L179.719 246.68C173.108 246.455 167.646 246.847 161.268 247.951L162.057 252.509ZM179.561 251.304L174.951 251.686L185.485 378.8L190.096 378.418L194.706 378.036L184.172 250.922L179.561 251.304ZM190.096 378.418L194.378 380.169C207.565 347.907 231.954 291.079 251.057 258.367L247.062 256.034L243.067 253.701C223.59 287.053 198.979 344.459 185.813 376.668L190.096 378.418ZM247.062 256.034L250.982 258.492C257.464 248.154 268.178 241.461 280.261 236.895C292.342 232.33 305.255 230.083 315.676 228.279L314.887 223.721L314.098 219.162C303.781 220.947 290.018 223.316 276.99 228.24C263.963 233.163 251.134 240.832 243.143 253.576L247.062 256.034ZM314.887 223.721L310.328 224.51L310.81 227.292L315.368 226.503L319.927 225.714L319.445 222.932L314.887 223.721ZM315.368 226.503L314.409 221.977C291.089 226.918 277.739 234.44 272.537 249.345L276.905 250.87L281.273 252.394C284.779 242.349 293.694 235.824 316.327 231.029L315.368 226.503ZM276.905 250.87L272.554 249.298C268.089 261.662 260.597 294.701 254.744 327.236C251.804 343.576 249.251 359.936 247.682 373.691C246.139 387.211 245.461 398.858 246.588 405.371L251.147 404.582L255.706 403.793C254.841 398.798 255.309 388.464 256.875 374.739C258.414 361.249 260.931 345.1 263.85 328.875C269.714 296.282 277.093 263.972 281.257 252.441L276.905 250.87ZM251.147 404.582L246.588 405.371C247.153 408.636 248.394 411.968 251.285 414.112C254.23 416.299 257.806 416.46 261.176 415.877L260.387 411.318L259.599 406.759C257.405 407.139 256.842 406.714 256.799 406.682C256.701 406.609 256.103 406.091 255.706 403.793L251.147 404.582ZM260.387 411.318L261.176 415.877L272.051 413.995L271.262 409.436L270.474 404.878L259.599 406.759L260.387 411.318ZM271.262 409.436L266.704 410.225L267.273 413.513L271.831 412.724L276.39 411.935L275.821 408.647L271.262 409.436ZM271.831 412.724L271.043 408.165L209.08 418.887L209.869 423.446L210.658 428.005L272.62 417.283L271.831 412.724ZM209.869 423.446L214.428 422.657L213.859 419.369L209.3 420.158L204.742 420.947L205.31 424.235L209.869 423.446ZM209.3 420.158L210.041 424.725L234.364 420.776L233.623 416.21L232.882 411.643L208.559 415.591L209.3 420.158ZM233.623 416.21L236.289 412.429C233.096 410.178 232.042 407.034 231.354 403.058L226.795 403.846L222.236 404.635C223.036 409.258 224.657 415.549 230.957 419.991L233.623 416.21ZM226.795 403.846L231.354 403.058C230.067 395.622 230.295 385.204 231.695 372.858C233.086 360.594 235.593 346.751 238.679 332.611C244.851 304.333 253.277 275.14 259.479 255.522L255.068 254.128L250.657 252.733C244.401 272.519 235.89 301.999 229.64 330.637C226.515 344.955 223.94 359.13 222.501 371.816C221.071 384.42 220.722 395.885 222.236 404.635L226.795 403.846ZM255.068 254.128L252.2 250.497C249.464 252.659 246.521 256.803 243.559 261.672C240.478 266.735 237.012 273.214 233.315 280.63C225.915 295.473 217.451 314.346 209.105 333.754C192.421 372.551 176.049 413.863 169.481 429.751L173.757 431.518L178.032 433.285C184.685 417.19 200.948 376.144 217.605 337.41C225.929 318.053 234.312 299.367 241.595 284.758C245.24 277.448 248.575 271.228 251.463 266.481C254.469 261.541 256.661 258.765 257.936 257.758L255.068 254.128ZM173.757 431.518L172.968 426.959L170.692 427.353L171.481 431.912L172.269 436.471L174.546 436.077L173.757 431.518ZM171.481 431.912L176.095 431.584L164.308 265.615L159.693 265.942L155.078 266.27L166.866 432.24L171.481 431.912ZM159.693 265.942L155.373 264.287C150.109 278.024 144.8 306.815 142.15 336.8L146.758 337.208L151.366 337.615C154 307.817 159.228 280.085 164.013 267.598L159.693 265.942ZM146.758 337.208L142.147 336.825C140.147 360.95 138.449 385.451 133.04 404.732C127.608 424.096 118.993 436.299 104.43 438.819L105.219 443.378L106.008 447.936C126.093 444.461 136.265 427.495 141.949 407.231C147.656 386.885 149.403 361.298 151.368 337.59L146.758 337.208ZM105.219 443.378L104.43 438.819C95.7258 440.325 89.0656 439.098 84.22 435.682C79.3662 432.26 75.5224 426.071 73.6524 415.965L69.1032 416.807L64.5541 417.648C66.7005 429.248 71.4306 437.986 78.8886 443.244C86.3547 448.507 95.7442 449.712 106.008 447.936L105.219 443.378ZM69.1032 416.807L73.6515 415.96C72.0259 407.225 74.0832 398.261 78.3955 391.162C82.7389 384.012 89.0478 379.239 95.4906 378.124L94.7018 373.566L93.913 369.007C84.1698 370.693 75.8243 377.573 70.4874 386.359C65.1194 395.196 62.4704 406.452 64.5549 417.653L69.1032 416.807ZM94.7018 373.566L95.4906 378.124C97.0883 377.848 98.169 378.086 98.871 378.447C99.5527 378.798 100.225 379.441 100.731 380.631L104.988 378.819L109.245 377.007C107.995 374.071 105.927 371.673 103.106 370.22C100.305 368.778 97.1205 368.452 93.913 369.007L94.7018 373.566ZM104.988 378.819L100.69 380.53C101.757 383.211 100.677 386.091 98.8435 387.302L101.393 391.162L103.943 395.022C109.59 391.292 111.905 383.687 109.286 377.108L104.988 378.819ZM101.393 391.162L98.8907 387.271C93.0054 391.057 85.4401 395.695 80.1608 401.868C74.5997 408.37 71.4096 416.747 74.3626 427.545L78.8251 426.325L83.2876 425.105C81.2756 417.747 83.2755 412.462 87.1926 407.882C91.3917 402.972 97.593 399.107 103.896 395.053L101.393 391.162ZM78.8251 426.325L74.3618 427.542C78.1076 441.275 92.9491 445.768 104.758 443.724L103.969 439.166L103.18 434.607C93.7452 436.24 85.2419 432.269 83.2884 425.107L78.8251 426.325ZM103.969 439.166L104.758 443.724C121.489 440.829 130.392 426.888 135.357 412.348C140.357 397.704 141.936 380.863 143.077 369.583L138.474 369.117L133.871 368.652C132.706 380.172 131.195 395.904 126.601 409.359C121.971 422.918 114.775 432.601 103.18 434.607L103.969 439.166ZM138.474 369.117L143.078 369.574C145.264 347.564 147.441 325.643 150.373 303.602L145.787 302.992L141.201 302.382C138.245 324.6 136.054 346.674 133.87 368.66L138.474 369.117ZM145.787 302.992L150.364 303.662C152.559 288.654 157.471 273.052 163.616 258.127L159.338 256.366L155.06 254.605C148.734 269.97 143.548 286.33 141.209 302.323L145.787 302.992ZM159.338 256.366L158.549 251.807C122.347 258.072 97.1625 270.553 81.4203 284.674C65.7989 298.687 59.0655 314.785 61.3395 327.927L65.8981 327.138L70.4568 326.349C68.9235 317.488 73.3356 304.356 87.5988 291.561C101.741 278.875 125.181 266.972 160.127 260.925L159.338 256.366ZM321.819 272.506L321.03 267.948C315.697 268.871 311.259 272.809 307.811 277.396C304.266 282.113 301.219 288.236 298.844 294.879C294.117 308.097 291.712 324.353 293.985 337.493L298.544 336.705L303.103 335.916C301.175 324.777 303.199 310.181 307.556 297.994C309.723 291.934 312.382 286.715 315.208 282.955C318.132 279.065 320.733 277.39 322.607 277.065L321.819 272.506ZM298.544 336.705L293.985 337.493C294.666 341.429 295.734 345.103 297.865 347.682C299.014 349.074 300.486 350.164 302.295 350.754C304.065 351.332 305.858 351.335 307.537 351.044L306.748 346.486L305.96 341.927C305.662 341.978 305.46 341.985 305.336 341.98C305.216 341.975 305.168 341.959 305.166 341.959C305.164 341.958 305.166 341.958 305.169 341.96C305.172 341.961 305.171 341.961 305.164 341.956C305.152 341.948 305.094 341.905 304.998 341.789C304.493 341.178 303.735 339.567 303.103 335.916L298.544 336.705ZM306.748 346.486L307.537 351.044C310.609 350.513 313.161 348.729 315.196 346.671C317.254 344.588 319.086 341.921 320.712 339.004C323.968 333.164 326.759 325.675 328.972 318.067C331.195 310.423 332.894 302.456 333.9 295.555C334.879 288.838 335.289 282.578 334.606 278.629L330.048 279.418L325.489 280.207C325.9 282.58 325.715 287.559 324.744 294.22C323.799 300.697 322.192 308.247 320.087 315.483C317.972 322.754 315.413 329.508 312.631 334.498C311.238 336.995 309.879 338.888 308.615 340.167C307.328 341.469 306.429 341.846 305.96 341.927L306.748 346.486ZM330.048 279.418L334.606 278.629C334.015 275.213 332.56 272.151 329.999 270.098C327.371 267.991 324.148 267.408 321.03 267.948L321.819 272.506L322.607 277.065C323.536 276.904 323.967 277.121 324.212 277.318C324.525 277.568 325.161 278.311 325.489 280.207L330.048 279.418ZM339.631 348.35L338.842 343.791C336.152 344.256 334.237 343.99 332.895 343.463C331.578 342.945 330.546 342.073 329.744 340.857C328.054 338.292 327.366 334.069 328.236 329.273L323.684 328.447L319.132 327.622C318.002 333.851 318.586 340.739 322.018 345.948C323.778 348.619 326.27 350.801 329.511 352.075C332.729 353.339 336.408 353.602 340.42 352.908L339.631 348.35ZM323.684 328.447L319.322 326.905C317.399 332.345 314.764 337.974 311.224 342.436C307.71 346.865 303.507 349.905 298.377 350.793L299.166 355.352L299.955 359.91C307.976 358.522 314.02 353.798 318.472 348.187C322.897 342.61 325.947 335.925 328.046 329.99L323.684 328.447ZM299.166 355.352L298.377 350.793C292.736 351.769 289.106 350.427 286.603 348.103C283.906 345.598 281.907 341.378 280.905 335.589L276.347 336.378L271.788 337.167C272.974 344.023 275.557 350.472 280.307 354.883C285.253 359.475 291.938 361.297 299.955 359.91L299.166 355.352ZM276.347 336.378L280.905 335.589C278.897 323.985 281.555 309.22 288.287 296.741C295.013 284.274 305.37 274.838 318.191 272.62L317.403 268.061L316.614 263.502C300.098 266.36 287.717 278.311 280.144 292.348C272.578 306.372 269.376 323.227 271.788 337.167L276.347 336.378ZM317.403 268.061L318.191 272.62C323.678 271.67 327.032 273.744 328.445 276.763L332.635 274.802L336.826 272.842C333.278 265.258 325.29 262.001 316.614 263.502L317.403 268.061ZM332.635 274.802L337.201 275.548L338.339 268.579L333.773 267.833L329.208 267.087L328.069 274.057L332.635 274.802ZM333.773 267.833L334.562 272.392L356.312 268.628L355.523 264.069L354.735 259.511L332.985 263.274L333.773 267.833ZM355.523 264.069L350.946 263.399L341.27 329.411L345.847 330.082L350.425 330.753L360.101 264.74L355.523 264.069ZM345.847 330.082L341.291 329.28C340.635 333.008 340.65 336.746 342.091 339.695C342.858 341.266 344.078 342.692 345.835 343.571C347.583 344.445 349.451 344.573 351.169 344.276L350.38 339.717L349.591 335.158C349.411 335.19 349.617 335.117 349.975 335.296C350.341 335.479 350.444 335.715 350.404 335.634C350.345 335.512 350.191 335.098 350.142 334.247C350.094 333.414 350.155 332.298 350.404 330.884L345.847 330.082ZM350.38 339.717L351.169 344.276C353.096 343.942 354.921 342.942 356.122 342.196C357.433 341.38 358.602 340.478 359.33 339.85L356.309 336.347L353.287 332.844C352.882 333.193 352.098 333.802 351.234 334.339C350.808 334.604 350.416 334.818 350.083 334.97C349.727 335.132 349.57 335.162 349.591 335.158L350.38 339.717ZM356.309 336.347L352.953 339.532L354.227 340.874L357.583 337.689L360.938 334.504L359.664 333.162L356.309 336.347ZM357.583 337.689L354.314 334.415C348.662 340.057 343.853 342.924 338.842 343.791L339.631 348.35L340.42 352.908C348.054 351.587 354.509 347.295 360.851 340.963L357.583 337.689ZM407.609 234.739L403.061 233.89L399.141 254.886L403.688 255.735L408.236 256.584L412.157 235.589L407.609 234.739ZM403.688 255.735L404.477 260.294L423.192 257.055L422.403 252.497L421.615 247.938L402.9 251.176L403.688 255.735ZM422.403 252.497L417.789 252.828L417.974 255.401L422.588 255.07L427.203 254.738L427.018 252.165L422.403 252.497ZM422.588 255.07L421.799 250.511L402.578 253.837L403.367 258.395L404.156 262.954L423.377 259.628L422.588 255.07ZM403.367 258.395L398.804 257.633L389.975 310.475L394.538 311.238L399.101 312L407.93 259.158L403.367 258.395ZM394.538 311.238L389.973 310.483C389.216 315.058 388.865 318.819 388.897 321.89C388.929 324.911 389.333 327.586 390.344 329.779C391.433 332.141 393.204 333.868 395.555 334.709C397.698 335.475 399.85 335.331 401.522 335.042L400.733 330.483L399.944 325.924C398.961 326.095 398.645 325.987 398.67 325.996C398.905 326.08 398.909 326.257 398.747 325.905C398.507 325.384 398.175 324.181 398.15 321.792C398.125 319.451 398.395 316.267 399.102 311.993L394.538 311.238ZM400.733 330.483L401.522 335.042C406.939 334.105 410.925 329.93 413.848 324.92C416.834 319.801 419.244 312.922 421.185 304.839L416.687 303.758L412.188 302.678C410.345 310.357 408.193 316.251 405.855 320.258C403.454 324.374 401.356 325.68 399.944 325.924L400.733 330.483ZM416.687 303.758L417.476 308.317L420.51 307.792L419.722 303.233L418.933 298.675L415.898 299.2L416.687 303.758ZM419.722 303.233L415.158 302.472C411.73 323.015 402.929 332.702 391.559 334.669L392.348 339.228L393.137 343.786C410.093 340.852 420.552 326.367 424.285 303.995L419.722 303.233ZM392.348 339.228L391.559 334.669C384.308 335.924 380.678 334.273 378.805 331.744C376.609 328.78 375.447 322.942 377.122 312.94L372.559 312.176L367.997 311.412C366.213 322.064 366.852 331.153 371.369 337.251C376.209 343.785 384.202 345.332 393.137 343.786L392.348 339.228ZM372.559 312.176L377.127 312.913L385.173 263.071L380.606 262.334L376.038 261.597L367.992 311.438L372.559 312.176ZM380.606 262.334L379.817 257.775L368.436 259.745L369.225 264.303L370.014 268.862L381.394 266.893L380.606 262.334ZM369.225 264.303L373.783 263.515L373.346 260.986L368.787 261.774L364.229 262.563L364.666 265.092L369.225 264.303ZM368.787 261.774L369.968 266.248C381.647 263.165 390.632 259.521 397.098 254.717C403.739 249.784 407.631 243.687 409.114 236.158L404.574 235.264L400.035 234.371C399.022 239.517 396.479 243.65 391.58 247.29C386.505 251.06 378.845 254.335 367.606 257.301L368.787 261.774ZM404.574 235.264L405.363 239.823L408.398 239.298L407.609 234.739L406.82 230.181L403.785 230.706L404.574 235.264ZM472.443 244.88L471.654 240.321C466.3 241.248 461.775 244.437 458.171 248.651C454.564 252.867 451.675 258.332 449.546 264.397C445.292 276.517 443.82 291.756 446.317 306.185L450.875 305.396L455.434 304.608C453.204 291.723 454.549 278.082 458.277 267.462C460.139 262.157 462.532 257.786 465.202 254.665C467.874 251.541 470.618 249.891 473.231 249.439L472.443 244.88ZM450.875 305.396L446.317 306.185C447.441 312.683 449.191 318.027 452.375 321.528C455.967 325.477 460.658 326.372 465.559 325.524L464.77 320.965L463.981 316.407C461.295 316.871 460.133 316.305 459.22 315.302C457.901 313.852 456.498 310.755 455.434 304.608L450.875 305.396ZM464.77 320.965L465.559 325.524C474.177 324.033 481.622 317.947 487.126 309.841C492.675 301.67 496.582 291.002 498.005 279.32L493.413 278.76L488.821 278.201C487.553 288.605 484.094 297.835 479.471 304.643C474.804 311.517 469.273 315.491 463.981 316.407L464.77 320.965ZM493.413 278.76L494.202 283.319L496.984 282.838L496.195 278.279L495.406 273.72L492.624 274.202L493.413 278.76ZM496.195 278.279L491.593 277.803C488.888 303.943 475.8 320.092 458.368 323.108L459.157 327.667L459.946 332.226C482.979 328.24 497.848 307.252 500.797 278.755L496.195 278.279ZM459.157 327.667L458.368 323.108C451.216 324.346 445.783 323.068 441.868 320.119C437.908 317.136 434.82 311.928 433.446 303.984L428.887 304.773L424.328 305.562C425.974 315.069 429.928 322.708 436.301 327.51C442.72 332.345 450.912 333.789 459.946 332.226L459.157 327.667ZM428.887 304.773L433.446 303.984L433.271 302.973L428.712 303.761L424.153 304.55L424.328 305.562L428.887 304.773ZM428.712 303.761L433.285 303.057C431.367 290.61 434.733 277.416 441.512 266.813C448.308 256.184 458.199 248.654 468.869 246.807L468.08 242.249L467.291 237.69C453.43 240.089 441.526 249.614 433.716 261.829C425.889 274.071 421.836 289.511 424.14 304.466L428.712 303.761ZM468.08 242.249L468.869 246.807C480.124 244.86 487.105 249.869 488.204 256.219L492.762 255.43L497.321 254.641C495.006 241.264 481.327 235.261 467.291 237.69L468.08 242.249ZM492.762 255.43L488.204 256.219C489.367 262.94 484.668 269.587 478.467 270.661L479.255 275.219L480.044 279.778C491.546 277.788 499.309 266.129 497.321 254.641L492.762 255.43ZM479.255 275.219L478.467 270.661C476.39 271.02 475.022 270.605 474.193 270.043C473.378 269.492 472.628 268.494 472.331 266.78L467.773 267.568L463.214 268.357C463.88 272.206 465.837 275.56 469.005 277.705C472.159 279.84 476.051 280.469 480.044 279.778L479.255 275.219ZM467.773 267.568L472.331 266.78C471.98 264.749 472.281 262.802 474.009 260.489C475.899 257.957 479.564 254.922 486.23 251.384L484.062 247.298L481.893 243.211C474.722 247.016 469.674 250.829 466.595 254.953C463.352 259.295 462.428 263.812 463.214 268.357L467.773 267.568ZM484.062 247.298L486.404 243.308C481.846 240.632 476.69 239.45 471.654 240.321L472.443 244.88L473.231 249.439C475.782 248.997 478.739 249.537 481.719 251.287L484.062 247.298ZM517.63 224.818L522.204 225.512C522.929 220.732 523.513 216.659 523.724 213.325C523.93 210.079 523.841 206.889 522.752 204.17C521.513 201.074 519.198 199.081 516.167 198.009C513.445 197.047 510.137 196.819 506.528 196.842L506.557 201.468L506.585 206.094C510.002 206.073 511.955 206.335 513.083 206.733C513.901 207.022 514.024 207.262 514.162 207.607C514.45 208.328 514.677 209.788 514.49 212.74C514.309 215.603 513.791 219.275 513.056 224.125L517.63 224.818ZM506.557 201.468L511.115 200.679L510.678 198.15L506.119 198.939L501.56 199.728L501.998 202.257L506.557 201.468ZM506.119 198.939L506.908 203.498L545.603 196.802L544.814 192.243L544.025 187.685L505.33 194.38L506.119 198.939ZM544.814 192.243L540.242 191.534L533.101 237.572L537.672 238.281L542.244 238.991L549.385 192.952L544.814 192.243ZM537.672 238.281L541.396 241.027C545.666 235.236 550.479 232.425 558.305 231.071L557.516 226.512L556.727 221.954C546.85 223.663 539.805 227.593 533.949 235.536L537.672 238.281ZM557.516 226.512L558.305 231.071C563.787 230.122 567.989 231.435 570.581 233.766C573.116 236.046 574.763 239.884 574.023 245.433L578.609 246.045L583.194 246.657C584.268 238.608 581.945 231.542 576.768 226.886C571.648 222.281 564.396 220.627 556.727 221.954L557.516 226.512ZM578.609 246.045L574.03 245.385L567.637 289.731L572.216 290.391L576.795 291.051L583.188 246.705L578.609 246.045ZM572.216 290.391L567.634 289.753C567.12 293.446 567.241 297.141 568.715 300.035C569.499 301.573 570.72 302.976 572.465 303.843C574.208 304.708 576.069 304.839 577.79 304.541L577.002 299.982L576.213 295.424C576.037 295.454 576.236 295.384 576.58 295.555C576.928 295.728 577.015 295.942 576.96 295.835C576.886 295.69 576.722 295.259 576.648 294.4C576.575 293.559 576.602 292.44 576.798 291.029L572.216 290.391ZM577.002 299.982L577.79 304.541C579.75 304.202 581.53 303.188 582.686 302.453C583.919 301.67 585.093 300.765 585.675 300.337L582.93 296.612L580.186 292.887C579.381 293.48 578.603 294.085 577.723 294.644C577.303 294.911 576.937 295.116 576.633 295.258C576.313 295.407 576.182 295.429 576.213 295.424L577.002 299.982ZM582.93 296.612L579.575 299.797L580.849 301.139L584.204 297.954L587.56 294.769L586.286 293.427L582.93 296.612ZM584.204 297.954L580.713 294.919C575.503 300.91 569.245 303.923 564.793 304.693L565.582 309.252L566.37 313.81C573.046 312.655 581.174 308.49 587.696 300.99L584.204 297.954ZM565.582 309.252L564.793 304.693C560.679 305.405 558.073 304.217 556.527 302.388C554.852 300.405 553.71 296.814 554.476 291.53L549.897 290.867L545.319 290.203C544.304 297.21 545.567 303.752 549.46 308.36C553.483 313.121 559.609 314.98 566.37 313.81L565.582 309.252ZM549.897 290.867L554.46 291.631L561.378 250.32L556.815 249.556L552.252 248.792L545.334 290.103L549.897 290.867ZM556.815 249.556L561.385 250.277C562.506 243.166 561.881 237.684 559.223 233.995C556.319 229.966 551.949 229.293 548.717 229.852L549.505 234.411L550.294 238.969C551.108 238.828 551.448 239.033 551.716 239.404C552.228 240.116 553.235 242.557 552.245 248.835L556.815 249.556ZM549.505 234.411L548.717 229.852C541.364 231.124 534.948 237.703 531.977 244.821L536.247 246.603L540.516 248.385C542.701 243.15 547.024 239.535 550.294 238.969L549.505 234.411ZM536.247 246.603L531.676 245.888L523.639 297.291L528.21 298.006L532.781 298.72L540.818 247.318L536.247 246.603ZM528.21 298.006L523.648 297.239C523.113 300.418 523.377 303.35 524.612 305.885C525.855 308.436 527.849 310.107 529.909 311.165C533.778 313.151 538.423 313.245 541.081 313.185L540.977 308.56L540.873 303.935C538.341 303.992 535.769 303.772 534.134 302.933C533.443 302.578 533.114 302.209 532.93 301.833C532.739 301.44 532.473 300.556 532.773 298.773L528.21 298.006ZM540.977 308.56L536.418 309.349L536.812 311.625L541.371 310.836L545.929 310.047L545.535 307.771L540.977 308.56ZM541.371 310.836L540.552 306.283L501.901 313.231L502.72 317.785L503.538 322.338L542.189 315.39L541.371 310.836ZM502.72 317.785L507.288 318.517L522.198 225.551L517.63 224.818L513.062 224.086L498.152 317.052L502.72 317.785Z" fill="#07154B" mask="url(#path-1-outside-1_2447_406)"/>
</g>
<g filter="url(#filter1_d_2447_406)">
<path d="M622.586 259.071C627.27 259.065 631.103 262.142 632.871 266.545C634.65 270.974 633.964 275.124 632.492 278.792C631.072 282.333 628.748 285.785 627.104 288.604C625.15 291.955 620.81 296.352 617.198 299.744C615.348 301.482 613.611 303.026 612.339 304.136C611.702 304.691 611.179 305.138 610.815 305.447C610.633 305.602 610.49 305.723 610.392 305.805C610.344 305.846 610.307 305.878 610.281 305.899C610.268 305.91 610.258 305.918 610.251 305.924C610.247 305.927 610.245 305.93 610.243 305.931L610.24 305.934L607.963 307.83L606.675 305.161L608.759 304.156L606.675 305.16L606.674 305.159C606.674 305.158 606.673 305.156 606.672 305.154C606.669 305.148 606.666 305.14 606.661 305.129C606.65 305.108 606.635 305.077 606.615 305.036C606.575 304.954 606.516 304.831 606.44 304.674C606.289 304.36 606.068 303.906 605.796 303.344C605.25 302.221 604.495 300.672 603.656 298.964C601.972 295.538 599.968 291.512 598.639 289.013C597.359 286.606 595.703 283.833 594.701 280.515C593.669 277.097 593.319 273.129 594.376 268.077C595.558 262.425 599.68 259.343 604.204 259.639C607.332 259.844 610.239 261.641 612.092 264.65C615.278 260.938 618.943 259.076 622.586 259.071Z" fill="white" stroke="#07154B" stroke-width="4.62639"/>
<path d="M659.471 101.22L658.613 104.664L622.386 250.054L622.021 251.518L601.132 255.133L601.477 252.069L617.43 110.186L617.624 108.461L659.471 101.22Z" fill="white" stroke="#07154B" stroke-width="4.62639"/>
</g>
<defs>
<filter id="filter0_d_2447_406" x="26.9111" y="61.151" width="583.297" height="394.162" filterUnits="userSpaceOnUse" color-interpolation-filters="sRGB">
<feFlood flood-opacity="0" result="BackgroundImageFix"/>
<feColorMatrix in="SourceAlpha" type="matrix" values="0 0 0 0 0 0 0 0 0 0 0 0 0 0 0 0 0 0 127 0" result="hardAlpha"/>
<feOffset dx="8.59186" dy="6.60913"/>
<feComposite in2="hardAlpha" operator="out"/>
<feColorMatrix type="matrix" values="0 0 0 0 0.027451 0 0 0 0 0.0823529 0 0 0 0 0.294118 0 0 0 1 0"/>
<feBlend mode="normal" in2="BackgroundImageFix" result="effect1_dropShadow_2447_406"/>
<feBlend mode="normal" in="SourceGraphic" in2="effect1_dropShadow_2447_406" result="shape"/>
</filter>
<filter id="filter1_d_2447_406" x="591.422" y="98.3358" width="76.4562" height="218.473" filterUnits="userSpaceOnUse" color-interpolation-filters="sRGB">
<feFlood flood-opacity="0" result="BackgroundImageFix"/>
<feColorMatrix in="SourceAlpha" type="matrix" values="0 0 0 0 0 0 0 0 0 0 0 0 0 0 0 0 0 0 127 0" result="hardAlpha"/>
<feOffset dx="5.30485" dy="5.30485"/>
<feComposite in2="hardAlpha" operator="out"/>
<feColorMatrix type="matrix" values="0 0 0 0 0.027451 0 0 0 0 0.0823529 0 0 0 0 0.294118 0 0 0 1 0"/>
<feBlend mode="normal" in2="BackgroundImageFix" result="effect1_dropShadow_2447_406"/>
<feBlend mode="normal" in="SourceGraphic" in2="effect1_dropShadow_2447_406" result="shape"/>
</filter>
</defs>
</svg>
