<svg width="374" height="252" viewBox="0 0 374 252" fill="none" xmlns="http://www.w3.org/2000/svg">
<g filter="url(#filter0_d_2834_210)">
<path d="M54.9138 163.199L38.7295 215.657L73.6039 190.996L105.718 201.152L148.269 158.763L143.873 190.996L179.873 166.597L200.936 209.473L224.873 166.597L266.373 187.097L271.187 149.597L322.373 166.597L310.873 128.597L353.373 106.597L306.373 88.5967L310.873 66.0967L256.727 77.6793L244.713 48.7767L218.873 80.0967L195.873 39.5966L168.373 77.6793L132.373 52.5967L125.373 85.5967L84.3728 80.0967L80.3728 114.097L57.3728 140.597L99.3968 144.597L99.3968 183.216L54.9138 163.199Z" fill="white"/>
<path d="M54.9138 163.199L38.7295 215.657L73.6039 190.996L105.718 201.152L148.269 158.763L143.873 190.996L179.873 166.597L200.936 209.473L224.873 166.597L266.373 187.097L271.187 149.597L322.373 166.597L310.873 128.597L353.373 106.597L306.373 88.5967L310.873 66.0967L256.727 77.6793L244.713 48.7767L218.873 80.0967L195.873 39.5966L168.373 77.6793L132.373 52.5967L125.373 85.5967L84.3728 80.0967L80.3728 114.097L57.3728 140.597L99.3968 144.597L99.3968 183.216L54.9138 163.199Z" stroke="#07154B" stroke-width="4"/>
</g>
<path d="M114.999 115.876V101.001H127.749V103.126H129.874V109.501H127.749V111.626H119.249V115.876H114.999ZM119.249 109.501H125.624V103.126H119.249V109.501ZM131.999 115.876V101.001H144.749V103.126H146.874V109.501H142.624V111.626H144.749V113.751H146.874V115.876H140.499V113.751H138.374V111.626H136.249V115.876H131.999ZM136.249 109.501H140.499V107.376H142.624V103.126H136.249V109.501ZM148.999 115.876V101.001H163.874V103.126H153.249V107.376H161.749V109.501H153.249V113.751H163.874V115.876H148.999ZM168.124 115.876V113.751H165.999V111.626H170.249V113.751H176.624V109.501H168.124V107.376H165.999V103.126H168.124V101.001H178.749V103.126H180.874V105.251H176.624V103.126H170.249V107.376H178.749V109.501H180.874V113.751H178.749V115.876H168.124ZM185.124 115.876V113.751H182.999V111.626H187.249V113.751H193.624V109.501H185.124V107.376H182.999V103.126H185.124V101.001H195.749V103.126H197.874V105.251H193.624V103.126H187.249V107.376H195.749V109.501H197.874V113.751H195.749V115.876H185.124ZM216.999 115.876V101.001H229.749V103.126H231.874V109.501H229.749V111.626H221.249V115.876H216.999ZM221.249 109.501H227.624V103.126H221.249V109.501ZM236.124 115.876V101.001H240.374V113.751H248.874V115.876H236.124ZM250.999 115.876V105.251H253.124V103.126H255.249V101.001H261.624V103.126H263.749V105.251H265.874V115.876H261.624V111.626H255.249V115.876H250.999ZM255.249 109.501H261.624V105.251H259.499V103.126H257.374V105.251H255.249V109.501ZM274.374 115.876V109.501H272.249V107.376H270.124V101.001H274.374V107.376H278.624V101.001H282.874V107.376H280.749V109.501H278.624V115.876H274.374ZM129.874 142.876V130.126H125.624V128.001H138.374V130.126H134.124V142.876H129.874ZM142.624 142.876V140.751H140.499V130.126H142.624V128.001H153.249V130.126H155.374V140.751H153.249V142.876H142.624ZM144.749 140.751H151.124V130.126H144.749V140.751ZM174.499 142.876V128.001H187.249V130.126H189.374V136.501H185.124V138.626H187.249V140.751H189.374V142.876H182.999V140.751H180.874V138.626H178.749V142.876H174.499ZM178.749 136.501H182.999V134.376H185.124V130.126H178.749V136.501ZM191.499 142.876V128.001H206.374V130.126H195.749V134.376H204.249V136.501H195.749V140.751H206.374V142.876H191.499ZM214.874 142.876V140.751H212.749V138.626H210.624V136.501H208.499V128.001H212.749V134.376H214.874V136.501H216.999V134.376H219.124V128.001H223.374V136.501H221.249V138.626H219.124V140.751H216.999V142.876H214.874ZM225.499 142.876V128.001H240.374V130.126H229.749V134.376H238.249V136.501H229.749V140.751H240.374V142.876H225.499ZM242.499 142.876V132.251H244.624V130.126H246.749V128.001H253.124V130.126H255.249V132.251H257.374V142.876H253.124V138.626H246.749V142.876H242.499ZM246.749 136.501H253.124V132.251H250.999V130.126H248.874V132.251H246.749V136.501ZM261.624 142.876V128.001H265.874V140.751H274.374V142.876H261.624ZM280.749 138.626V128.001H287.124V134.376H284.999V138.626H280.749ZM280.749 142.876V140.751H284.999V142.876H280.749Z" fill="#07154B"/>
<defs>
<filter id="filter0_d_2834_210" x="35.0859" y="35.9013" width="331.165" height="192.781" filterUnits="userSpaceOnUse" color-interpolation-filters="sRGB">
<feFlood flood-opacity="0" result="BackgroundImageFix"/>
<feColorMatrix in="SourceAlpha" type="matrix" values="0 0 0 0 0 0 0 0 0 0 0 0 0 0 0 0 0 0 127 0" result="hardAlpha"/>
<feOffset dx="8" dy="8"/>
<feComposite in2="hardAlpha" operator="out"/>
<feColorMatrix type="matrix" values="0 0 0 0 0 0 0 0 0 0.262745 0 0 0 0 0.552941 0 0 0 1 0"/>
<feBlend mode="normal" in2="BackgroundImageFix" result="effect1_dropShadow_2834_210"/>
<feBlend mode="normal" in="SourceGraphic" in2="effect1_dropShadow_2834_210" result="shape"/>
</filter>
</defs>
</svg>
