<svg width="628" height="363" viewBox="0 0 628 363" fill="none" xmlns="http://www.w3.org/2000/svg">
<g filter="url(#filter0_d_97_18)">
<path d="M581.81 177.796C618.783 138.065 611.226 107.077 587.356 91.5642C569.276 79.8147 522.424 100.901 522.424 100.901C522.424 100.901 523.046 61.2364 507.104 50.0605C487.038 35.9934 446.347 44.3997 432.936 61.599C406.242 95.8355 415.457 171.944 436.24 192.703C457.023 213.463 544.837 217.528 581.81 177.796Z" fill="#F7A4AF"/>
<path d="M437.654 191.288C442.449 196.078 451.388 200.118 462.999 202.77C474.535 205.404 488.434 206.606 502.862 205.936C531.809 204.591 562.377 195.743 580.346 176.433C598.639 156.776 605.639 139.574 605.399 125.633C605.165 111.985 597.986 101.055 586.802 93.5939L586.266 93.2414C582.27 90.6446 576.461 89.747 569.676 90.0646C562.945 90.3796 555.55 91.8746 548.635 93.7565C541.732 95.6351 535.377 97.8794 530.743 99.6569C528.428 100.545 526.547 101.315 525.248 101.861C524.598 102.134 524.094 102.352 523.754 102.5C523.584 102.574 523.455 102.631 523.369 102.669C523.326 102.688 523.294 102.702 523.273 102.712C523.263 102.716 523.255 102.72 523.25 102.722C523.248 102.723 523.246 102.724 523.245 102.724L523.245 102.725L520.374 104.016L520.424 100.87L520.424 100.869C520.424 100.868 520.423 100.867 520.423 100.866C520.423 100.862 520.424 100.856 520.424 100.848C520.424 100.831 520.425 100.804 520.425 100.769C520.426 100.698 520.426 100.59 520.426 100.448C520.427 100.164 520.426 99.7422 520.419 99.1997C520.406 98.1143 520.368 96.5457 520.274 94.6265C520.086 90.7834 519.671 85.5544 518.768 79.9925C517.863 74.4203 516.478 68.5787 514.375 63.4827C512.327 58.5214 509.671 54.4445 506.286 51.9364L505.956 51.6981C496.538 45.0959 481.972 43.6259 467.867 46.0751C453.973 48.4877 441.193 54.5865 434.812 62.453L434.513 62.8286C421.611 79.3763 417.227 106.365 418.781 132.084C419.554 144.89 421.795 157.255 425.109 167.669C428.437 178.129 432.787 186.427 437.654 191.288Z" stroke="#F4001F" stroke-width="4"/>
</g>
<g filter="url(#filter1_d_97_18)">
<path d="M370.818 37.8963C369.76 21.2268 356.856 15.7382 342.007 14.8475C323.628 13.7451 307.812 45.4622 307.812 45.4622C307.812 45.4622 286.723 36.099 274.987 41.3065C260.294 47.8256 258.221 62.3841 259.685 77.434C262.419 105.556 314.884 110.719 328.562 110.172C342.24 109.624 371.875 54.5657 370.818 37.8963Z" fill="#F7A4AF"/>
<path d="M328.482 108.173C329.587 108.129 331.146 107.496 333.147 105.994C335.103 104.524 337.271 102.382 339.561 99.695C344.135 94.3257 349.018 86.9884 353.474 79.0969C357.925 71.2127 361.912 62.8424 364.714 55.4373C367.553 47.9342 369.056 41.7231 368.822 38.0231C368.33 30.2688 365.134 25.3066 360.455 22.1059C355.969 19.037 349.958 17.48 343.24 16.9385L341.888 16.8443C337.898 16.6049 333.904 18.139 330.05 20.8098C326.2 23.4775 322.638 27.1791 319.578 30.9933C316.526 34.797 314.025 38.6463 312.286 41.5514C311.418 43.0014 310.743 44.211 310.286 45.0542C310.058 45.4754 309.885 45.8053 309.77 46.0273C309.712 46.1382 309.669 46.222 309.641 46.2772C309.627 46.3048 309.617 46.3259 309.61 46.3388C309.607 46.345 309.605 46.3493 309.603 46.352C309.603 46.3533 309.602 46.3546 309.602 46.355L309.603 46.355L308.748 48.0658L307 47.2902C306.999 47.2895 306.995 47.2876 306.991 47.2859C306.983 47.2823 306.97 47.2766 306.952 47.2688C306.916 47.253 306.86 47.2289 306.786 47.1971C306.637 47.1335 306.415 47.039 306.125 46.9201C305.544 46.6822 304.697 46.3462 303.642 45.9572C301.528 45.1782 298.596 44.1947 295.315 43.3718C292.026 42.5472 288.432 41.8951 284.987 41.7569C281.74 41.6268 278.744 41.9581 276.283 42.9315L275.798 43.1345C268.999 46.151 265.175 50.9689 263.169 56.82C261.26 62.3885 260.984 68.9499 261.551 75.8552L261.675 77.2407C262.293 83.5968 265.71 88.7395 270.929 92.9304C276.176 97.1439 283.158 100.315 290.616 102.645C305.542 107.307 321.846 108.439 328.482 108.173Z" stroke="#F4001F" stroke-width="4"/>
</g>
<g filter="url(#filter2_d_97_18)">
<path d="M378.706 213.664C394.929 185.075 384.207 166.779 365.938 159.827C352.101 154.563 326.002 172.729 326.002 172.729C326.002 172.729 318.89 148.178 306.535 143.032C290.983 136.555 266.439 146.218 261.083 158.308C250.421 182.376 270.753 228.341 288.033 238.87C305.312 249.399 362.483 242.253 378.706 213.664Z" fill="#F7A4AF"/>
<path d="M289.074 237.162C292.968 239.535 299.383 241.038 307.3 241.396C315.154 241.751 324.253 240.97 333.338 238.982C351.635 234.978 369.28 226.223 376.967 212.677C384.905 198.688 386.061 187.561 383.355 179.251C380.736 171.208 374.363 165.389 366.038 162.016L365.226 161.697C362.292 160.58 358.515 160.65 354.289 161.576C350.097 162.495 345.686 164.206 341.632 166.114C337.588 168.017 333.958 170.085 331.336 171.682C330.026 172.479 328.972 173.155 328.248 173.63C327.886 173.868 327.607 174.055 327.42 174.182C327.326 174.245 327.256 174.294 327.209 174.325C327.186 174.341 327.169 174.354 327.158 174.362C327.153 174.365 327.148 174.368 327.146 174.369L327.144 174.371L327.144 174.371L324.856 175.963L324.081 173.287L324.08 173.286L324.08 173.284C324.08 173.282 324.078 173.279 324.077 173.274C324.074 173.265 324.07 173.249 324.064 173.228C324.051 173.185 324.031 173.121 324.005 173.035C323.953 172.863 323.873 172.606 323.767 172.276C323.555 171.614 323.237 170.657 322.817 169.492C321.974 167.157 320.726 163.998 319.105 160.69C317.481 157.375 315.506 153.961 313.223 151.088C311.069 148.378 308.73 146.262 306.261 145.098L305.766 144.878C298.609 141.897 289.132 142.572 280.657 145.592C272.391 148.537 265.695 153.484 263.145 158.621L262.911 159.118C257.908 170.413 260.093 187.285 265.953 202.966C268.857 210.74 272.616 218.081 276.689 224.105C280.785 230.161 285.104 234.743 289.074 237.162Z" stroke="#F4001F" stroke-width="4"/>
</g>
<g filter="url(#filter3_d_97_18)">
<path d="M198.909 70.7775C186.094 18.0391 156.065 7.28821 129.973 18.6758C110.211 27.3008 102.021 78.0229 102.021 78.0229C102.021 78.0229 69.251 55.6675 51.145 62.8236C28.3548 71.831 12.9713 110.429 19.9471 131.093C33.8329 172.226 102.444 206.431 131.215 200.51C159.987 194.588 211.723 123.516 198.909 70.7775Z" fill="#F7A4AF"/>
<path d="M130.812 198.551C137.451 197.184 145.744 191.946 154.35 183.712C162.9 175.532 171.555 164.591 178.938 152.177C193.752 127.271 203.193 96.8804 196.965 71.2497C190.625 45.1566 180.118 29.8429 168.347 22.3678C156.825 15.0502 143.748 15.0261 131.363 20.2555L130.773 20.5093C126.405 22.4157 122.458 26.7707 118.988 32.6096C115.546 38.4024 112.722 45.3993 110.487 52.2082C108.255 59.0047 106.63 65.5455 105.563 70.3927C105.03 72.8142 104.637 74.8082 104.378 76.194C104.248 76.8866 104.152 77.4272 104.089 77.7927C104.057 77.9755 104.033 78.1146 104.018 78.207C104.01 78.2532 104.004 78.2881 104.001 78.3106C103.999 78.3218 103.997 78.3305 103.997 78.3357C103.996 78.338 103.996 78.3399 103.996 78.3409L103.996 78.3419L103.494 81.4487L100.894 79.6755L100.894 79.6745C100.893 79.6741 100.892 79.6742 100.891 79.6733C100.888 79.6712 100.883 79.6674 100.876 79.6628C100.862 79.6533 100.84 79.638 100.811 79.6183C100.752 79.5787 100.662 79.5194 100.544 79.441C100.307 79.2843 99.9546 79.0524 99.4978 78.7595C98.5841 78.1736 97.2541 77.3411 95.6001 76.3631C92.2881 74.4046 87.6942 71.8726 82.5538 69.5647C77.4038 67.2526 71.7649 65.1926 66.3527 64.143C61.0836 63.1212 56.218 63.094 52.2607 64.5391L51.8798 64.6839C41.1833 68.9117 31.9377 80.2619 26.2172 93.3858C20.5827 106.313 18.6385 120.339 21.6927 129.997L21.8417 130.453C28.5533 150.334 48.6707 168.852 70.9969 181.713C82.1137 188.117 93.6699 193.054 104.187 196.02C114.753 199.001 124.074 199.937 130.812 198.551Z" stroke="#F4001F" stroke-width="4"/>
</g>
<g filter="url(#filter4_d_97_18)">
<path d="M510.99 318.167C516.063 306.239 519.792 295.098 511.684 285.52C502.057 274.147 472.434 286.344 472.434 286.344C472.434 286.344 477.605 243.613 458.541 236.801C443.006 231.249 429.695 239.686 417.821 251.849C395.621 274.589 422.827 323.939 433.7 328.785C444.573 333.631 499.075 346.182 510.99 318.167Z" fill="#F7A4AF"/>
<path d="M425.18 316.817C427.001 319.579 428.8 321.898 430.445 323.653C432.124 325.443 433.519 326.515 434.514 326.958C439.675 329.258 455.747 333.561 471.983 333.799C480.083 333.918 488.07 333.021 494.695 330.461C501.077 327.995 506.11 324.027 508.888 317.977L509.149 317.384C511.688 311.414 513.772 305.899 514.291 300.761C514.783 295.89 513.864 291.408 510.492 287.217L510.157 286.812C508.211 284.514 505.137 283.265 501.271 282.839C497.417 282.413 493.029 282.837 488.82 283.633C484.629 284.425 480.715 285.567 477.84 286.515C476.405 286.989 475.236 287.412 474.429 287.715C474.025 287.866 473.713 287.987 473.503 288.07C473.398 288.111 473.319 288.143 473.267 288.164C473.241 288.174 473.222 288.182 473.21 288.187C473.204 288.19 473.2 288.192 473.197 288.193L473.195 288.193L470.038 289.494L470.448 286.104L470.448 286.103C470.449 286.103 470.448 286.101 470.448 286.1C470.449 286.096 470.45 286.089 470.451 286.081C470.453 286.062 470.456 286.033 470.46 285.995C470.469 285.919 470.482 285.804 470.498 285.653C470.53 285.349 470.575 284.898 470.626 284.319C470.728 283.162 470.854 281.494 470.946 279.47C471.131 275.415 471.178 269.96 470.645 264.315C470.109 258.65 468.998 252.91 466.926 248.225C464.919 243.689 462.111 240.349 458.245 238.826L457.868 238.684C443.982 233.722 431.822 240.708 420.359 252.127L419.252 253.246C409 263.748 409.912 280.733 415.251 296.381C417.888 304.11 421.539 311.292 425.18 316.817Z" stroke="#F4001F" stroke-width="4"/>
</g>
<g filter="url(#filter5_d_97_18)">
<path d="M211.74 215.273C198.773 194.208 182.756 194.682 171.48 204.248C162.938 211.494 165.403 235.321 165.403 235.321C165.403 235.321 146.571 231.146 138.651 237.455C128.681 245.396 126.093 265.119 132.127 273.033C144.138 288.785 181.961 291.962 195.241 284.344C208.521 276.725 224.707 236.338 211.74 215.273Z" fill="#F7A4AF"/>
<path d="M194.246 282.608C197.137 280.95 200.424 277.332 203.54 272.253C206.624 267.227 209.419 260.968 211.417 254.279C215.449 240.775 216.067 226.117 210.037 216.321C203.739 206.091 196.91 201.422 190.607 200.24C184.506 199.096 178.467 201.139 173.273 205.358L172.773 205.774C171.065 207.224 169.765 209.643 168.844 212.732C167.932 215.788 167.455 219.282 167.234 222.633C167.015 225.972 167.054 229.102 167.149 231.401C167.197 232.549 167.258 233.485 167.308 234.131C167.332 234.453 167.354 234.704 167.369 234.871C167.377 234.955 167.383 235.018 167.387 235.059C167.389 235.079 167.39 235.095 167.391 235.105C167.391 235.109 167.392 235.112 167.392 235.114L167.392 235.115L167.677 237.874L164.97 237.274C164.968 237.274 164.966 237.272 164.962 237.271C164.955 237.27 164.944 237.268 164.929 237.265C164.897 237.258 164.848 237.247 164.783 237.234C164.653 237.207 164.455 237.167 164.2 237.118C163.691 237.02 162.948 236.886 162.031 236.744C160.191 236.458 157.664 236.143 154.908 236.02C152.143 235.896 149.201 235.968 146.512 236.431C143.971 236.868 141.797 237.631 140.207 238.783L139.897 239.019C135.434 242.574 132.452 248.955 131.361 255.579C130.294 262.056 131.133 268.113 133.485 271.501L133.717 271.82C136.444 275.397 140.734 278.373 145.994 280.687C151.237 282.993 157.324 284.588 163.492 285.473C169.659 286.358 175.849 286.526 181.279 286.015C186.749 285.499 191.28 284.31 194.246 282.608Z" stroke="#F4001F" stroke-width="4"/>
</g>
<defs>
<filter id="filter0_d_97_18" x="404.933" y="42.9625" width="202.472" height="176.704" filterUnits="userSpaceOnUse" color-interpolation-filters="sRGB">
<feFlood flood-opacity="0" result="BackgroundImageFix"/>
<feColorMatrix in="SourceAlpha" type="matrix" values="0 0 0 0 0 0 0 0 0 0 0 0 0 0 0 0 0 0 127 0" result="hardAlpha"/>
<feOffset dx="-11.5481" dy="11.5481"/>
<feComposite in2="hardAlpha" operator="out"/>
<feColorMatrix type="matrix" values="0 0 0 0 0.956863 0 0 0 0 0 0 0 0 0 0.121569 0 0 0 1 0"/>
<feBlend mode="normal" in2="BackgroundImageFix" result="effect1_dropShadow_97_18"/>
<feBlend mode="normal" in="SourceGraphic" in2="effect1_dropShadow_97_18" result="shape"/>
</filter>
<filter id="filter1_d_97_18" x="251.566" y="14.8195" width="119.28" height="103.114" filterUnits="userSpaceOnUse" color-interpolation-filters="sRGB">
<feFlood flood-opacity="0" result="BackgroundImageFix"/>
<feColorMatrix in="SourceAlpha" type="matrix" values="0 0 0 0 0 0 0 0 0 0 0 0 0 0 0 0 0 0 127 0" result="hardAlpha"/>
<feOffset dx="-7.72366" dy="7.72366"/>
<feComposite in2="hardAlpha" operator="out"/>
<feColorMatrix type="matrix" values="0 0 0 0 0.956863 0 0 0 0 0 0 0 0 0 0.121569 0 0 0 1 0"/>
<feBlend mode="normal" in2="BackgroundImageFix" result="effect1_dropShadow_97_18"/>
<feBlend mode="normal" in="SourceGraphic" in2="effect1_dropShadow_97_18" result="shape"/>
</filter>
<filter id="filter2_d_97_18" x="246.581" y="140.955" width="140.091" height="114.072" filterUnits="userSpaceOnUse" color-interpolation-filters="sRGB">
<feFlood flood-opacity="0" result="BackgroundImageFix"/>
<feColorMatrix in="SourceAlpha" type="matrix" values="0 0 0 0 0 0 0 0 0 0 0 0 0 0 0 0 0 0 127 0" result="hardAlpha"/>
<feOffset dx="-11.5481" dy="11.5481"/>
<feComposite in2="hardAlpha" operator="out"/>
<feColorMatrix type="matrix" values="0 0 0 0 0.956863 0 0 0 0 0 0 0 0 0 0.121569 0 0 0 1 0"/>
<feBlend mode="normal" in2="BackgroundImageFix" result="effect1_dropShadow_97_18"/>
<feBlend mode="normal" in="SourceGraphic" in2="effect1_dropShadow_97_18" result="shape"/>
</filter>
<filter id="filter3_d_97_18" x="6.70512" y="14.5726" width="194.207" height="198.155" filterUnits="userSpaceOnUse" color-interpolation-filters="sRGB">
<feFlood flood-opacity="0" result="BackgroundImageFix"/>
<feColorMatrix in="SourceAlpha" type="matrix" values="0 0 0 0 0 0 0 0 0 0 0 0 0 0 0 0 0 0 127 0" result="hardAlpha"/>
<feOffset dx="-11.5481" dy="11.5481"/>
<feComposite in2="hardAlpha" operator="out"/>
<feColorMatrix type="matrix" values="0 0 0 0 0.956863 0 0 0 0 0 0 0 0 0 0.121569 0 0 0 1 0"/>
<feBlend mode="normal" in2="BackgroundImageFix" result="effect1_dropShadow_97_18"/>
<feBlend mode="normal" in="SourceGraphic" in2="effect1_dropShadow_97_18" result="shape"/>
</filter>
<filter id="filter4_d_97_18" x="400.94" y="235.058" width="115.474" height="109.16" filterUnits="userSpaceOnUse" color-interpolation-filters="sRGB">
<feFlood flood-opacity="0" result="BackgroundImageFix"/>
<feColorMatrix in="SourceAlpha" type="matrix" values="0 0 0 0 0 0 0 0 0 0 0 0 0 0 0 0 0 0 127 0" result="hardAlpha"/>
<feOffset dx="-8.40833" dy="8.40833"/>
<feComposite in2="hardAlpha" operator="out"/>
<feColorMatrix type="matrix" values="0 0 0 0 0.956863 0 0 0 0 0 0 0 0 0 0.121569 0 0 0 1 0"/>
<feBlend mode="normal" in2="BackgroundImageFix" result="effect1_dropShadow_97_18"/>
<feBlend mode="normal" in="SourceGraphic" in2="effect1_dropShadow_97_18" result="shape"/>
</filter>
<filter id="filter5_d_97_18" x="120.716" y="197.925" width="95.7898" height="98.5653" filterUnits="userSpaceOnUse" color-interpolation-filters="sRGB">
<feFlood flood-opacity="0" result="BackgroundImageFix"/>
<feColorMatrix in="SourceAlpha" type="matrix" values="0 0 0 0 0 0 0 0 0 0 0 0 0 0 0 0 0 0 127 0" result="hardAlpha"/>
<feOffset dx="-8.18892" dy="8.18892"/>
<feComposite in2="hardAlpha" operator="out"/>
<feColorMatrix type="matrix" values="0 0 0 0 0.956863 0 0 0 0 0 0 0 0 0 0.121569 0 0 0 1 0"/>
<feBlend mode="normal" in2="BackgroundImageFix" result="effect1_dropShadow_97_18"/>
<feBlend mode="normal" in="SourceGraphic" in2="effect1_dropShadow_97_18" result="shape"/>
</filter>
</defs>
</svg>
